{"glyphs":{"0":{"ha":910,"x_min":0,"x_max":0,"o":"m 115 649 b 589 1007 156 878 328 1007 b 871 900 717 1007 811 971 b 931 617 931 828 951 733 l 882 340 b 414 -21 842 108 674 -21 b 129 88 285 -21 190 15 b 67 372 67 160 46 254 m 615 650 b 542 728 622 700 596 728 b 439 650 486 728 446 700 l 383 336 b 458 258 374 286 403 258 b 560 336 515 258 550 285 "},"1":{"ha":631,"x_min":0,"x_max":0,"o":"m 604 986 b 656 925 650 986 663 971 l 503 61 b 431 0 493 15 476 0 l 231 0 b 181 61 185 0 171 15 l 271 571 l 211 540 b 122 564 157 514 139 524 l 65 713 b 108 796 53 751 64 772 l 428 963 b 518 986 458 978 489 986 "},"2":{"ha":863,"x_min":0,"x_max":0,"o":"m 110 756 b 549 1007 206 924 353 1007 b 815 915 667 1007 756 976 b 879 679 875 853 896 775 b 560 338 844 481 736 388 b 465 314 536 331 506 324 b 378 290 425 304 396 297 b 347 268 360 283 349 276 l 347 264 l 725 264 b 775 203 771 264 782 249 l 750 61 b 678 0 743 15 724 0 l 28 0 b -22 61 -18 0 -29 15 l 1 196 b 154 417 28 304 72 367 b 307 492 217 454 235 463 b 324 499 314 494 319 497 b 369 518 329 501 344 508 b 417 536 394 528 410 533 b 493 576 429 542 479 564 b 553 665 518 596 550 628 b 499 728 560 707 542 728 b 392 647 458 728 432 708 b 307 608 364 603 347 593 l 133 678 b 110 756 94 693 88 713 "},"3":{"ha":878,"x_min":0,"x_max":0,"o":"m 875 710 b 732 517 860 628 813 564 b 829 282 815 465 847 388 b 396 -21 794 81 650 -21 b 10 231 172 -21 43 63 b 63 310 3 269 21 296 l 242 369 b 313 331 288 385 303 375 b 407 250 322 276 354 250 b 497 308 461 250 490 269 b 442 365 504 351 486 365 l 381 365 b 329 426 335 365 322 381 l 354 569 b 426 631 361 615 381 631 l 468 631 b 546 683 514 631 539 649 b 486 736 553 722 536 736 b 369 668 429 736 401 724 b 285 629 346 624 328 614 l 128 689 b 103 767 88 704 81 724 b 569 1007 193 932 335 1007 b 818 922 681 1007 764 979 b 875 710 872 865 890 794 "},"4":{"ha":929,"x_min":0,"x_max":0,"o":"m 858 421 b 908 360 904 421 915 406 l 888 246 b 817 185 881 200 863 185 l 754 185 l 732 61 b 660 0 722 15 706 0 l 475 0 b 425 61 429 0 418 15 l 447 185 l 43 185 b -8 246 -3 185 -15 200 l 11 357 b 69 472 22 414 31 433 l 560 943 b 664 986 594 976 615 986 l 833 986 b 885 925 879 986 892 971 l 796 421 m 519 599 l 338 421 l 489 421 "},"5":{"ha":867,"x_min":0,"x_max":0,"o":"m 838 988 b 888 926 883 988 894 972 l 860 771 b 788 710 853 725 833 710 l 456 710 l 442 658 l 507 658 b 825 319 767 658 860 525 b 683 74 807 218 760 136 b 385 -21 606 11 506 -21 b -4 208 151 -21 29 49 b 46 286 -14 251 1 269 l 247 358 b 315 324 286 374 304 367 b 406 264 326 283 349 264 b 494 340 457 264 486 289 b 418 413 504 390 485 413 l 129 413 b 79 483 78 413 64 433 l 196 901 b 308 988 214 967 240 988 "},"6":{"ha":915,"x_min":0,"x_max":0,"o":"m 435 621 b 549 626 464 625 501 626 b 894 307 828 626 933 529 b 419 -21 856 92 685 -21 b 71 375 149 -21 26 124 l 118 644 b 597 1007 160 886 319 1007 b 963 786 814 1007 931 940 b 911 708 969 743 957 725 l 743 647 b 699 650 719 639 707 640 b 671 689 690 657 681 674 b 567 728 653 718 628 728 b 436 629 488 728 449 701 m 379 307 b 465 244 374 267 392 244 b 574 304 543 244 567 264 b 486 361 581 344 560 361 b 388 353 449 361 415 358 "},"7":{"ha":808,"x_min":0,"x_max":0,"o":"m 871 986 b 922 925 917 986 929 971 l 901 807 b 868 722 894 775 883 747 l 428 54 b 304 0 396 8 378 0 l 108 0 b 89 61 69 0 63 21 l 508 708 l 169 708 b 119 769 124 708 113 724 l 147 925 b 218 986 154 971 172 986 "},"8":{"ha":913,"x_min":0,"x_max":0,"o":"m 144 717 b 585 1007 178 907 340 1007 b 922 711 836 1007 956 896 b 803 517 908 635 868 569 b 881 286 872 463 899 386 b 404 -21 843 82 685 -21 b 35 283 115 -21 1 96 b 206 510 53 378 110 453 b 144 717 149 554 129 624 m 601 694 b 540 743 607 724 589 743 b 467 694 497 743 474 726 b 528 631 463 667 482 646 l 551 622 b 601 694 581 646 597 669 m 550 294 b 532 333 553 313 547 325 b 414 379 517 342 478 357 b 357 299 381 350 361 324 b 446 239 350 260 381 239 b 550 294 506 239 544 263 "},"9":{"ha":915,"x_min":0,"x_max":0,"o":"m 544 365 b 431 360 515 361 478 360 b 85 679 151 360 46 457 b 560 1007 124 894 294 1007 b 908 611 831 1007 953 863 l 861 342 b 382 -21 819 100 660 -21 b 17 200 165 -21 49 46 b 68 278 10 243 22 261 l 236 339 b 282 338 260 347 272 346 b 308 297 289 329 299 313 b 413 258 326 268 351 258 b 543 357 492 258 531 285 m 600 679 b 514 742 606 719 588 742 b 406 682 436 742 413 722 b 493 625 399 642 419 625 b 592 633 531 625 564 628 "}," ":{"ha":222,"x_min":0,"x_max":0,"o":""},"!":{"ha":421,"x_min":0,"x_max":0,"o":"m 429 1026 b 476 972 472 1026 483 1013 l 349 393 b 285 338 339 350 325 338 l 131 338 b 86 393 90 338 81 350 l 165 972 b 229 1026 171 1013 186 1026 m 251 285 b 346 172 339 285 361 257 l 333 101 b 200 -11 318 17 288 -11 l 92 -11 b -3 101 4 -11 -18 17 l 10 172 b 143 285 25 257 56 285 "},"\"":{"ha":606,"x_min":0,"x_max":0,"o":"m 310 665 b 240 619 297 625 286 619 l 135 619 b 93 665 92 619 86 625 l 140 938 b 199 986 147 978 156 986 l 351 986 b 393 938 394 986 404 978 m 590 665 b 521 619 578 625 567 619 l 415 619 b 374 665 372 619 367 625 l 421 938 b 479 986 428 978 436 986 l 632 986 b 674 938 675 986 685 978 "},"#":{"ha":1110,"x_min":0,"x_max":0,"o":"m 1108 775 b 1139 722 1149 775 1157 763 l 1072 581 b 990 531 1057 547 1029 531 l 922 531 l 860 401 l 932 401 b 964 347 975 401 982 388 l 893 207 b 811 156 875 168 854 156 l 743 156 l 696 56 b 617 0 679 18 653 0 l 458 0 b 428 56 418 0 410 15 l 475 156 l 369 156 l 322 56 b 242 0 301 15 282 0 l 83 0 b 54 56 43 0 36 15 l 101 156 l 31 156 b 0 210 -10 156 -18 169 l 69 350 b 151 401 88 389 107 401 l 218 401 l 281 531 l 210 531 b 176 585 167 531 158 544 l 246 725 b 328 775 264 764 285 775 l 396 775 l 446 879 b 525 935 463 917 489 935 l 683 935 b 714 879 724 935 732 919 l 664 775 l 769 775 l 819 879 b 900 935 840 919 860 935 l 1058 935 b 1088 879 1099 935 1106 919 l 1038 775 m 549 531 l 486 401 l 592 401 l 654 531 "},"$":{"ha":894,"x_min":0,"x_max":0,"o":"m 660 1049 b 706 994 703 1049 713 1035 l 699 956 b 894 790 810 935 863 883 b 850 717 907 753 894 735 l 679 647 b 613 675 639 631 628 636 b 514 732 597 719 575 732 b 414 688 453 732 419 717 b 526 628 408 653 443 640 b 769 550 640 610 721 585 b 853 294 846 496 874 410 b 538 35 826 143 721 67 l 531 -4 b 465 -60 521 -47 506 -60 l 285 -60 b 239 -4 242 -60 232 -44 l 244 31 b 13 213 108 51 31 111 b 61 286 6 249 22 274 l 232 343 b 310 318 275 360 293 356 b 424 267 325 283 353 267 b 539 311 500 267 532 276 b 440 367 544 343 508 356 b 221 426 336 385 264 404 b 101 699 118 479 78 569 b 407 954 128 847 228 922 l 414 994 b 479 1049 421 1035 436 1049 "},"%":{"ha":1331,"x_min":0,"x_max":0,"o":"m 113 782 b 410 1007 139 922 244 1007 b 625 782 575 1007 651 922 l 607 674 b 311 451 581 535 476 451 b 94 674 146 451 68 535 m 1238 986 b 1257 929 1276 986 1285 958 l 463 54 b 408 10 440 31 422 15 b 333 0 394 3 369 0 l 165 0 b 146 61 122 0 117 29 l 942 936 b 993 978 963 958 979 972 b 1063 986 1006 983 1029 986 m 413 767 b 375 807 418 793 406 807 b 319 767 343 807 325 793 l 307 690 b 347 650 301 664 315 650 b 400 690 376 650 394 664 m 789 311 b 1085 536 813 451 919 536 b 1301 311 1250 536 1325 451 l 1282 203 b 988 -19 1256 63 1153 -19 b 769 203 822 -19 743 63 m 1090 296 b 1051 336 1094 322 1082 336 b 997 296 1019 336 1001 322 l 983 219 b 1024 179 979 193 992 179 b 1076 219 1054 179 1072 193 "},"&":{"ha":985,"x_min":0,"x_max":0,"o":"m 207 740 b 558 1007 235 897 358 1007 b 751 931 640 1007 704 982 b 801 738 797 879 814 814 b 632 501 783 636 728 558 l 617 493 l 664 429 l 731 486 b 803 486 760 510 783 510 l 904 368 b 889 304 919 347 915 325 l 808 236 l 944 54 b 910 0 967 26 950 0 l 689 0 b 614 32 649 0 632 6 l 592 61 b 306 -21 507 7 411 -21 b 21 290 100 -21 -12 96 b 229 553 42 403 111 490 b 207 740 206 601 196 679 m 550 744 b 518 785 554 771 544 785 b 474 744 493 785 478 771 b 488 671 468 719 472 694 l 497 676 b 550 744 526 694 543 717 m 364 367 b 303 290 329 350 308 325 b 365 221 296 247 319 221 b 451 250 394 221 422 231 "},"'":{"ha":325,"x_min":0,"x_max":0,"o":"m 310 665 b 240 619 297 625 286 619 l 135 619 b 93 665 92 619 86 625 l 140 938 b 199 986 147 978 156 986 l 351 986 b 393 938 394 986 404 978 "},"(":{"ha":458,"x_min":0,"x_max":0,"o":"m 143 813 b 429 1196 178 1013 272 1128 b 497 1160 469 1211 486 1200 l 554 978 b 511 903 567 940 556 925 b 435 790 465 881 446 850 l 331 197 b 367 85 319 140 328 107 b 383 10 401 63 407 49 l 263 -172 b 182 -208 235 -215 217 -224 b 31 175 49 -142 -4 -25 "},")":{"ha":458,"x_min":0,"x_max":0,"o":"m 257 1160 b 339 1196 286 1203 304 1211 b 489 813 472 1129 524 1013 l 376 175 b 92 -208 342 -25 249 -142 b 22 -172 51 -224 35 -212 l -35 10 b 10 85 -46 47 -35 63 b 85 197 56 108 75 138 l 189 790 b 154 903 200 847 193 881 b 136 978 119 925 114 939 "},"*":{"ha":481,"x_min":0,"x_max":0,"o":"m 383 950 b 415 904 418 950 426 938 l 386 818 l 471 858 b 524 835 506 875 518 868 l 533 782 b 490 731 539 753 525 735 l 401 717 l 451 656 b 439 594 472 633 468 613 l 388 564 b 329 578 357 546 338 551 l 304 651 l 251 576 b 192 558 232 547 213 540 l 150 594 b 157 656 128 613 131 633 l 229 717 l 146 731 b 122 783 114 735 107 753 l 149 835 b 211 858 164 865 185 874 l 282 818 l 282 904 b 329 950 282 935 297 950 "},"+":{"ha":783,"x_min":0,"x_max":0,"o":"m 728 586 b 778 525 774 586 785 571 l 753 385 b 681 324 743 339 726 324 l 511 324 l 482 154 b 410 93 472 108 456 93 l 269 93 b 219 154 224 93 213 108 l 249 324 l 81 324 b 31 385 35 324 24 339 l 56 525 b 128 586 63 571 82 586 l 296 586 l 325 754 b 397 815 332 800 351 815 l 538 815 b 588 754 583 815 597 800 l 558 586 "},",":{"ha":383,"x_min":0,"x_max":0,"o":"m 158 -129 b 68 -183 140 -165 111 -183 l -46 -183 b -81 -142 -83 -183 -90 -175 l 24 208 b 114 286 40 264 64 286 l 279 286 b 322 208 333 286 349 260 "},"-":{"ha":551,"x_min":0,"x_max":0,"o":"m 464 503 b 514 442 510 503 521 488 l 488 293 b 417 232 481 247 463 232 l 83 232 b 32 293 38 232 25 247 l 58 442 b 131 503 65 488 85 503 "},".":{"ha":381,"x_min":0,"x_max":0,"o":"m 222 300 b 317 186 310 300 332 271 l 301 101 b 168 -11 286 17 253 -11 l 88 -11 b -7 101 0 -11 -22 17 l 8 186 b 142 300 24 274 57 300 "},"/":{"ha":726,"x_min":0,"x_max":0,"o":"m 265 -32 b 183 -83 243 -72 226 -83 l -15 -83 b -43 -32 -56 -83 -64 -67 l 488 935 b 569 986 510 975 526 986 l 768 986 b 796 935 807 986 814 969 "},":":{"ha":408,"x_min":0,"x_max":0,"o":"m 310 743 b 404 629 397 743 419 714 l 389 544 b 256 432 374 460 340 432 l 175 432 b 81 544 88 432 65 460 l 96 629 b 229 743 111 717 144 743 m 239 300 b 333 186 326 300 349 271 l 318 101 b 185 -11 303 17 269 -11 l 104 -11 b 10 101 17 -11 -6 17 l 25 186 b 158 300 40 274 74 300 "},";":{"ha":414,"x_min":0,"x_max":0,"o":"m 321 786 b 415 672 408 786 431 757 l 400 588 b 267 475 385 503 351 475 l 186 475 b 92 588 99 475 76 503 l 107 672 b 240 786 122 760 156 786 m 174 -129 b 83 -183 153 -168 129 -183 l -31 -183 b -65 -142 -68 -183 -75 -175 l 39 208 b 129 286 56 264 79 286 l 294 286 b 338 208 349 286 364 260 "},"<":{"ha":700,"x_min":0,"x_max":0,"o":"m 661 871 b 717 825 713 894 726 879 l 686 651 b 613 551 674 586 663 574 l 404 460 l 403 456 l 578 363 b 618 264 622 340 629 329 l 585 81 b 514 35 576 26 553 11 l 63 307 b 28 382 29 328 21 342 l 53 524 b 114 600 60 564 74 579 "},"=":{"ha":839,"x_min":0,"x_max":0,"o":"m 785 756 b 835 694 831 756 844 740 l 808 546 b 738 485 801 500 783 485 l 138 485 b 86 546 92 485 79 500 l 113 694 b 185 756 122 740 139 756 m 726 422 b 776 361 772 422 786 407 l 750 213 b 678 151 743 167 724 151 l 78 151 b 28 213 32 151 21 167 l 54 361 b 126 422 64 407 81 422 "},">":{"ha":701,"x_min":0,"x_max":0,"o":"m 139 825 b 211 871 149 879 168 894 l 661 600 b 697 524 696 579 704 564 l 672 382 b 610 307 665 342 650 328 l 64 35 b 7 81 13 11 -3 26 l 43 278 b 117 376 54 343 67 354 l 325 467 l 325 471 l 149 565 b 111 665 108 588 100 600 "},"?":{"ha":840,"x_min":0,"x_max":0,"o":"m 104 799 b 526 1026 193 954 311 1026 b 871 731 769 1026 900 914 b 746 536 856 640 794 567 b 650 485 721 521 689 503 b 572 442 611 465 585 451 b 522 378 543 421 526 400 b 501 332 518 356 511 340 b 454 319 492 324 475 319 l 288 319 b 239 378 243 319 232 333 b 389 601 257 485 307 558 b 497 654 408 613 478 643 b 557 738 521 667 550 699 b 504 792 564 774 546 792 b 364 697 444 792 414 776 b 279 658 336 651 319 643 l 126 719 b 104 799 88 735 81 756 m 421 285 b 515 172 508 285 531 257 l 503 101 b 369 -11 488 17 457 -11 l 261 -11 b 167 101 174 -11 151 17 l 179 172 b 313 285 194 257 225 285 "},"@":{"ha":1261,"x_min":0,"x_max":0,"o":"m 85 458 b 307 860 114 628 189 761 b 769 1007 425 958 579 1007 b 1188 860 961 1007 1100 958 b 1274 458 1275 761 1303 626 l 1256 356 b 1142 129 1239 260 1201 183 b 939 47 1082 75 1015 47 b 821 99 890 47 850 64 b 571 63 749 75 665 63 b 339 314 388 63 310 146 l 371 499 b 692 750 401 667 508 750 b 971 701 800 750 893 733 b 1003 632 1008 685 1013 672 l 938 261 b 965 229 933 240 943 229 b 1054 353 1011 229 1040 271 l 1074 461 b 744 829 1117 707 1007 829 b 288 461 490 829 328 693 l 268 353 b 599 -4 228 124 342 -4 b 906 22 693 -4 796 4 b 954 -15 956 32 961 25 l 940 -94 b 881 -154 933 -135 924 -144 b 575 -183 781 -174 679 -183 b 154 -40 382 -183 242 -136 b 67 356 67 57 38 188 m 767 554 b 681 560 743 558 714 560 b 585 494 619 560 594 540 l 554 318 b 626 253 544 272 565 253 l 725 258 l 775 539 b 767 554 775 547 772 553 "},"A":{"ha":978,"x_min":0,"x_max":0,"o":"m 921 60 b 867 0 928 19 910 0 l 678 0 b 583 64 607 0 588 18 l 576 135 l 315 135 l 283 64 b 172 0 263 18 238 0 l -28 0 b -56 60 -71 0 -78 19 l 408 936 b 492 986 429 976 447 986 l 697 986 b 764 938 740 986 757 975 m 542 499 b 546 661 538 561 542 621 l 550 690 l 536 690 b 481 500 525 622 507 560 l 429 388 l 553 388 "},"B":{"ha":918,"x_min":0,"x_max":0,"o":"m 644 988 b 917 714 844 988 946 885 b 776 521 900 624 861 571 l 775 514 b 875 264 860 474 896 382 b 483 0 843 90 696 0 l 47 0 b -3 61 1 0 -10 15 l 150 926 b 222 988 157 972 176 988 m 583 682 b 522 742 590 725 571 742 l 439 742 l 418 624 l 501 624 b 583 682 549 624 576 643 m 550 313 b 486 375 557 357 538 375 l 375 375 l 353 247 l 464 247 b 550 313 514 247 543 269 "},"C":{"ha":908,"x_min":0,"x_max":0,"o":"m 106 628 b 614 1007 149 874 329 1007 b 972 750 821 1007 940 921 b 922 672 982 707 968 688 l 739 610 b 667 649 693 597 676 604 b 567 728 656 706 632 728 b 424 606 472 728 440 694 l 383 381 b 483 258 368 292 389 258 b 614 338 540 258 585 285 b 699 376 640 382 658 392 l 879 307 b 904 228 922 292 928 271 b 439 -21 814 63 660 -21 b 131 94 299 -21 196 18 b 65 397 65 171 43 271 "},"D":{"ha":944,"x_min":0,"x_max":0,"o":"m 572 986 b 878 868 711 986 813 947 b 940 558 943 789 964 686 l 908 379 b 399 0 865 131 686 0 l 47 0 b -3 61 1 0 -10 15 l 150 925 b 221 986 157 971 175 986 m 621 575 b 507 708 638 665 607 708 l 433 708 l 358 279 l 432 279 b 593 413 532 279 576 319 "},"E":{"ha":822,"x_min":0,"x_max":0,"o":"m 826 986 b 878 925 872 986 885 971 l 850 769 b 778 708 843 724 824 708 l 433 708 l 421 636 l 688 636 b 738 575 733 636 747 621 l 710 419 b 639 358 703 374 685 358 l 372 358 l 358 279 l 713 279 b 763 218 758 279 772 264 l 735 61 b 663 0 725 15 708 0 l 47 0 b -3 61 1 0 -10 15 l 150 925 b 221 986 157 971 175 986 "},"F":{"ha":813,"x_min":0,"x_max":0,"o":"m 826 986 b 878 925 872 986 885 971 l 850 769 b 778 708 843 724 824 708 l 433 708 l 411 582 l 678 582 b 728 521 724 582 735 567 l 701 365 b 629 304 692 319 675 304 l 363 304 l 319 61 b 247 0 313 15 293 0 l 47 0 b -3 61 1 0 -10 15 l 150 925 b 221 986 157 971 175 986 "},"G":{"ha":949,"x_min":0,"x_max":0,"o":"m 921 575 b 971 514 967 575 981 560 l 936 315 b 439 -21 899 108 718 -21 b 132 97 300 -21 197 18 b 67 406 67 176 44 279 l 106 628 b 611 1007 149 876 326 1007 b 975 749 821 1007 943 921 b 922 671 982 708 968 686 l 743 619 b 671 658 694 607 681 614 b 567 728 660 708 632 728 b 424 606 472 728 440 694 l 383 381 b 483 258 368 292 389 258 b 613 326 561 258 604 281 l 613 332 l 514 332 b 464 393 468 332 454 347 l 485 514 b 557 575 492 560 511 575 "},"H":{"ha":963,"x_min":0,"x_max":0,"o":"m 953 988 b 1003 926 999 988 1013 972 l 850 61 b 778 0 840 15 824 0 l 578 0 b 528 61 532 0 518 15 l 581 361 l 375 361 l 322 61 b 250 0 313 15 296 0 l 50 0 b 0 61 4 0 -10 15 l 153 926 b 225 988 163 972 179 988 l 425 988 b 475 926 471 988 482 972 l 424 639 l 629 639 l 681 926 b 753 988 690 972 707 988 "},"I":{"ha":433,"x_min":0,"x_max":0,"o":"m 151 931 b 217 986 161 974 176 986 l 428 986 b 474 931 471 986 481 971 l 319 56 b 254 0 313 15 297 0 l 43 0 b -3 56 3 0 -10 13 "},"J":{"ha":814,"x_min":0,"x_max":0,"o":"m 811 988 b 860 928 856 988 867 972 l 754 326 b 310 -21 711 92 569 -21 b -28 225 117 -21 4 61 b 25 303 -35 268 -21 288 l 197 361 b 274 328 243 378 264 371 b 354 257 286 281 313 257 b 435 349 397 257 425 288 l 538 928 b 608 988 547 972 563 988 "},"K":{"ha":926,"x_min":0,"x_max":0,"o":"m 864 76 b 808 0 879 32 857 0 l 621 0 b 501 65 543 0 519 11 l 431 299 b 383 357 418 338 403 357 l 371 357 l 319 61 b 247 0 313 15 293 0 l 47 0 b -3 61 1 0 -10 15 l 150 925 b 221 986 157 971 175 986 l 421 986 b 472 925 467 986 479 971 l 421 636 l 436 636 l 446 636 l 653 931 b 699 976 669 954 685 969 b 774 986 711 983 736 986 l 972 986 b 999 919 1017 986 1028 960 l 701 497 b 739 432 717 482 729 460 "},"L":{"ha":764,"x_min":0,"x_max":0,"o":"m 424 986 b 475 925 469 986 482 971 l 361 279 l 671 279 b 721 218 717 279 728 264 l 693 61 b 621 0 686 15 667 0 l 50 0 b 0 61 4 0 -10 15 l 153 925 b 224 986 160 971 178 986 "},"M":{"ha":1157,"x_min":0,"x_max":0,"o":"m 1146 988 b 1196 929 1192 988 1203 974 l 1043 58 b 971 0 1036 14 1017 0 l 774 0 b 724 58 728 0 717 14 l 738 144 b 782 318 749 204 764 263 b 883 560 800 374 833 454 l 869 560 b 756 357 810 450 771 383 l 672 219 b 597 179 654 193 629 179 l 475 179 b 413 219 436 179 422 190 l 374 357 l 336 560 l 324 560 b 338 294 333 425 339 336 b 319 143 336 251 329 201 l 306 58 b 233 0 299 14 279 0 l 49 0 b -1 58 3 0 -8 14 l 151 929 b 224 988 158 974 178 988 l 393 988 b 471 944 444 988 461 979 l 597 503 l 878 943 b 967 988 901 981 918 988 "},"N":{"ha":976,"x_min":0,"x_max":0,"o":"m 963 986 b 1014 925 1008 986 1021 971 l 861 61 b 789 0 851 15 835 0 l 596 0 b 542 29 569 0 551 10 l 429 279 b 386 394 408 324 394 363 b 356 589 378 426 368 490 l 344 589 b 349 365 349 478 350 403 b 325 185 347 326 339 267 l 303 61 b 231 0 296 15 276 0 l 47 0 b -3 61 1 0 -10 15 l 150 925 b 221 986 157 971 175 986 l 428 986 b 483 958 456 986 474 976 l 611 664 b 683 404 635 610 658 524 l 696 404 b 671 642 681 531 672 610 b 686 799 669 674 674 725 l 708 925 b 779 986 715 971 733 986 "},"O":{"ha":957,"x_min":0,"x_max":0,"o":"m 104 618 b 611 1007 147 868 328 1007 b 919 892 751 1007 854 968 b 985 586 985 815 1007 713 l 946 364 b 439 -21 901 115 724 -21 b 131 93 299 -21 196 17 b 65 396 65 168 43 269 m 668 622 b 567 728 681 690 644 728 b 426 622 486 728 439 693 l 381 364 b 483 258 369 293 404 258 b 622 364 565 258 611 293 "},"P":{"ha":910,"x_min":0,"x_max":0,"o":"m 617 986 b 869 881 729 986 813 951 b 922 601 925 810 943 717 b 494 272 883 379 726 272 l 357 272 l 319 61 b 247 0 313 15 293 0 l 47 0 b -3 61 1 0 -10 15 l 150 925 b 221 986 157 971 175 986 m 501 550 b 529 708 604 542 639 717 l 433 708 l 406 550 "},"Q":{"ha":974,"x_min":0,"x_max":0,"o":"m 104 618 b 611 1007 147 868 328 1007 b 919 892 751 1007 854 968 b 985 586 985 815 1007 713 l 946 364 b 849 143 931 276 899 203 l 903 63 b 881 -24 926 28 921 8 l 733 -125 b 650 -118 696 -154 672 -153 l 578 -8 b 439 -21 535 -17 489 -21 b 131 93 299 -21 196 17 b 65 396 65 168 43 269 m 567 728 b 426 622 486 728 439 693 l 381 364 b 483 258 369 293 404 258 b 622 364 565 258 611 293 l 668 622 b 567 728 681 690 644 728 "},"R":{"ha":925,"x_min":0,"x_max":0,"o":"m 628 986 b 929 628 849 986 968 851 b 740 350 907 504 844 411 b 774 279 753 329 764 306 l 844 76 b 789 0 860 32 838 0 l 601 0 b 476 79 528 0 492 24 l 429 246 b 369 306 418 282 413 300 l 363 306 l 319 61 b 247 0 313 15 293 0 l 47 0 b -3 61 1 0 -10 15 l 150 925 b 221 986 157 971 175 986 m 597 640 b 540 708 607 681 585 708 l 433 708 l 408 567 l 515 567 b 597 640 558 567 590 597 "},"S":{"ha":901,"x_min":0,"x_max":0,"o":"m 88 717 b 556 1007 121 904 288 1007 b 911 808 761 1007 867 943 b 868 733 924 765 914 751 l 701 668 b 629 699 658 651 644 658 b 519 751 617 733 581 751 b 410 703 451 751 415 735 b 556 635 404 663 446 650 b 871 272 803 597 908 476 b 388 -21 836 76 675 -21 b 119 32 282 -21 193 -4 b -11 186 46 67 1 118 b 42 265 -18 229 -4 250 l 211 322 b 296 294 256 339 279 335 b 421 244 310 261 351 244 b 546 293 499 244 540 261 b 418 357 551 331 513 342 b 161 454 297 378 211 411 b 88 717 93 514 68 601 "},"T":{"ha":864,"x_min":0,"x_max":0,"o":"m 893 986 b 944 925 939 986 951 971 l 917 769 b 844 708 910 724 890 708 l 649 708 l 535 61 b 463 0 525 15 508 0 l 263 0 b 213 61 217 0 203 15 l 326 708 l 131 708 b 81 769 85 708 74 724 l 108 925 b 179 986 115 971 133 986 "},"U":{"ha":964,"x_min":0,"x_max":0,"o":"m 390 357 b 486 257 378 290 410 257 b 615 357 560 257 603 290 l 717 925 b 788 986 724 971 742 986 l 988 986 b 1039 925 1033 986 1046 971 l 938 353 b 443 -21 894 110 726 -21 b 139 97 304 -21 203 18 b 76 403 75 176 54 278 l 169 925 b 240 986 179 971 194 986 l 440 986 b 492 925 486 986 499 971 "},"V":{"ha":978,"x_min":0,"x_max":0,"o":"m 1047 986 b 1076 926 1090 986 1099 967 l 626 50 b 542 0 604 10 586 0 l 308 0 b 242 49 265 0 249 11 l 100 926 b 153 986 93 967 111 986 l 357 986 b 451 922 428 986 450 968 l 479 488 b 475 325 483 425 479 365 l 472 296 l 486 296 b 542 486 499 364 517 426 l 724 922 b 835 986 744 968 769 986 "},"W":{"ha":1326,"x_min":0,"x_max":0,"o":"m 1378 986 b 1407 928 1421 986 1425 968 l 1043 51 b 960 0 1026 11 1004 0 l 738 0 b 671 49 693 0 672 11 l 668 251 b 693 558 667 346 675 449 l 681 558 b 592 250 657 449 626 346 l 519 51 b 435 0 501 11 478 0 l 218 0 b 151 49 174 0 153 10 l 99 928 b 147 986 94 971 104 986 l 356 986 b 429 933 410 986 428 976 l 417 631 b 385 354 414 544 403 453 l 396 354 b 469 631 417 464 442 557 l 585 933 b 674 986 600 976 624 986 l 865 986 b 938 933 915 986 936 976 l 946 631 b 924 354 947 572 940 481 l 935 354 b 1001 631 960 472 982 565 l 1096 933 b 1186 986 1111 976 1132 986 "},"X":{"ha":936,"x_min":0,"x_max":0,"o":"m 997 986 b 1015 929 1036 986 1042 961 l 671 503 l 878 61 b 836 0 894 28 879 0 l 614 0 b 504 54 538 0 522 6 l 439 236 l 308 54 b 263 11 293 32 278 18 b 179 0 247 4 219 0 l -35 0 b -54 61 -78 0 -83 24 l 304 503 l 113 929 b 151 986 97 961 113 986 l 356 986 b 467 936 433 986 451 979 l 532 763 l 656 936 b 701 979 671 960 686 974 b 775 986 715 983 740 986 "},"Y":{"ha":960,"x_min":0,"x_max":0,"o":"m 1035 986 b 1056 925 1078 986 1082 960 l 644 381 l 589 61 b 517 0 579 15 563 0 l 317 0 b 267 61 271 0 257 15 l 322 378 l 106 925 b 146 986 90 960 103 986 l 342 986 b 453 933 419 986 436 982 l 533 688 l 708 933 b 756 978 725 957 740 972 b 835 986 771 983 797 986 "},"Z":{"ha":860,"x_min":0,"x_max":0,"o":"m 868 986 b 919 925 914 986 926 971 l 904 839 b 874 776 900 815 889 794 l 439 279 l 751 279 b 801 218 797 279 811 264 l 774 61 b 701 0 764 15 747 0 l 19 0 b -31 61 -26 0 -37 15 l -15 149 b 15 210 -11 172 -1 192 l 447 708 l 151 708 b 101 769 106 708 92 724 l 129 925 b 200 986 136 971 154 986 "},"[":{"ha":528,"x_min":0,"x_max":0,"o":"m 599 1189 b 643 1136 644 1189 650 1182 l 624 1022 b 560 969 617 976 606 969 l 457 969 l 289 17 l 392 17 b 438 -36 438 17 444 10 l 417 -151 b 353 -204 410 -197 399 -204 l 11 -204 b -35 -150 -35 -204 -42 -196 l 192 1133 b 257 1189 201 1179 211 1189 "},"\\":{"ha":713,"x_min":0,"x_max":0,"o":"m 124 936 b 168 986 117 971 129 986 l 354 986 b 419 936 397 986 413 975 l 611 -32 b 567 -83 619 -67 604 -83 l 381 -83 b 315 -32 338 -83 322 -72 "},"]":{"ha":528,"x_min":0,"x_max":0,"o":"m 554 1189 b 600 1133 600 1189 607 1179 l 374 -150 b 308 -204 367 -196 354 -204 l -33 -204 b -78 -151 -79 -204 -85 -197 l -57 -36 b 6 17 -50 10 -40 17 l 108 17 l 276 969 l 174 969 b 129 1022 128 969 122 976 l 149 1136 b 213 1189 156 1182 167 1189 "},"^":{"ha":932,"x_min":0,"x_max":0,"o":"m 653 1125 b 747 1076 707 1125 718 1117 l 954 788 b 913 722 981 744 967 722 l 724 722 b 611 772 656 722 635 729 l 551 875 l 549 875 l 449 772 b 314 722 408 729 382 722 l 138 722 b 118 788 83 722 78 747 l 426 1076 b 539 1125 469 1115 489 1125 "},"_":{"ha":715,"x_min":0,"x_max":0,"o":"m 575 0 b 625 -61 621 0 632 -15 l 600 -210 b 528 -271 590 -256 574 -271 l -42 -271 b -92 -210 -87 -271 -101 -256 l -67 -61 b 6 0 -57 -15 -40 0 "},"`":{"ha":357,"x_min":0,"x_max":0,"o":"m 254 1019 b 346 1022 282 1043 313 1044 l 517 904 b 510 851 535 890 533 872 l 449 794 b 382 789 435 781 413 779 l 139 868 b 142 924 111 878 113 897 "},"a":{"ha":763,"x_min":0,"x_max":0,"o":"m 58 439 b 463 743 96 649 225 743 b 739 694 581 743 672 726 b 781 610 783 671 790 658 l 688 83 b 619 15 681 43 664 26 b 303 -21 526 -8 421 -21 b 36 311 88 -21 1 107 m 447 481 b 419 483 440 482 431 483 b 364 442 388 483 369 469 l 335 275 b 371 238 331 250 343 238 l 411 240 l 451 472 b 447 481 453 476 451 479 "},"b":{"ha":765,"x_min":0,"x_max":0,"o":"m 410 1026 b 456 971 453 1026 463 1011 l 415 740 b 476 743 442 742 461 743 b 744 415 692 743 779 619 l 722 288 b 317 -21 685 76 554 -21 b 40 28 199 -21 107 -4 b -1 113 -4 51 -11 64 l 150 971 b 215 1026 160 1014 175 1026 m 444 447 b 408 485 449 472 438 485 l 369 479 l 329 249 b 331 243 328 246 329 244 b 360 239 336 240 346 239 b 415 281 392 239 410 253 "},"c":{"ha":722,"x_min":0,"x_max":0,"o":"m 58 439 b 463 743 94 642 229 743 b 744 540 633 743 724 663 b 693 464 751 497 738 479 l 529 411 b 457 449 481 396 467 406 b 410 493 450 486 436 493 b 363 443 385 493 369 476 l 335 279 b 363 231 329 247 339 231 b 422 274 389 231 401 236 b 507 310 446 317 467 325 l 672 258 b 696 178 711 246 719 219 b 319 -21 617 46 490 -21 b 36 310 90 -21 1 104 "},"d":{"ha":764,"x_min":0,"x_max":0,"o":"m 61 449 b 439 743 99 656 221 743 b 499 742 454 743 486 742 l 540 972 b 606 1028 547 1013 563 1028 l 800 1028 b 846 972 840 1028 853 1015 l 693 113 b 619 31 686 64 674 51 b 314 -21 528 -4 426 -21 b 39 321 93 -21 1 115 m 453 481 b 421 485 443 483 432 485 b 365 443 389 485 371 471 l 336 276 b 372 239 332 251 343 239 l 407 242 b 413 249 410 243 411 244 "},"e":{"ha":760,"x_min":0,"x_max":0,"o":"m 58 443 b 465 743 92 632 239 743 b 783 492 686 743 801 660 b 499 285 768 368 658 285 b 338 290 432 285 378 286 l 333 267 b 381 197 325 221 340 197 b 454 221 414 197 444 213 b 476 242 458 225 467 232 b 554 253 496 265 522 268 l 671 199 b 688 119 708 182 714 163 b 343 -21 621 26 506 -21 b 35 308 97 -21 0 108 m 485 504 b 438 543 489 531 472 543 b 371 482 401 543 379 522 l 368 468 b 426 465 390 467 410 465 b 485 504 461 465 481 478 "},"f":{"ha":549,"x_min":0,"x_max":0,"o":"m 592 1028 b 638 971 635 1028 647 1014 l 617 850 b 550 793 610 807 593 793 b 475 728 507 793 482 771 l 474 722 l 539 722 b 585 667 579 722 592 710 l 563 543 b 497 488 556 503 540 488 l 432 488 l 356 56 b 289 0 349 15 332 0 l 97 0 b 50 56 54 0 43 13 l 126 488 l 96 488 b 50 543 56 488 43 500 l 72 667 b 138 722 79 707 94 722 l 168 722 l 168 725 b 550 1028 207 946 335 1028 "},"g":{"ha":765,"x_min":0,"x_max":0,"o":"m 56 440 b 460 743 93 650 221 743 b 736 694 578 743 669 726 b 778 610 781 672 788 660 l 669 -4 b 271 -326 632 -219 499 -326 b -22 -171 122 -326 25 -275 b 22 -92 -37 -137 -24 -111 l 178 -22 b 246 -33 210 -7 232 -11 b 304 -81 256 -53 268 -81 b 360 -28 335 -81 353 -62 l 368 22 b 307 19 342 21 322 19 b 39 347 92 19 4 143 m 447 475 b 417 483 449 479 449 483 b 361 442 385 483 367 469 l 339 315 b 375 278 335 290 346 278 l 414 283 "},"h":{"ha":776,"x_min":0,"x_max":0,"o":"m 410 1028 b 456 972 450 1028 463 1015 l 414 742 b 475 743 426 743 447 743 b 746 432 693 743 781 632 l 679 56 b 614 0 672 15 657 0 l 419 0 b 374 56 379 0 367 13 l 438 418 b 397 469 444 457 435 469 b 367 468 383 469 374 469 l 293 56 b 228 0 286 15 271 0 l 33 0 b -12 56 -7 0 -19 13 l 150 972 b 215 1028 157 1013 172 1028 "},"i":{"ha":397,"x_min":0,"x_max":0,"o":"m 363 1007 b 450 900 444 1007 465 982 l 447 885 b 322 778 432 803 404 778 l 214 778 b 125 885 132 778 110 803 l 128 900 b 254 1007 143 982 172 1007 m 356 722 b 401 667 396 722 408 710 l 293 56 b 228 0 286 15 271 0 l 33 0 b -12 56 -7 0 -19 13 l 96 667 b 161 722 103 707 118 722 "},"j":{"ha":399,"x_min":0,"x_max":0,"o":"m 361 1007 b 449 900 443 1007 464 982 l 446 885 b 321 778 431 803 403 778 l 213 778 b 124 885 131 778 108 803 l 126 900 b 253 1007 142 982 171 1007 m 353 722 b 400 667 396 722 407 710 l 279 -17 b -143 -319 240 -235 107 -319 b -190 -262 -186 -319 -197 -306 l -164 -114 b -97 -57 -157 -71 -140 -57 b -22 8 -54 -57 -29 -35 l 94 667 b 161 722 101 710 118 722 "},"k":{"ha":790,"x_min":0,"x_max":0,"o":"m 711 78 b 646 0 729 26 708 0 l 488 0 b 388 57 417 0 394 11 l 364 221 b 331 250 361 240 350 250 l 326 250 l 292 56 b 228 0 285 15 268 0 l 32 0 b -12 56 -8 0 -19 13 l 150 972 b 214 1028 157 1015 174 1028 l 410 1028 b 454 972 450 1028 461 1013 l 368 485 l 383 485 l 390 485 l 499 664 b 611 722 526 710 550 722 l 764 722 b 801 647 821 722 833 697 l 622 364 l 632 338 "},"l":{"ha":399,"x_min":0,"x_max":0,"o":"m 293 56 b 228 0 286 15 271 0 l 33 0 b -12 56 -7 0 -19 13 l 150 972 b 215 1028 157 1013 172 1028 l 410 1028 b 456 972 450 1028 463 1015 "},"m":{"ha":1117,"x_min":0,"x_max":0,"o":"m 626 710 b 825 743 693 732 760 743 b 1085 432 1038 743 1119 632 l 1018 56 b 953 0 1011 15 996 0 l 758 0 b 713 56 718 0 706 13 l 778 424 b 747 469 783 458 776 469 b 726 468 739 469 732 469 b 719 425 725 457 724 443 l 654 56 b 589 0 647 15 632 0 l 394 0 b 349 56 354 0 342 13 l 414 424 b 383 469 419 458 413 469 l 369 469 b 363 461 365 469 363 467 l 290 56 b 225 0 283 15 268 0 l 31 0 b -15 56 -10 0 -22 13 l 82 603 b 157 689 92 653 106 671 b 461 743 253 725 354 743 b 626 710 529 743 585 732 "},"n":{"ha":774,"x_min":0,"x_max":0,"o":"m 157 689 b 472 743 253 725 358 743 b 743 432 690 743 778 632 l 676 56 b 611 0 669 15 654 0 l 417 0 b 371 56 376 0 364 13 l 435 418 b 394 469 442 457 432 469 b 368 468 382 469 374 469 b 363 463 364 467 363 465 l 290 56 b 225 0 283 15 268 0 l 31 0 b -15 56 -10 0 -22 13 l 82 603 b 157 689 92 653 106 671 "},"o":{"ha":769,"x_min":0,"x_max":0,"o":"m 56 440 b 465 743 90 636 232 743 b 767 418 697 743 800 618 l 744 285 b 332 -21 710 89 567 -21 b 33 307 104 -21 0 107 m 467 440 b 421 486 472 471 457 486 b 360 440 386 486 365 471 l 332 282 b 376 238 326 253 342 238 b 439 282 413 238 433 253 "},"p":{"ha":764,"x_min":0,"x_max":0,"o":"m 156 692 b 461 743 247 726 349 743 b 739 417 683 743 774 618 l 717 289 b 336 -21 679 82 553 -21 b 276 -19 321 -21 289 -19 l 236 -249 b 171 -304 226 -292 211 -304 l -24 -304 b -69 -249 -67 -304 -76 -289 l 82 610 b 156 692 89 658 101 671 m 439 446 b 403 483 443 471 432 483 l 369 479 b 363 472 365 478 364 476 l 322 242 b 354 238 332 239 343 238 b 410 279 386 238 404 251 "},"q":{"ha":767,"x_min":0,"x_max":0,"o":"m 464 743 b 740 694 582 743 674 726 b 782 610 785 671 792 658 l 631 -249 b 565 -304 621 -292 606 -304 l 371 -304 b 325 -249 328 -304 318 -289 l 365 -18 b 304 -21 339 -19 319 -21 b 36 306 88 -21 1 104 l 58 433 b 464 743 96 644 226 743 m 336 275 b 372 238 332 250 343 238 l 411 243 l 451 472 b 447 481 453 476 451 479 b 421 483 440 482 431 483 b 365 442 389 483 371 469 "},"r":{"ha":508,"x_min":0,"x_max":0,"o":"m 463 743 l 504 743 b 550 688 547 743 557 728 l 525 539 b 460 483 515 496 500 483 l 406 483 b 374 482 392 483 381 483 b 365 474 369 482 367 479 l 292 56 b 226 0 285 15 269 0 l 32 0 b -14 56 -8 0 -21 13 l 85 610 b 160 697 94 660 108 679 b 463 743 232 724 333 739 "},"s":{"ha":728,"x_min":0,"x_max":0,"o":"m 57 518 b 417 743 83 668 204 743 b 715 594 596 743 675 690 b 671 515 731 561 715 535 l 543 460 b 471 476 489 435 488 460 b 394 503 451 494 426 503 b 318 476 333 503 322 497 b 407 446 313 460 324 451 b 686 218 644 429 713 358 b 306 -21 660 64 524 -21 b -11 144 118 -21 13 35 b 38 219 -18 182 -3 207 l 181 268 b 256 254 238 281 243 276 b 333 219 269 231 296 219 b 421 250 399 219 417 228 b 308 286 425 276 413 282 b 57 518 113 293 31 369 "},"t":{"ha":556,"x_min":0,"x_max":0,"o":"m 446 889 b 492 833 486 889 499 876 l 472 722 l 539 722 b 583 667 579 722 590 707 l 561 543 b 497 488 554 503 538 488 l 431 488 l 399 310 b 451 244 392 267 408 244 b 499 188 494 244 506 231 l 472 39 b 406 -18 465 -4 449 -18 b 89 285 156 -18 51 67 l 125 488 l 78 488 b 33 543 38 488 26 500 l 56 667 b 119 722 63 710 79 722 l 167 722 l 186 833 b 251 889 193 874 208 889 "},"u":{"ha":774,"x_min":0,"x_max":0,"o":"m 754 722 b 800 667 794 722 807 710 l 703 119 b 628 33 693 69 679 51 b 313 -21 532 -3 426 -21 b 44 306 96 -21 10 104 l 108 667 b 174 722 115 707 131 722 l 368 722 b 414 667 408 722 421 710 l 350 304 b 390 253 343 265 353 253 b 413 254 397 253 406 253 b 424 265 419 256 422 258 l 494 667 b 560 722 501 707 517 722 "},"v":{"ha":786,"x_min":0,"x_max":0,"o":"m 793 722 b 828 658 847 722 851 710 l 514 49 b 431 0 496 17 468 0 l 213 0 b 144 49 169 0 154 11 l 61 658 b 118 722 54 710 67 722 l 294 722 b 369 667 351 722 368 713 l 382 454 b 369 297 383 414 376 340 l 364 265 l 378 265 b 426 454 392 344 408 407 l 510 665 b 599 722 528 714 539 722 "},"w":{"ha":1108,"x_min":0,"x_max":0,"o":"m 1110 722 b 1144 658 1161 722 1168 708 l 889 49 b 806 0 874 17 846 0 l 608 0 b 540 49 563 0 540 17 l 540 147 b 551 339 540 201 546 289 l 556 375 l 543 375 b 472 147 519 283 496 207 l 433 49 b 350 0 421 17 393 0 l 172 0 b 104 49 129 0 107 17 l 57 658 b 114 722 50 708 63 722 l 289 722 b 365 667 354 722 367 713 l 360 535 b 351 442 358 513 356 482 b 338 336 347 401 342 365 l 331 293 l 343 293 b 404 535 367 403 386 483 l 449 665 b 550 722 461 714 482 722 l 676 722 b 757 667 743 722 758 713 l 756 535 b 749 442 756 513 753 482 b 736 336 744 401 740 365 l 729 293 l 743 293 b 800 535 765 403 785 483 l 840 665 b 938 722 856 714 869 722 "},"x":{"ha":800,"x_min":0,"x_max":0,"o":"m 797 722 b 824 657 851 722 860 700 l 590 372 l 731 65 b 679 0 753 19 740 0 l 500 0 b 408 47 435 0 421 4 l 367 183 l 279 47 b 171 0 253 4 233 0 l -12 0 b -43 65 -78 0 -82 21 l 208 371 l 72 657 b 126 722 51 700 69 722 l 300 722 b 394 675 363 722 382 715 l 431 564 l 504 675 b 608 722 532 718 547 722 "},"y":{"ha":776,"x_min":0,"x_max":0,"o":"m 751 722 b 797 667 792 722 804 710 l 679 0 b 274 -319 642 -212 506 -319 b -11 -171 117 -319 35 -275 b 33 -92 -26 -137 -12 -111 l 188 -22 b 258 -39 233 0 244 -18 b 314 -81 272 -62 279 -76 b 369 -28 344 -81 363 -62 l 378 22 b 317 21 365 21 344 21 b 50 354 101 21 13 150 l 106 667 b 171 722 113 707 128 722 l 365 722 b 411 667 406 722 418 710 l 354 346 b 396 294 347 307 358 294 b 426 296 408 294 419 294 l 492 667 b 557 722 499 707 514 722 "},"z":{"ha":697,"x_min":0,"x_max":0,"o":"m 589 253 b 635 199 629 253 642 239 l 610 56 b 544 0 603 15 588 0 l 17 0 b -29 56 -24 0 -36 13 l -6 189 b 29 247 0 221 6 226 l 289 469 l 107 469 b 63 524 67 469 56 483 l 88 667 b 151 722 94 710 111 722 l 665 722 b 710 667 706 722 717 707 l 686 533 b 639 464 682 508 665 485 l 372 253 "},"{":{"ha":615,"x_min":0,"x_max":0,"o":"m 686 1189 b 731 1135 726 1189 738 1175 l 704 986 b 640 932 697 946 681 932 l 572 932 b 531 897 551 932 535 918 l 493 685 b 349 489 478 599 431 533 b 424 292 417 458 442 393 l 388 88 b 417 53 383 67 399 53 l 486 53 b 531 -1 526 53 538 39 l 504 -150 b 440 -204 497 -190 481 -204 l 265 -204 b 79 1 103 -204 53 -144 l 119 226 b 50 347 133 307 110 347 l 42 347 b 6 401 11 347 -1 365 l 36 574 b 92 629 43 613 58 629 l 100 629 b 211 750 161 629 199 669 l 253 982 b 507 1189 279 1128 347 1189 "},"|":{"ha":415,"x_min":0,"x_max":0,"o":"m 443 1189 b 488 1135 483 1189 494 1175 l 261 -150 b 197 -204 254 -190 238 -204 l 11 -204 b -35 -150 -29 -204 -42 -190 l 192 1135 b 257 1189 199 1175 217 1189 "},"}":{"ha":615,"x_min":0,"x_max":0,"o":"m 396 1189 b 578 982 556 1189 604 1128 l 536 750 b 606 629 524 669 546 629 l 614 629 b 650 574 647 629 657 613 l 619 401 b 564 347 613 365 594 347 l 556 347 b 444 226 496 347 458 307 l 404 1 b 146 -204 378 -144 308 -204 l -29 -204 b -74 -150 -69 -204 -81 -190 l -47 -1 b 17 53 -40 39 -24 53 l 86 53 b 126 88 107 53 125 69 l 163 292 b 307 489 181 393 228 458 b 232 685 242 535 217 600 l 269 897 b 239 932 274 915 260 932 l 171 932 b 126 986 131 932 119 946 l 153 1135 b 217 1189 160 1175 176 1189 "},"~":{"ha":808,"x_min":0,"x_max":0,"o":"m 111 525 b 314 599 174 574 240 599 b 444 574 357 599 400 590 b 543 549 488 557 521 549 b 629 578 572 549 600 558 b 707 575 668 606 679 604 l 801 471 b 786 385 828 442 822 413 b 583 311 724 336 657 311 b 454 336 540 311 497 319 b 354 360 410 351 376 360 b 268 332 322 360 294 350 b 190 335 228 304 218 306 l 96 439 b 111 525 69 468 75 497 "},"¡":{"ha":411,"x_min":0,"x_max":0,"o":"m 160 436 b 65 549 72 436 50 464 l 78 619 b 211 732 93 704 124 732 l 319 732 b 414 619 407 732 429 704 l 401 549 b 268 436 386 464 356 436 m -18 -306 b -65 -251 -61 -306 -72 -292 l 63 328 b 126 383 72 371 86 383 l 281 383 b 325 328 321 383 331 371 l 246 -251 b 182 -306 240 -292 225 -306 "},"¢":{"ha":767,"x_min":0,"x_max":0,"o":"m 688 258 b 711 178 726 246 735 219 b 481 -3 654 85 578 25 l 471 -60 b 406 -115 461 -103 446 -115 l 253 -115 b 207 -60 210 -115 200 -100 l 215 -8 b 51 315 75 26 22 149 l 74 444 b 346 728 100 596 192 690 l 356 790 b 422 846 363 833 382 846 l 575 846 b 619 790 615 846 626 833 l 608 725 b 751 533 686 701 733 638 b 704 461 758 490 749 474 l 540 410 b 468 447 492 394 478 404 b 425 493 461 485 449 493 b 378 443 400 493 385 476 l 350 279 b 378 231 344 247 354 231 b 438 274 404 231 417 236 b 522 310 461 317 482 325 "},"£":{"ha":956,"x_min":0,"x_max":0,"o":"m 194 696 b 335 922 210 790 257 865 b 631 1007 413 979 511 1007 b 981 753 826 1007 943 922 b 929 675 990 710 975 690 l 746 611 b 675 650 700 596 690 604 b 592 728 658 710 635 728 b 515 665 549 728 522 707 l 494 551 l 697 551 b 747 490 743 551 757 536 l 731 392 b 658 331 721 346 704 331 l 444 331 l 444 326 b 375 243 435 292 411 264 l 378 235 b 586 264 438 254 507 264 l 838 264 b 888 203 883 264 894 249 l 863 61 b 790 0 853 15 836 0 l 33 0 b -17 61 -12 0 -26 15 l 8 203 b 46 260 13 236 25 256 l 56 263 b 121 321 89 271 111 290 l 124 331 l 92 331 b 42 392 46 331 32 346 l 58 490 b 131 551 68 536 85 551 l 169 551 "},"¤":{"ha":924,"x_min":0,"x_max":0,"o":"m 408 793 b 653 793 497 822 579 822 l 749 875 b 826 875 783 904 803 904 l 929 750 b 915 672 953 721 950 701 l 821 592 b 822 468 829 554 829 513 b 778 344 814 425 799 385 l 844 264 b 831 186 868 235 864 215 l 683 61 b 606 61 649 32 629 32 l 539 143 b 294 143 454 114 368 114 l 197 61 b 119 61 163 32 143 32 l 17 186 b 31 264 -7 215 -4 235 l 128 347 b 128 468 121 388 121 428 b 171 589 135 508 149 549 l 101 672 b 115 750 78 701 82 721 l 263 875 b 340 875 297 904 317 904 m 565 468 b 490 558 575 518 540 558 b 382 468 440 558 393 518 b 458 376 375 417 407 376 b 565 468 508 376 556 417 "},"¥":{"ha":1022,"x_min":0,"x_max":0,"o":"m 1063 986 b 1083 925 1106 986 1113 958 l 772 560 l 838 560 b 882 506 878 560 889 546 l 868 425 b 804 371 861 385 844 371 l 661 371 l 654 331 l 797 331 b 842 276 838 331 849 317 l 828 196 b 764 142 821 156 804 142 l 631 142 l 617 61 b 544 0 607 15 590 0 l 344 0 b 294 61 299 0 285 15 l 308 142 l 174 142 b 129 196 133 142 122 156 l 143 276 b 207 331 150 317 167 331 l 351 331 l 358 371 l 214 371 b 169 425 174 371 163 385 l 183 506 b 247 560 190 546 207 560 l 313 560 l 133 925 b 174 986 115 958 131 986 l 371 986 b 482 933 449 986 465 982 l 563 688 l 738 933 b 785 978 754 957 769 972 b 864 986 800 983 826 986 "},"¦":{"ha":419,"x_min":0,"x_max":0,"o":"m 444 1189 b 489 1133 485 1189 496 1176 l 397 613 b 333 558 390 572 376 558 l 147 558 b 101 613 104 558 94 572 l 193 1133 b 258 1189 200 1174 215 1189 m 310 428 b 356 374 350 428 363 414 l 263 -149 b 199 -203 256 -189 239 -203 l 13 -203 b -33 -149 -28 -203 -40 -189 l 60 374 b 124 428 67 414 83 428 "},"§":{"ha":879,"x_min":0,"x_max":0,"o":"m 135 736 b 567 1007 168 910 311 1007 b 883 803 754 1007 843 943 b 835 722 896 760 885 743 l 708 672 b 631 704 664 654 646 660 b 522 765 614 756 579 765 b 447 718 478 765 453 750 b 529 660 443 690 472 675 b 565 650 536 658 549 654 b 768 571 663 626 731 600 b 836 367 829 524 851 456 b 719 183 822 290 783 229 b 774 -32 769 144 792 64 b 338 -306 740 -208 594 -306 b -39 -93 128 -306 -10 -237 b 18 -11 -46 -56 -28 -28 l 156 40 b 232 1 204 57 217 47 b 354 -64 244 -42 286 -64 b 450 -11 411 -64 443 -46 b 385 39 454 15 431 28 b 38 328 258 69 -6 79 b 189 525 53 413 103 478 b 135 736 135 565 117 636 m 444 432 b 422 438 439 432 428 436 b 368 347 388 408 369 378 b 443 265 364 304 389 276 b 464 263 453 264 460 263 b 510 349 493 290 508 319 b 444 432 514 389 492 417 "},"¨":{"ha":610,"x_min":0,"x_max":0,"o":"m 281 1032 b 375 922 368 1032 390 1006 l 372 901 b 239 792 357 819 324 792 l 228 792 b 136 901 143 792 121 819 l 139 922 b 269 1032 154 1006 185 1032 m 590 1032 b 683 922 675 1032 699 1006 l 681 901 b 549 792 665 819 633 792 l 539 792 b 444 901 454 792 429 819 l 447 922 b 581 1032 463 1006 496 1032 "},"©":{"ha":1065,"x_min":0,"x_max":0,"o":"m 81 486 b 289 842 104 626 174 744 b 669 986 403 938 529 986 b 999 842 810 986 919 938 b 1081 486 1078 744 1104 626 b 874 132 1056 346 986 228 b 493 -14 760 35 633 -14 b 164 132 353 -14 243 35 b 81 486 85 229 57 347 m 939 486 b 881 742 957 588 938 674 b 644 844 824 810 746 844 b 371 742 543 844 451 810 b 222 486 289 674 240 588 b 281 231 204 385 224 300 b 518 126 338 161 417 126 b 790 231 619 126 710 161 b 939 486 871 300 921 385 m 369 557 b 629 761 392 685 486 761 b 817 615 739 761 801 706 b 779 549 824 571 817 560 l 701 524 b 650 554 664 513 657 517 b 599 592 644 579 628 592 b 540 553 565 592 546 579 l 517 417 b 561 376 513 390 528 376 b 625 415 589 376 610 389 b 688 446 646 453 656 457 l 764 418 b 778 351 796 407 799 396 b 532 208 729 256 647 208 b 346 422 392 208 324 293 "},"ª":{"ha":486,"x_min":0,"x_max":0,"o":"m 138 861 b 344 938 186 913 254 938 b 519 758 483 938 542 878 l 489 579 b 418 507 482 539 467 522 b 263 486 372 493 321 486 b 78 626 106 486 61 538 b 313 754 93 714 153 754 l 321 754 l 325 779 b 310 799 328 792 322 799 b 281 785 300 799 290 794 b 200 769 243 753 235 751 l 146 799 b 138 861 114 814 111 829 m 301 649 l 290 649 b 269 629 279 649 272 642 b 283 608 267 615 271 608 l 293 608 b 296 610 294 608 294 608 "},"«":{"ha":926,"x_min":0,"x_max":0,"o":"m 443 215 b 432 147 463 193 458 171 l 322 53 b 254 53 296 29 274 29 l 25 329 b 38 399 3 356 6 372 l 372 685 b 442 685 399 708 422 708 l 515 594 b 503 526 533 571 529 549 l 317 368 m 832 215 b 821 147 851 193 847 171 l 711 53 b 643 53 685 29 663 29 l 414 329 b 426 399 392 356 394 372 l 761 685 b 831 685 788 708 811 708 l 904 594 b 892 526 922 571 918 549 l 706 368 "},"¬":{"ha":835,"x_min":0,"x_max":0,"o":"m 761 593 b 806 538 801 593 813 578 l 750 219 b 686 164 743 179 726 164 l 492 164 b 447 219 451 164 440 176 l 467 329 l 83 329 b 39 385 43 329 32 342 l 65 538 b 129 593 75 581 89 593 "},"®":{"ha":629,"x_min":0,"x_max":0,"o":"m 103 717 b 217 918 115 796 154 863 b 432 1000 279 972 351 1000 b 618 917 508 1000 571 972 b 669 717 665 860 682 793 b 557 517 657 638 619 571 b 343 433 494 461 422 433 b 156 517 265 433 203 461 b 103 717 107 572 90 639 m 272 858 b 188 717 226 819 197 772 b 221 575 178 661 189 614 b 354 515 253 535 297 515 b 504 575 408 515 458 535 b 588 717 550 614 578 661 b 556 858 597 772 588 819 b 425 917 524 897 479 917 b 272 858 368 917 318 897 m 431 844 b 514 749 492 844 525 806 b 461 671 507 713 490 686 l 483 631 b 450 589 499 603 488 589 l 422 589 b 386 611 399 589 396 590 l 365 654 l 357 654 l 350 611 b 324 589 346 593 340 589 l 281 589 b 260 611 260 589 256 593 l 296 819 b 325 844 300 840 307 844 m 367 729 l 403 729 b 425 747 414 729 421 735 b 411 768 428 761 424 768 l 375 768 "},"¯":{"ha":489,"x_min":0,"x_max":0,"o":"m 539 990 b 582 939 582 990 589 979 l 569 868 b 508 817 563 828 551 817 l 157 817 b 114 868 117 817 107 828 l 126 939 b 188 990 133 979 150 990 "},"°":{"ha":600,"x_min":0,"x_max":0,"o":"m 667 771 b 550 569 653 692 614 625 b 336 486 486 514 415 486 b 147 568 256 486 193 514 b 99 771 101 622 85 690 b 214 975 114 853 151 921 b 426 1054 275 1028 346 1054 b 618 974 507 1054 571 1028 b 667 771 665 919 682 853 m 340 824 b 369 696 285 775 304 696 b 446 824 436 696 483 775 b 340 824 422 854 375 854 "},"±":{"ha":822,"x_min":0,"x_max":0,"o":"m 775 746 b 825 685 821 746 832 731 l 800 544 b 729 483 790 499 775 483 l 560 483 l 546 411 b 475 350 539 365 521 350 l 335 350 b 283 411 289 350 276 365 l 297 483 l 129 483 b 78 544 83 483 71 499 l 103 685 b 175 746 110 731 129 746 l 343 746 l 356 817 b 428 878 363 863 382 878 l 568 878 b 618 817 614 878 628 863 l 606 746 m 701 318 b 751 257 747 318 761 303 l 725 107 b 653 46 718 61 699 46 l 53 46 b 3 107 7 46 -4 61 l 29 257 b 101 318 36 303 56 318 "},"²":{"ha":526,"x_min":0,"x_max":0,"o":"m 139 983 b 397 1115 193 1072 265 1115 b 596 942 535 1115 611 1043 b 444 756 582 840 532 778 l 390 740 b 367 729 375 738 368 733 l 367 728 l 499 728 b 542 679 539 728 549 717 l 528 603 b 472 556 522 568 510 556 l 107 556 b 65 603 68 556 60 568 l 75 654 b 246 838 93 758 133 803 l 324 861 b 374 911 353 871 369 888 b 307 906 381 944 336 946 b 232 874 278 868 272 863 l 151 904 b 139 983 117 917 113 939 "},"³":{"ha":538,"x_min":0,"x_max":0,"o":"m 133 997 b 399 1125 182 1082 269 1125 b 599 953 539 1125 617 1058 b 526 847 592 910 567 875 b 574 722 569 822 585 781 b 311 554 554 610 467 554 b 75 688 165 554 86 599 b 106 747 71 718 81 738 l 183 774 b 251 747 232 789 240 782 b 319 713 258 724 282 713 b 364 733 349 713 363 719 b 328 761 368 754 361 761 l 289 761 b 263 796 263 761 258 768 l 279 885 b 321 921 283 911 292 921 l 349 921 b 394 947 375 921 390 929 b 358 972 399 964 386 972 b 274 932 321 972 292 958 b 204 910 254 904 231 897 l 143 940 b 133 997 122 953 118 971 "},"´":{"ha":357,"x_min":0,"x_max":0,"o":"m 333 1022 b 425 1019 374 1044 404 1043 l 501 924 b 485 868 522 896 517 878 l 214 789 b 150 794 181 779 160 781 l 108 851 b 121 904 93 872 97 890 "},"µ":{"ha":799,"x_min":0,"x_max":0,"o":"m 751 722 b 797 667 792 722 804 710 l 700 119 b 647 43 696 93 679 68 b 425 -21 593 4 497 -21 b 293 0 378 -21 333 -14 l 249 -250 b 183 -306 242 -290 226 -306 l -11 -306 b -57 -250 -51 -306 -64 -293 l 106 667 b 171 722 113 707 128 722 l 365 722 b 411 667 406 722 418 710 l 347 304 b 388 253 340 265 350 253 b 407 254 394 253 400 253 b 421 265 414 256 419 258 l 492 667 b 557 722 499 707 514 722 "},"¶":{"ha":1038,"x_min":0,"x_max":0,"o":"m 1039 986 b 1085 931 1082 986 1092 971 l 910 -68 b 843 -124 900 -111 886 -124 l 692 -124 b 647 -68 651 -124 640 -111 l 783 708 l 721 708 l 585 -68 b 518 -124 575 -108 561 -124 l 367 -124 b 322 -68 326 -124 315 -111 l 382 274 b 146 379 278 275 200 310 b 93 640 92 447 75 535 b 236 893 111 746 160 831 b 511 986 313 956 404 986 "},"·":{"ha":404,"x_min":0,"x_max":0,"o":"m 285 603 b 379 489 372 603 394 574 l 364 404 b 231 292 349 319 315 292 l 150 292 b 56 404 63 292 40 319 l 71 489 b 204 603 86 576 119 603 "},"¸":{"ha":349,"x_min":0,"x_max":0,"o":"m 168 -60 l 178 -60 b 267 -212 256 -61 289 -131 b 32 -347 243 -303 164 -347 b -78 -325 1 -347 -35 -340 b -114 -282 -104 -315 -117 -301 l -103 -218 b -42 -193 -96 -182 -75 -174 b 78 -187 7 -222 71 -225 b 19 -160 82 -167 69 -160 l -8 -160 b -18 -115 -33 -160 -36 -144 l 53 0 l 200 0 "},"¹":{"ha":419,"x_min":0,"x_max":0,"o":"m 440 1115 b 503 1040 500 1115 514 1094 l 429 622 b 358 567 422 582 404 567 l 265 567 b 215 622 219 567 208 582 l 258 868 l 226 851 b 149 871 181 829 164 836 l 119 938 b 151 1010 107 968 117 992 l 322 1099 b 392 1115 343 1110 365 1115 "},"º":{"ha":481,"x_min":0,"x_max":0,"o":"m 106 760 b 347 939 126 876 210 939 b 525 740 482 939 547 861 l 511 663 b 268 486 493 547 407 486 b 92 682 135 486 69 564 m 340 751 b 318 772 342 764 335 772 b 290 751 301 772 292 765 l 276 674 b 297 653 274 660 281 653 b 326 674 314 653 324 660 "},"»":{"ha":928,"x_min":0,"x_max":0,"o":"m 106 526 b 118 594 85 550 89 568 l 222 685 b 292 685 249 710 272 710 l 526 399 b 514 329 544 374 540 350 l 188 53 b 119 53 161 29 138 29 l 43 147 b 54 215 24 171 28 193 l 236 368 m 494 526 b 507 594 474 550 478 568 l 611 685 b 681 685 638 710 661 710 l 915 399 b 903 329 933 374 929 350 l 576 53 b 508 53 550 29 526 29 l 432 147 b 443 215 413 171 417 193 l 625 368 "},"¼":{"ha":1317,"x_min":0,"x_max":0,"o":"m 444 993 b 507 918 504 993 518 972 l 433 500 b 363 444 426 460 408 444 l 269 444 b 219 500 224 444 213 460 l 263 746 l 231 729 b 153 749 185 707 168 714 l 124 815 b 156 888 111 846 121 869 l 326 976 b 396 993 347 988 371 993 m 1129 986 b 1158 929 1174 986 1182 963 l 515 54 b 469 10 497 31 482 15 b 396 0 457 3 432 0 l 283 0 b 253 61 240 0 226 26 l 897 936 b 940 978 913 958 928 972 b 1010 986 953 983 976 986 m 1228 251 b 1267 211 1265 251 1271 240 l 1253 135 b 1200 92 1247 101 1238 92 l 1185 92 l 1176 50 b 1124 1 1171 18 1153 1 l 1014 1 b 979 50 985 1 974 18 l 988 92 l 768 92 b 725 140 729 92 719 107 l 732 185 b 765 251 738 214 749 236 l 1032 511 b 1131 550 1065 544 1081 550 l 1203 550 b 1254 490 1249 550 1264 535 l 1213 251 m 1028 326 l 951 251 l 1015 251 "},"½":{"ha":1319,"x_min":0,"x_max":0,"o":"m 444 993 b 507 918 504 993 518 972 l 433 500 b 363 444 426 460 408 444 l 269 444 b 219 500 224 444 213 460 l 263 746 l 231 729 b 153 749 185 707 168 714 l 124 815 b 156 888 111 846 121 869 l 326 976 b 396 993 347 988 371 993 m 1108 986 b 1138 929 1153 986 1161 963 l 494 54 b 449 10 476 31 461 15 b 375 0 436 3 411 0 l 263 0 b 232 61 219 0 206 26 l 876 936 b 919 978 892 958 907 972 b 989 986 932 983 956 986 m 836 428 b 1094 560 890 517 963 560 b 1293 386 1232 560 1308 488 b 1142 200 1279 285 1229 222 l 1088 185 b 1064 174 1072 182 1065 178 l 1064 172 l 1196 172 b 1239 124 1236 172 1246 161 l 1225 47 b 1169 0 1219 13 1207 0 l 804 0 b 763 47 765 0 757 13 l 772 99 b 943 282 790 203 831 247 l 1021 306 b 1071 356 1050 315 1067 332 b 1004 350 1078 389 1033 390 b 929 318 975 313 969 307 l 849 349 b 836 428 814 361 810 383 "},"¾":{"ha":1333,"x_min":0,"x_max":0,"o":"m 125 879 b 390 1007 174 964 261 1007 b 590 835 531 1007 608 940 b 518 729 583 792 558 757 b 565 604 561 704 576 663 b 303 436 546 492 458 436 b 67 569 157 436 78 481 b 97 629 63 600 72 619 l 175 656 b 243 629 224 671 232 664 b 311 594 250 606 274 594 b 356 615 340 594 354 601 b 319 643 360 636 353 643 l 281 643 b 254 678 254 643 250 650 l 271 767 b 313 803 275 793 283 803 l 340 803 b 386 829 367 803 382 811 b 350 854 390 846 378 854 b 265 814 313 854 283 840 b 196 792 246 786 222 779 l 135 822 b 125 879 114 835 110 853 m 1165 986 b 1194 929 1210 986 1218 963 l 551 54 b 506 10 533 31 518 15 b 432 0 493 3 468 0 l 319 0 b 289 61 276 0 263 26 l 933 936 b 976 978 949 958 964 972 b 1046 986 989 983 1013 986 m 1236 250 b 1275 210 1274 250 1279 239 l 1261 133 b 1208 90 1256 100 1246 90 l 1193 90 l 1185 49 b 1132 0 1179 17 1161 0 l 1022 0 b 988 49 993 0 982 17 l 996 90 l 776 90 b 733 139 738 90 728 106 l 740 183 b 774 250 746 213 757 235 l 1040 510 b 1139 549 1074 543 1089 549 l 1211 549 b 1263 489 1257 549 1272 533 l 1221 250 m 1036 325 l 960 250 l 1024 250 "},"¿":{"ha":836,"x_min":0,"x_max":0,"o":"m 425 433 b 331 546 338 433 315 461 l 343 617 b 476 729 358 701 389 729 l 585 729 b 679 617 672 729 694 701 l 667 546 b 533 433 651 461 621 433 m 742 -81 b 319 -308 653 -236 535 -308 b -25 -12 76 -308 -54 -196 b 101 183 -10 78 51 153 b 196 235 125 199 157 215 b 274 276 235 253 261 267 b 324 340 303 297 319 318 b 344 386 328 363 335 378 b 392 399 354 394 371 399 l 558 399 b 607 340 603 399 614 385 b 457 117 589 233 539 160 b 349 64 438 106 368 75 b 289 -19 325 51 296 19 b 342 -74 282 -56 300 -74 b 482 21 401 -74 432 -58 b 567 60 510 67 526 75 l 719 -1 b 742 -81 758 -17 765 -37 "},"À":{"ha":978,"x_min":0,"x_max":0,"o":"m 556 1278 b 649 1283 582 1304 614 1306 l 824 1168 b 819 1115 844 1156 843 1139 l 760 1057 b 693 1049 746 1042 724 1039 l 446 1118 b 447 1174 419 1128 419 1146 m 921 60 b 867 0 928 19 910 0 l 678 0 b 583 64 607 0 588 18 l 576 135 l 315 135 l 283 64 b 172 0 263 18 238 0 l -28 0 b -56 60 -71 0 -78 19 l 408 936 b 492 986 429 976 447 986 l 697 986 b 764 938 740 986 757 975 m 542 499 b 546 661 538 561 542 621 l 550 690 l 536 690 b 481 500 525 622 507 560 l 429 388 l 553 388 "},"Á":{"ha":978,"x_min":0,"x_max":0,"o":"m 647 1278 b 739 1272 688 1299 718 1296 l 811 1172 b 793 1117 832 1146 826 1126 l 521 1047 b 457 1056 488 1038 467 1040 l 419 1114 b 432 1167 404 1135 408 1153 m 921 60 b 867 0 928 19 910 0 l 678 0 b 583 64 607 0 588 18 l 576 135 l 315 135 l 283 64 b 172 0 263 18 238 0 l -28 0 b -56 60 -71 0 -78 19 l 408 936 b 492 986 429 976 447 986 l 697 986 b 764 938 740 986 757 975 m 542 499 b 546 661 538 561 542 621 l 550 690 l 536 690 b 481 500 525 622 507 560 l 429 388 l 553 388 "},"Â":{"ha":978,"x_min":0,"x_max":0,"o":"m 685 1285 b 783 1244 742 1285 754 1279 l 908 1096 b 881 1043 931 1072 925 1043 l 735 1043 b 638 1074 668 1043 653 1047 l 617 1113 l 581 1075 b 475 1043 553 1047 536 1043 l 338 1043 b 326 1096 290 1043 299 1071 l 503 1244 b 556 1278 525 1263 543 1274 b 624 1285 568 1282 592 1285 m 921 60 b 867 0 928 19 910 0 l 678 0 b 583 64 607 0 588 18 l 576 135 l 315 135 l 283 64 b 172 0 263 18 238 0 l -28 0 b -56 60 -71 0 -78 19 l 408 936 b 492 986 429 976 447 986 l 697 986 b 764 938 740 986 757 975 m 542 499 b 546 661 538 561 542 621 l 550 690 l 536 690 b 481 500 525 622 507 560 l 429 388 l 553 388 "},"Ã":{"ha":978,"x_min":0,"x_max":0,"o":"m 867 1271 b 894 1238 890 1271 899 1260 b 718 1060 872 1108 814 1060 b 597 1083 674 1060 633 1068 b 532 1107 561 1099 539 1107 b 510 1085 519 1107 513 1100 b 481 1060 507 1068 497 1060 l 374 1060 b 346 1093 351 1060 342 1071 b 519 1271 367 1211 424 1271 b 642 1247 563 1271 604 1263 b 710 1224 679 1232 701 1224 b 732 1246 722 1224 729 1231 b 761 1271 736 1263 746 1271 m 921 60 b 867 0 928 19 910 0 l 678 0 b 583 64 607 0 588 18 l 576 135 l 315 135 l 283 64 b 172 0 263 18 238 0 l -28 0 b -56 60 -71 0 -78 19 l 408 936 b 492 986 429 976 447 986 l 697 986 b 764 938 740 986 757 975 m 542 499 b 546 661 538 561 542 621 l 550 690 l 536 690 b 481 500 525 622 507 560 l 429 388 l 553 388 "},"Ä":{"ha":978,"x_min":0,"x_max":0,"o":"m 497 1286 b 593 1176 585 1286 606 1260 l 589 1156 b 456 1046 574 1074 540 1046 l 444 1046 b 353 1156 360 1046 338 1074 l 357 1176 b 486 1286 372 1260 401 1286 m 807 1286 b 901 1176 892 1286 917 1260 l 897 1156 b 765 1046 882 1074 850 1046 l 756 1046 b 661 1156 671 1046 646 1074 l 665 1176 b 797 1286 678 1260 710 1286 m 921 60 b 867 0 928 19 910 0 l 678 0 b 583 64 607 0 588 18 l 576 135 l 315 135 l 283 64 b 172 0 263 18 238 0 l -28 0 b -56 60 -71 0 -78 19 l 408 936 b 492 986 429 976 447 986 l 697 986 b 764 938 740 986 757 975 m 542 499 b 546 661 538 561 542 621 l 550 690 l 536 690 b 481 500 525 622 507 560 l 429 388 l 553 388 "},"Å":{"ha":978,"x_min":0,"x_max":0,"o":"m 357 1018 b 633 1224 379 1150 489 1224 b 829 1018 772 1224 853 1146 b 761 889 819 964 796 921 l 921 60 b 867 0 929 19 911 0 l 678 0 b 583 64 607 0 588 18 l 576 135 l 315 135 l 283 64 b 172 0 263 18 238 0 l -28 0 b -56 60 -71 0 -78 19 l 385 881 b 357 1018 357 915 347 961 m 644 1018 b 604 1068 650 1051 636 1068 b 540 1018 567 1068 546 1051 b 588 969 535 989 553 969 b 644 1018 619 969 639 986 m 542 499 b 546 661 538 561 542 621 l 550 690 l 536 690 b 481 500 525 622 507 560 l 429 388 l 553 388 "},"Æ":{"ha":1292,"x_min":0,"x_max":0,"o":"m 1186 279 b 1236 218 1232 279 1243 264 l 1208 61 b 1136 0 1201 15 1182 0 l 663 0 b 613 61 617 0 606 15 l 622 114 l 336 114 l 286 54 b 239 11 268 33 253 18 b 163 0 224 4 199 0 l -28 0 b -56 60 -72 0 -85 25 l 668 936 b 751 986 701 976 713 986 l 1300 986 b 1351 925 1346 986 1358 971 l 1324 769 b 1251 708 1314 724 1297 708 l 1010 708 l 997 636 l 1161 636 b 1211 575 1207 636 1218 621 l 1183 419 b 1113 358 1176 374 1158 358 l 949 358 l 935 279 m 732 632 l 538 353 l 664 353 "},"Ç":{"ha":908,"x_min":0,"x_max":0,"o":"m 611 1007 b 969 750 818 1007 938 921 b 919 672 979 707 965 688 l 736 610 b 664 649 690 597 674 604 b 564 728 653 706 629 728 b 421 606 469 728 438 694 l 381 381 b 481 258 365 292 386 258 b 611 338 538 258 582 285 b 696 376 638 382 656 392 l 876 307 b 901 228 919 292 925 271 b 529 -15 825 88 700 7 l 503 -65 l 513 -65 b 601 -218 590 -67 624 -136 b 367 -353 578 -308 499 -353 b 257 -331 336 -353 300 -346 b 221 -287 231 -321 218 -307 l 232 -224 b 293 -199 239 -187 260 -179 b 413 -193 342 -228 406 -231 b 354 -165 417 -172 404 -165 l 326 -165 b 314 -125 301 -165 297 -151 l 379 -18 b 63 397 139 3 22 163 l 103 628 b 611 1007 146 874 326 1007 "},"È":{"ha":822,"x_min":0,"x_max":0,"o":"m 485 1278 b 578 1283 511 1304 543 1306 l 753 1168 b 749 1115 774 1156 772 1139 l 689 1057 b 622 1049 675 1042 653 1039 l 375 1118 b 376 1174 349 1128 349 1146 m 826 986 b 878 925 872 986 885 971 l 850 769 b 778 708 843 724 824 708 l 433 708 l 421 636 l 688 636 b 738 575 733 636 747 621 l 710 419 b 639 358 703 374 685 358 l 372 358 l 358 279 l 713 279 b 763 218 758 279 772 264 l 735 61 b 663 0 725 15 708 0 l 47 0 b -3 61 1 0 -10 15 l 150 925 b 221 986 157 971 175 986 "},"É":{"ha":822,"x_min":0,"x_max":0,"o":"m 576 1278 b 668 1272 617 1299 647 1296 l 740 1172 b 722 1117 761 1146 756 1126 l 450 1047 b 386 1056 417 1038 396 1040 l 349 1114 b 361 1167 333 1135 338 1153 m 826 986 b 878 925 872 986 885 971 l 850 769 b 778 708 843 724 824 708 l 433 708 l 421 636 l 688 636 b 738 575 733 636 747 621 l 710 419 b 639 358 703 374 685 358 l 372 358 l 358 279 l 713 279 b 763 218 758 279 772 264 l 735 61 b 663 0 725 15 708 0 l 47 0 b -3 61 1 0 -10 15 l 150 925 b 221 986 157 971 175 986 "},"Ê":{"ha":822,"x_min":0,"x_max":0,"o":"m 614 1285 b 713 1244 671 1285 683 1279 l 838 1096 b 810 1043 860 1072 854 1043 l 664 1043 b 567 1074 597 1043 582 1047 l 546 1113 l 510 1075 b 404 1043 482 1047 465 1043 l 267 1043 b 256 1096 219 1043 228 1071 l 432 1244 b 485 1278 454 1263 472 1274 b 553 1285 497 1282 521 1285 m 826 986 b 878 925 872 986 885 971 l 850 769 b 778 708 843 724 824 708 l 433 708 l 421 636 l 688 636 b 738 575 733 636 747 621 l 710 419 b 639 358 703 374 685 358 l 372 358 l 358 279 l 713 279 b 763 218 758 279 772 264 l 735 61 b 663 0 725 15 708 0 l 47 0 b -3 61 1 0 -10 15 l 150 925 b 221 986 157 971 175 986 "},"Ë":{"ha":822,"x_min":0,"x_max":0,"o":"m 426 1286 b 522 1176 514 1286 535 1260 l 518 1156 b 385 1046 503 1074 469 1046 l 374 1046 b 282 1156 289 1046 267 1074 l 286 1176 b 415 1286 301 1260 331 1286 m 736 1286 b 831 1176 821 1286 846 1260 l 826 1156 b 694 1046 811 1074 779 1046 l 685 1046 b 590 1156 600 1046 575 1074 l 594 1176 b 726 1286 607 1260 639 1286 m 826 986 b 878 925 872 986 885 971 l 850 769 b 778 708 843 724 824 708 l 433 708 l 421 636 l 688 636 b 738 575 733 636 747 621 l 710 419 b 639 358 703 374 685 358 l 372 358 l 358 279 l 713 279 b 763 218 758 279 772 264 l 735 61 b 663 0 725 15 708 0 l 47 0 b -3 61 1 0 -10 15 l 150 925 b 221 986 157 971 175 986 "},"Ì":{"ha":433,"x_min":0,"x_max":0,"o":"m 283 1278 b 376 1283 310 1304 342 1306 l 551 1168 b 547 1115 572 1156 571 1139 l 488 1057 b 421 1049 474 1042 451 1039 l 174 1118 b 175 1174 147 1128 147 1146 m 151 931 b 217 986 161 974 176 986 l 428 986 b 474 931 471 986 481 971 l 319 56 b 254 0 313 15 297 0 l 43 0 b -3 56 3 0 -10 13 "},"Í":{"ha":433,"x_min":0,"x_max":0,"o":"m 375 1278 b 467 1272 415 1299 446 1296 l 539 1172 b 521 1117 560 1146 554 1126 l 249 1047 b 185 1056 215 1038 194 1040 l 147 1114 b 160 1167 132 1135 136 1153 m 151 931 b 217 986 161 974 176 986 l 428 986 b 474 931 471 986 481 971 l 319 56 b 254 0 313 15 297 0 l 43 0 b -3 56 3 0 -10 13 "},"Î":{"ha":433,"x_min":0,"x_max":0,"o":"m 413 1285 b 511 1244 469 1285 482 1279 l 636 1096 b 608 1043 658 1072 653 1043 l 463 1043 b 365 1074 396 1043 381 1047 l 344 1113 l 308 1075 b 203 1043 281 1047 264 1043 l 65 1043 b 54 1096 18 1043 26 1071 l 231 1244 b 283 1278 253 1263 271 1274 b 351 1285 296 1282 319 1285 m 151 931 b 217 986 161 974 176 986 l 428 986 b 474 931 471 986 481 971 l 319 56 b 254 0 313 15 297 0 l 43 0 b -3 56 3 0 -10 13 "},"Ï":{"ha":433,"x_min":0,"x_max":0,"o":"m 225 1286 b 321 1176 313 1286 333 1260 l 317 1156 b 183 1046 301 1074 268 1046 l 172 1046 b 81 1156 88 1046 65 1074 l 85 1176 b 214 1286 100 1260 129 1286 m 535 1286 b 629 1176 619 1286 644 1260 l 625 1156 b 493 1046 610 1074 578 1046 l 483 1046 b 389 1156 399 1046 374 1074 l 393 1176 b 525 1286 406 1260 438 1286 m 151 931 b 217 986 161 974 176 986 l 428 986 b 474 931 471 986 481 971 l 319 56 b 254 0 313 15 297 0 l 43 0 b -3 56 3 0 -10 13 "},"Ð":{"ha":994,"x_min":0,"x_max":0,"o":"m 621 986 b 928 871 761 986 863 947 b 990 565 992 794 1013 692 l 958 386 b 447 0 915 138 732 0 l 96 0 b 46 61 50 0 39 15 l 103 388 l 46 388 b 17 425 18 388 11 396 l 40 558 b 83 596 44 583 60 596 l 140 596 l 199 925 b 269 986 206 971 224 986 m 669 575 b 556 708 686 665 656 708 l 482 708 l 463 596 l 543 596 b 572 558 571 596 578 588 l 549 425 b 506 388 543 396 533 388 l 425 388 l 407 279 l 481 279 b 642 413 581 279 625 319 "},"Ñ":{"ha":976,"x_min":0,"x_max":0,"o":"m 868 1271 b 896 1238 892 1271 900 1260 b 719 1060 874 1108 815 1060 b 599 1083 675 1060 635 1068 b 533 1107 563 1099 540 1107 b 511 1085 521 1107 514 1100 b 482 1060 508 1068 499 1060 l 375 1060 b 347 1093 353 1060 343 1071 b 521 1271 368 1211 425 1271 b 643 1247 564 1271 606 1263 b 711 1224 681 1232 704 1224 b 733 1246 724 1224 731 1231 b 763 1271 738 1263 747 1271 m 963 986 b 1014 925 1008 986 1021 971 l 861 61 b 789 0 851 15 835 0 l 596 0 b 542 29 569 0 551 10 l 429 279 b 386 394 408 324 394 363 b 356 589 378 426 368 490 l 344 589 b 349 365 349 478 350 403 b 325 185 347 326 339 267 l 303 61 b 231 0 296 15 276 0 l 47 0 b -3 61 1 0 -10 15 l 150 925 b 221 986 157 971 175 986 l 428 986 b 483 958 456 986 474 976 l 611 664 b 683 404 635 610 658 524 l 696 404 b 671 642 681 531 672 610 b 686 799 669 674 674 725 l 708 925 b 779 986 715 971 733 986 "},"Ò":{"ha":957,"x_min":0,"x_max":0,"o":"m 575 1292 b 668 1297 601 1318 633 1319 l 843 1182 b 839 1129 864 1169 863 1153 l 779 1071 b 713 1063 765 1056 743 1053 l 465 1132 b 467 1188 439 1142 439 1160 m 104 618 b 611 1007 147 868 328 1007 b 919 892 751 1007 854 968 b 985 586 985 815 1007 713 l 946 364 b 439 -21 901 115 724 -21 b 131 93 299 -21 196 17 b 65 396 65 168 43 269 m 668 622 b 567 728 681 690 644 728 b 426 622 486 728 439 693 l 381 364 b 483 258 369 293 404 258 b 622 364 565 258 611 293 "},"Ó":{"ha":957,"x_min":0,"x_max":0,"o":"m 667 1292 b 758 1286 707 1313 738 1310 l 831 1186 b 813 1131 851 1160 846 1140 l 540 1061 b 476 1069 507 1051 486 1054 l 439 1128 b 451 1181 424 1149 428 1167 m 104 618 b 611 1007 147 868 328 1007 b 919 892 751 1007 854 968 b 985 586 985 815 1007 713 l 946 364 b 439 -21 901 115 724 -21 b 131 93 299 -21 196 17 b 65 396 65 168 43 269 m 668 622 b 567 728 681 690 644 728 b 426 622 486 728 439 693 l 381 364 b 483 258 369 293 404 258 b 622 364 565 258 611 293 "},"Ô":{"ha":957,"x_min":0,"x_max":0,"o":"m 704 1299 b 803 1258 761 1299 774 1293 l 928 1110 b 900 1057 950 1086 944 1057 l 754 1057 b 657 1088 688 1057 672 1061 l 636 1126 l 600 1089 b 494 1057 572 1061 556 1057 l 357 1057 b 346 1110 310 1057 318 1085 l 522 1258 b 575 1292 544 1276 563 1288 b 643 1299 588 1296 611 1299 m 104 618 b 611 1007 147 868 328 1007 b 919 892 751 1007 854 968 b 985 586 985 815 1007 713 l 946 364 b 439 -21 901 115 724 -21 b 131 93 299 -21 196 17 b 65 396 65 168 43 269 m 668 622 b 567 728 681 690 644 728 b 426 622 486 728 439 693 l 381 364 b 483 258 369 293 404 258 b 622 364 565 258 611 293 "},"Õ":{"ha":957,"x_min":0,"x_max":0,"o":"m 886 1285 b 914 1251 908 1285 918 1274 b 738 1074 892 1122 833 1074 b 618 1097 694 1074 654 1082 b 551 1121 582 1113 560 1121 b 529 1099 539 1121 532 1114 b 500 1074 526 1082 517 1074 l 393 1074 b 365 1107 369 1074 361 1085 b 539 1285 386 1225 443 1285 b 661 1261 583 1285 624 1276 b 729 1238 699 1246 721 1238 b 751 1260 742 1238 749 1244 b 781 1285 756 1276 765 1285 m 104 618 b 611 1007 147 868 328 1007 b 919 892 751 1007 854 968 b 985 586 985 815 1007 713 l 946 364 b 439 -21 901 115 724 -21 b 131 93 299 -21 196 17 b 65 396 65 168 43 269 m 668 622 b 567 728 681 690 644 728 b 426 622 486 728 439 693 l 381 364 b 483 258 369 293 404 258 b 622 364 565 258 611 293 "},"Ö":{"ha":957,"x_min":0,"x_max":0,"o":"m 517 1300 b 613 1190 604 1300 625 1274 l 608 1169 b 475 1060 593 1088 560 1060 l 464 1060 b 372 1169 379 1060 357 1088 l 376 1190 b 506 1300 392 1274 421 1300 m 826 1300 b 921 1190 911 1300 936 1274 l 917 1169 b 785 1060 901 1088 869 1060 l 775 1060 b 681 1169 690 1060 665 1088 l 685 1190 b 817 1300 697 1274 729 1300 m 104 618 b 611 1007 147 868 328 1007 b 919 892 751 1007 854 968 b 985 586 985 815 1007 713 l 946 364 b 439 -21 901 115 724 -21 b 131 93 299 -21 196 17 b 65 396 65 168 43 269 m 668 622 b 567 728 681 690 644 728 b 426 622 486 728 439 693 l 381 364 b 483 258 369 293 404 258 b 622 364 565 258 611 293 "},"×":{"ha":763,"x_min":0,"x_max":0,"o":"m 693 310 b 679 226 717 282 713 254 l 556 122 b 474 122 518 93 500 93 l 357 264 l 192 124 b 110 124 154 92 133 92 l 22 229 b 38 311 -1 258 3 279 l 201 451 l 86 592 b 101 674 60 624 64 644 l 225 779 b 307 779 260 811 283 811 l 422 639 l 589 781 b 671 781 626 810 647 810 l 758 675 b 743 593 782 643 781 625 l 576 451 "},"Ø":{"ha":957,"x_min":0,"x_max":0,"o":"m 1040 1044 b 1050 1015 1061 1044 1065 1035 l 914 854 b 953 586 958 783 971 694 l 914 364 b 407 -21 869 115 692 -21 b 206 17 328 -21 261 -8 l 163 -35 b 97 -62 142 -61 136 -62 l -47 -62 b -56 -31 -68 -62 -71 -46 l 74 125 b 33 396 28 196 15 286 l 72 618 b 579 1007 115 868 296 1007 b 786 967 658 1007 728 993 l 829 1018 b 892 1044 851 1042 858 1044 m 597 715 b 535 728 582 724 561 728 b 394 622 454 728 407 693 l 367 467 b 361 438 365 456 363 446 m 615 506 b 621 538 615 507 619 528 l 392 268 b 451 258 407 261 428 258 b 590 364 533 258 579 293 "},"Ù":{"ha":964,"x_min":0,"x_max":0,"o":"m 575 1278 b 668 1283 601 1304 633 1306 l 843 1168 b 839 1115 864 1156 863 1139 l 779 1057 b 713 1049 765 1042 743 1039 l 465 1118 b 467 1174 439 1128 439 1146 m 390 357 b 486 257 378 290 410 257 b 615 357 560 257 603 290 l 717 925 b 788 986 724 971 742 986 l 988 986 b 1039 925 1033 986 1046 971 l 938 353 b 443 -21 894 110 726 -21 b 139 97 304 -21 203 18 b 76 403 75 176 54 278 l 169 925 b 240 986 179 971 194 986 l 440 986 b 492 925 486 986 499 971 "},"Ú":{"ha":964,"x_min":0,"x_max":0,"o":"m 667 1278 b 758 1272 707 1299 738 1296 l 831 1172 b 813 1117 851 1146 846 1126 l 540 1047 b 476 1056 507 1038 486 1040 l 439 1114 b 451 1167 424 1135 428 1153 m 390 357 b 486 257 378 290 410 257 b 615 357 560 257 603 290 l 717 925 b 788 986 724 971 742 986 l 988 986 b 1039 925 1033 986 1046 971 l 938 353 b 443 -21 894 110 726 -21 b 139 97 304 -21 203 18 b 76 403 75 176 54 278 l 169 925 b 240 986 179 971 194 986 l 440 986 b 492 925 486 986 499 971 "},"Û":{"ha":964,"x_min":0,"x_max":0,"o":"m 704 1285 b 803 1244 761 1285 774 1279 l 928 1096 b 900 1043 950 1072 944 1043 l 754 1043 b 657 1074 688 1043 672 1047 l 636 1113 l 600 1075 b 494 1043 572 1047 556 1043 l 357 1043 b 346 1096 310 1043 318 1071 l 522 1244 b 575 1278 544 1263 563 1274 b 643 1285 588 1282 611 1285 m 390 357 b 486 257 378 290 410 257 b 615 357 560 257 603 290 l 717 925 b 788 986 724 971 742 986 l 988 986 b 1039 925 1033 986 1046 971 l 938 353 b 443 -21 894 110 726 -21 b 139 97 304 -21 203 18 b 76 403 75 176 54 278 l 169 925 b 240 986 179 971 194 986 l 440 986 b 492 925 486 986 499 971 "},"Ü":{"ha":964,"x_min":0,"x_max":0,"o":"m 517 1286 b 613 1176 604 1286 625 1260 l 608 1156 b 475 1046 593 1074 560 1046 l 464 1046 b 372 1156 379 1046 357 1074 l 376 1176 b 506 1286 392 1260 421 1286 m 826 1286 b 921 1176 911 1286 936 1260 l 917 1156 b 785 1046 901 1074 869 1046 l 775 1046 b 681 1156 690 1046 665 1074 l 685 1176 b 817 1286 697 1260 729 1286 m 390 357 b 486 257 378 290 410 257 b 615 357 560 257 603 290 l 717 925 b 788 986 724 971 742 986 l 988 986 b 1039 925 1033 986 1046 971 l 938 353 b 443 -21 894 110 726 -21 b 139 97 304 -21 203 18 b 76 403 75 176 54 278 l 169 925 b 240 986 179 971 194 986 l 440 986 b 492 925 486 986 499 971 "},"Ý":{"ha":960,"x_min":0,"x_max":0,"o":"m 647 1278 b 739 1272 688 1299 718 1296 l 811 1172 b 793 1117 832 1146 826 1126 l 521 1047 b 457 1056 488 1038 467 1040 l 419 1114 b 432 1167 404 1135 408 1153 m 1035 986 b 1056 925 1078 986 1082 960 l 644 381 l 589 61 b 517 0 579 15 563 0 l 317 0 b 267 61 271 0 257 15 l 322 378 l 106 925 b 146 986 90 960 103 986 l 342 986 b 453 933 419 986 436 982 l 533 688 l 708 933 b 756 978 725 957 740 972 b 835 986 771 983 797 986 "},"Þ":{"ha":888,"x_min":0,"x_max":0,"o":"m 575 875 b 835 767 690 875 778 839 b 889 482 892 694 910 600 b 443 125 850 254 681 125 l 329 125 l 318 61 b 246 0 308 15 292 0 l 47 0 b -3 61 1 0 -10 15 l 150 925 b 221 986 157 971 175 986 l 419 986 b 471 925 465 986 478 971 l 461 875 m 446 404 b 560 500 506 404 550 444 b 481 596 569 556 540 596 l 413 596 l 378 404 "},"ß":{"ha":850,"x_min":0,"x_max":0,"o":"m 110 744 b 524 1042 144 943 283 1042 b 853 750 774 1042 885 926 b 713 549 836 651 797 600 l 711 542 b 811 289 799 501 838 439 b 428 0 776 96 649 0 l 371 0 b 322 61 325 0 313 15 l 350 218 b 421 279 360 264 375 279 l 431 279 b 493 335 469 281 486 296 b 450 392 500 375 493 390 l 440 392 b 392 453 394 392 382 407 l 418 603 b 474 664 425 649 439 664 l 481 664 b 528 715 506 664 521 681 b 475 764 533 747 518 764 b 407 708 436 764 414 746 l 293 61 b 221 0 283 15 267 0 l 39 0 b -11 61 -7 0 -21 15 "},"à":{"ha":763,"x_min":0,"x_max":0,"o":"m 440 1019 b 532 1022 468 1043 499 1044 l 703 904 b 696 851 721 890 719 872 l 635 794 b 568 789 621 781 599 779 l 325 868 b 328 924 297 878 299 897 m 58 439 b 463 743 96 649 225 743 b 739 694 581 743 672 726 b 781 610 783 671 790 658 l 688 83 b 619 15 681 43 664 26 b 303 -21 526 -8 421 -21 b 36 311 88 -21 1 107 m 447 481 b 419 483 440 482 431 483 b 364 442 388 483 369 469 l 335 275 b 371 238 331 250 343 238 l 411 240 l 451 472 b 447 481 453 476 451 479 "},"á":{"ha":763,"x_min":0,"x_max":0,"o":"m 522 1022 b 614 1019 563 1044 593 1043 l 690 924 b 674 868 711 896 706 878 l 403 789 b 339 794 369 779 349 781 l 297 851 b 310 904 282 872 286 890 m 58 439 b 463 743 96 649 225 743 b 739 694 581 743 672 726 b 781 610 783 671 790 658 l 688 83 b 619 15 681 43 664 26 b 303 -21 526 -8 421 -21 b 36 311 88 -21 1 107 m 447 481 b 419 483 440 482 431 483 b 364 442 388 483 369 469 l 335 275 b 371 238 331 250 343 238 l 411 240 l 451 472 b 447 481 453 476 451 479 "},"â":{"ha":763,"x_min":0,"x_max":0,"o":"m 564 1031 b 663 990 619 1031 631 1025 l 788 842 b 758 789 810 818 803 789 l 622 789 b 526 819 556 789 542 793 l 506 858 l 468 821 b 363 789 442 793 424 789 l 226 789 b 217 842 181 789 188 818 l 393 990 b 446 1024 414 1008 432 1019 b 514 1031 458 1028 482 1031 m 58 439 b 463 743 96 649 225 743 b 739 694 581 743 672 726 b 781 610 783 671 790 658 l 688 83 b 619 15 681 43 664 26 b 303 -21 526 -8 421 -21 b 36 311 88 -21 1 107 m 447 481 b 419 483 440 482 431 483 b 364 442 388 483 369 469 l 335 275 b 371 238 331 250 343 238 l 411 240 l 451 472 b 447 481 453 476 451 479 "},"ã":{"ha":763,"x_min":0,"x_max":0,"o":"m 746 1015 b 774 982 768 1015 778 1004 b 596 804 751 853 692 804 b 475 828 551 804 511 813 b 410 851 439 843 417 851 b 388 829 397 851 390 844 b 358 804 385 813 375 804 l 251 804 b 224 838 231 804 221 815 b 399 1015 246 956 304 1015 b 522 992 443 1015 485 1007 b 589 968 560 976 582 968 b 611 990 601 968 608 975 b 640 1015 614 1007 624 1015 m 58 439 b 463 743 96 649 225 743 b 739 694 581 743 672 726 b 781 610 783 671 790 658 l 688 83 b 619 15 681 43 664 26 b 303 -21 526 -8 421 -21 b 36 311 88 -21 1 107 m 447 481 b 419 483 440 482 431 483 b 364 442 388 483 369 469 l 335 275 b 371 238 331 250 343 238 l 411 240 l 451 472 b 447 481 453 476 451 479 "},"ä":{"ha":763,"x_min":0,"x_max":0,"o":"m 376 1032 b 471 922 464 1032 486 1006 l 468 901 b 335 792 453 819 419 792 l 324 792 b 232 901 239 792 217 819 l 235 922 b 365 1032 250 1006 281 1032 m 686 1032 b 779 922 771 1032 794 1006 l 776 901 b 644 792 761 819 729 792 l 635 792 b 540 901 550 792 525 819 l 543 922 b 676 1032 558 1006 592 1032 m 58 439 b 463 743 96 649 225 743 b 739 694 581 743 672 726 b 781 610 783 671 790 658 l 688 83 b 619 15 681 43 664 26 b 303 -21 526 -8 421 -21 b 36 311 88 -21 1 107 m 447 481 b 419 483 440 482 431 483 b 364 442 388 483 369 469 l 335 275 b 371 238 331 250 343 238 l 411 240 l 451 472 b 447 481 453 476 451 479 "},"å":{"ha":763,"x_min":0,"x_max":0,"o":"m 307 946 b 535 1115 325 1056 417 1115 b 697 946 651 1115 715 1051 b 475 778 679 840 590 778 b 307 946 357 778 289 839 m 544 946 b 511 988 549 974 538 988 b 458 946 481 988 463 974 b 497 906 454 922 469 906 b 544 946 524 906 540 919 m 58 439 b 463 743 96 649 225 743 b 739 694 581 743 672 726 b 781 610 783 671 790 658 l 688 83 b 619 15 681 43 664 26 b 303 -21 526 -8 421 -21 b 36 311 88 -21 1 107 m 447 481 b 419 483 440 482 431 483 b 364 442 388 483 369 469 l 335 275 b 371 238 331 250 343 238 l 411 240 l 451 472 b 447 481 453 476 451 479 "},"æ":{"ha":1064,"x_min":0,"x_max":0,"o":"m 586 683 b 789 743 653 724 721 743 b 1082 494 1004 743 1110 656 b 800 285 1060 367 946 285 b 654 290 740 285 692 286 l 650 267 b 690 196 642 219 656 196 b 758 221 722 196 750 213 l 779 242 b 850 253 797 265 807 271 l 960 196 b 974 117 992 179 997 153 b 649 -21 914 25 806 -21 b 485 17 586 -21 532 -8 b 293 -21 421 -8 357 -21 b 7 226 65 -21 -17 65 b 111 399 19 310 54 367 b 382 446 168 431 258 446 l 408 446 l 414 488 b 378 526 418 514 407 526 b 315 478 344 526 329 499 b 243 468 300 457 275 453 l 122 519 b 106 599 85 536 79 556 b 422 743 178 700 265 743 b 586 683 489 743 543 724 m 785 504 b 746 543 789 526 775 543 b 688 482 714 543 694 522 l 686 471 b 736 468 707 469 724 468 b 785 504 765 468 781 481 m 374 258 l 350 258 b 296 213 319 258 301 243 b 332 169 290 186 306 169 b 369 172 342 169 354 171 b 371 244 367 196 367 219 "},"ç":{"ha":722,"x_min":0,"x_max":0,"o":"m 56 439 b 460 743 92 642 226 743 b 742 540 631 743 721 663 b 690 464 749 497 735 479 l 526 411 b 454 449 478 396 464 406 b 407 493 447 486 433 493 b 360 443 382 493 367 476 l 332 279 b 360 231 326 247 336 231 b 419 274 386 231 399 236 b 504 310 443 317 464 325 l 669 258 b 693 178 708 246 717 219 b 408 -14 628 69 532 6 l 383 -60 l 393 -60 b 482 -212 471 -61 504 -131 b 247 -347 458 -303 379 -347 b 138 -325 217 -347 181 -340 b 101 -282 111 -315 99 -301 l 113 -218 b 174 -193 119 -182 140 -174 b 293 -187 222 -222 286 -225 b 235 -160 297 -167 285 -160 l 211 -160 b 197 -115 183 -160 179 -144 l 257 -18 b 33 310 72 3 1 122 "},"è":{"ha":760,"x_min":0,"x_max":0,"o":"m 438 1019 b 529 1022 465 1043 496 1044 l 700 904 b 693 851 718 890 717 872 l 632 794 b 565 789 618 781 596 779 l 322 868 b 325 924 294 878 296 897 m 58 443 b 465 743 92 632 239 743 b 783 492 686 743 801 660 b 499 285 768 368 658 285 b 338 290 432 285 378 286 l 333 267 b 381 197 325 221 340 197 b 454 221 414 197 444 213 b 476 242 458 225 467 232 b 554 253 496 265 522 268 l 671 199 b 688 119 708 182 714 163 b 343 -21 621 26 506 -21 b 35 308 97 -21 0 108 m 485 504 b 438 543 489 531 472 543 b 371 482 401 543 379 522 l 368 468 b 426 465 390 467 410 465 b 485 504 461 465 481 478 "},"é":{"ha":760,"x_min":0,"x_max":0,"o":"m 519 1022 b 611 1019 560 1044 590 1043 l 688 924 b 671 868 708 896 703 878 l 400 789 b 336 794 367 779 346 781 l 294 851 b 307 904 279 872 283 890 m 58 443 b 465 743 92 632 239 743 b 783 492 686 743 801 660 b 499 285 768 368 658 285 b 338 290 432 285 378 286 l 333 267 b 381 197 325 221 340 197 b 454 221 414 197 444 213 b 476 242 458 225 467 232 b 554 253 496 265 522 268 l 671 199 b 688 119 708 182 714 163 b 343 -21 621 26 506 -21 b 35 308 97 -21 0 108 m 485 504 b 438 543 489 531 472 543 b 371 482 401 543 379 522 l 368 468 b 426 465 390 467 410 465 b 485 504 461 465 481 478 "},"ê":{"ha":760,"x_min":0,"x_max":0,"o":"m 785 842 b 756 789 807 818 800 789 l 619 789 b 524 819 553 789 539 793 l 503 858 l 465 821 b 360 789 439 793 421 789 l 224 789 b 214 842 178 789 185 818 l 390 990 b 443 1024 411 1008 429 1019 b 511 1031 456 1028 479 1031 l 561 1031 b 660 990 617 1031 628 1025 m 465 743 b 783 492 686 743 801 660 b 499 285 768 368 658 285 b 338 290 432 285 378 286 l 333 267 b 381 197 325 221 340 197 b 454 221 414 197 444 213 b 476 242 458 225 467 232 b 554 253 496 265 522 268 l 671 199 b 688 119 708 182 714 163 b 343 -21 621 26 506 -21 b 35 308 97 -21 0 108 l 58 443 b 465 743 92 632 239 743 m 485 504 b 438 543 489 531 472 543 b 371 482 401 543 379 522 l 368 468 b 426 465 390 467 410 465 b 485 504 461 465 481 478 "},"ë":{"ha":760,"x_min":0,"x_max":0,"o":"m 374 1032 b 468 922 461 1032 483 1006 l 465 901 b 332 792 450 819 417 792 l 321 792 b 229 901 236 792 214 819 l 232 922 b 363 1032 247 1006 278 1032 m 683 1032 b 776 922 768 1032 792 1006 l 774 901 b 642 792 758 819 726 792 l 632 792 b 538 901 547 792 522 819 l 540 922 b 674 1032 556 1006 589 1032 m 58 443 b 465 743 92 632 239 743 b 783 492 686 743 801 660 b 499 285 768 368 658 285 b 338 290 432 285 378 286 l 333 267 b 381 197 325 221 340 197 b 454 221 414 197 444 213 b 476 242 458 225 467 232 b 554 253 496 265 522 268 l 671 199 b 688 119 708 182 714 163 b 343 -21 621 26 506 -21 b 35 308 97 -21 0 108 m 485 504 b 438 543 489 531 472 543 b 371 482 401 543 379 522 l 368 468 b 426 465 390 467 410 465 b 485 504 461 465 481 478 "},"ì":{"ha":397,"x_min":0,"x_max":0,"o":"m 215 1019 b 306 1014 242 1042 271 1040 l 474 888 b 463 835 494 871 490 861 l 408 783 b 343 783 393 768 372 768 l 111 885 b 119 940 85 897 88 915 m 356 722 b 401 667 396 722 408 710 l 293 56 b 228 0 286 15 271 0 l 33 0 b -12 56 -7 0 -19 13 l 96 667 b 161 722 103 707 118 722 "},"í":{"ha":397,"x_min":0,"x_max":0,"o":"m 288 1022 b 381 1028 328 1047 358 1049 l 468 940 b 454 885 489 915 485 897 l 189 783 b 124 783 156 769 133 769 l 75 835 b 83 888 57 858 57 871 m 356 722 b 401 667 396 722 408 710 l 293 56 b 228 0 286 15 271 0 l 33 0 b -12 56 -7 0 -19 13 l 96 667 b 161 722 103 707 118 722 "},"î":{"ha":397,"x_min":0,"x_max":0,"o":"m 549 839 b 519 788 571 815 564 788 l 390 788 b 296 817 325 788 311 793 l 275 856 l 239 818 b 136 788 215 792 196 788 l 0 788 b -10 839 -43 788 -39 813 l 163 985 b 213 1017 183 1001 200 1013 b 281 1024 225 1021 249 1024 l 329 1024 b 426 985 385 1024 394 1018 m 350 722 b 396 667 390 722 403 710 l 288 56 b 222 0 281 15 265 0 l 28 0 b -18 56 -12 0 -25 13 l 90 667 b 156 722 97 707 113 722 "},"ï":{"ha":397,"x_min":0,"x_max":0,"o":"m 163 1032 b 257 922 250 1032 272 1006 l 254 901 b 121 792 239 819 206 792 l 110 792 b 18 901 25 792 3 819 l 21 922 b 151 1032 36 1006 67 1032 m 472 1032 b 565 922 557 1032 581 1006 l 563 901 b 431 792 547 819 515 792 l 421 792 b 326 901 336 792 311 819 l 329 922 b 463 1032 344 1006 378 1032 m 356 722 b 401 667 396 722 408 710 l 293 56 b 228 0 286 15 271 0 l 33 0 b -12 56 -7 0 -19 13 l 96 667 b 161 722 103 707 118 722 "},"ð":{"ha":781,"x_min":0,"x_max":0,"o":"m 708 1061 b 746 1063 724 1075 736 1075 l 790 1022 b 785 983 803 1011 800 999 l 739 942 b 786 513 807 865 824 722 l 746 282 b 336 -21 711 86 569 -21 b 33 297 103 -21 -4 99 l 54 410 b 424 674 86 586 222 674 b 560 653 478 674 522 667 b 528 751 564 693 553 725 l 471 700 b 432 699 449 688 449 688 l 392 725 b 397 764 378 733 379 746 l 429 794 b 271 797 407 796 354 797 b 221 858 225 797 211 813 l 242 972 b 313 1033 249 1018 267 1033 b 647 1001 469 1033 582 1022 m 463 399 b 418 444 467 429 453 444 b 356 399 381 444 360 429 l 335 282 b 381 238 329 253 344 238 b 442 282 415 238 436 253 "},"ñ":{"ha":774,"x_min":0,"x_max":0,"o":"m 717 1015 b 744 982 739 1015 749 1004 b 567 804 722 853 663 804 b 447 828 524 804 483 813 b 381 851 411 843 389 851 b 358 829 368 851 361 844 b 329 804 356 813 346 804 l 222 804 b 194 838 201 804 192 815 b 369 1015 217 956 275 1015 b 492 992 414 1015 454 1007 b 560 968 529 976 551 968 b 582 990 572 968 579 975 b 611 1015 585 1007 594 1015 m 157 689 b 472 743 253 725 358 743 b 743 432 690 743 778 632 l 676 56 b 611 0 669 15 654 0 l 417 0 b 371 56 376 0 364 13 l 435 418 b 394 469 442 457 432 469 b 368 468 382 469 374 469 b 363 463 364 467 363 465 l 290 56 b 225 0 283 15 268 0 l 31 0 b -15 56 -10 0 -22 13 l 82 603 b 157 689 92 653 106 671 "},"ò":{"ha":769,"x_min":0,"x_max":0,"o":"m 431 1019 b 522 1022 458 1043 489 1044 l 693 904 b 686 851 711 890 710 872 l 625 794 b 558 789 611 781 589 779 l 315 868 b 318 924 288 878 289 897 m 56 440 b 465 743 90 636 232 743 b 767 418 697 743 800 618 l 744 285 b 332 -21 710 89 567 -21 b 33 307 104 -21 0 107 m 467 440 b 421 486 472 471 457 486 b 360 440 386 486 365 471 l 332 282 b 376 238 326 253 342 238 b 439 282 413 238 433 253 "},"ó":{"ha":769,"x_min":0,"x_max":0,"o":"m 513 1022 b 604 1019 553 1044 583 1043 l 681 924 b 664 868 701 896 696 878 l 393 789 b 329 794 360 779 339 781 l 288 851 b 300 904 272 872 276 890 m 56 440 b 465 743 90 636 232 743 b 767 418 697 743 800 618 l 744 285 b 332 -21 710 89 567 -21 b 33 307 104 -21 0 107 m 467 440 b 421 486 472 471 457 486 b 360 440 386 486 365 471 l 332 282 b 376 238 326 253 342 238 b 439 282 413 238 433 253 "},"ô":{"ha":769,"x_min":0,"x_max":0,"o":"m 778 842 b 749 789 800 818 793 789 l 613 789 b 517 819 546 789 532 793 l 496 858 l 458 821 b 353 789 432 793 414 789 l 217 789 b 207 842 171 789 178 818 l 383 990 b 436 1024 404 1008 422 1019 b 504 1031 449 1028 472 1031 l 554 1031 b 653 990 610 1031 621 1025 m 465 743 b 767 418 697 743 800 618 l 744 285 b 332 -21 710 89 567 -21 b 33 307 104 -21 0 107 l 56 440 b 465 743 90 636 232 743 m 467 440 b 421 486 472 471 457 486 b 360 440 386 486 365 471 l 332 282 b 376 238 326 253 342 238 b 439 282 413 238 433 253 "},"õ":{"ha":769,"x_min":0,"x_max":0,"o":"m 736 1015 b 764 982 758 1015 768 1004 b 586 804 742 853 682 804 b 467 828 543 804 503 813 b 400 851 431 843 408 851 b 378 829 388 851 381 844 b 349 804 375 813 365 804 l 242 804 b 214 838 221 804 211 815 b 389 1015 236 956 294 1015 b 511 992 433 1015 474 1007 b 579 968 549 976 571 968 b 601 990 592 968 599 975 b 631 1015 604 1007 614 1015 m 56 440 b 465 743 90 636 232 743 b 767 418 697 743 800 618 l 744 285 b 332 -21 710 89 567 -21 b 33 307 104 -21 0 107 m 467 440 b 421 486 472 471 457 486 b 360 440 386 486 365 471 l 332 282 b 376 238 326 253 342 238 b 439 282 413 238 433 253 "},"ö":{"ha":769,"x_min":0,"x_max":0,"o":"m 367 1032 b 461 922 454 1032 476 1006 l 458 901 b 325 792 443 819 410 792 l 314 792 b 222 901 229 792 207 819 l 225 922 b 356 1032 240 1006 271 1032 m 676 1032 b 769 922 761 1032 785 1006 l 767 901 b 635 792 751 819 719 792 l 625 792 b 531 901 540 792 515 819 l 533 922 b 667 1032 549 1006 582 1032 m 56 440 b 465 743 90 636 232 743 b 767 418 697 743 800 618 l 744 285 b 332 -21 710 89 567 -21 b 33 307 104 -21 0 107 m 467 440 b 421 486 472 471 457 486 b 360 440 386 486 365 471 l 332 282 b 376 238 326 253 342 238 b 439 282 413 238 433 253 "},"÷":{"ha":783,"x_min":0,"x_max":0,"o":"m 531 860 b 619 753 613 860 635 835 l 617 738 b 490 631 601 656 572 631 l 382 631 b 294 738 300 631 279 656 l 297 753 b 422 860 313 835 340 860 m 729 589 b 779 528 775 589 786 574 l 753 378 b 681 317 743 332 726 317 l 81 317 b 31 378 35 317 21 332 l 57 528 b 129 589 64 574 83 589 m 428 275 b 515 168 510 275 531 250 l 514 153 b 388 46 499 71 469 46 l 279 46 b 192 153 197 46 176 71 l 193 168 b 319 275 208 250 238 275 "},"ø":{"ha":771,"x_min":0,"x_max":0,"o":"m 781 767 b 790 736 803 767 806 757 l 721 653 b 769 418 769 596 786 517 l 747 285 b 335 -21 713 89 569 -21 b 194 0 281 -21 235 -14 l 174 -26 b 117 -49 161 -42 142 -49 l 32 -49 b 24 -18 8 -49 6 -39 l 90 64 b 36 307 36 121 18 203 l 58 440 b 468 743 93 636 235 743 b 619 719 526 743 576 735 l 640 744 b 696 767 653 760 671 767 m 478 521 b 433 542 472 535 457 542 b 372 496 399 542 378 526 l 351 382 b 349 361 350 375 349 368 m 328 199 b 369 182 335 188 349 182 b 432 226 406 182 426 197 l 451 338 b 454 354 453 344 454 350 "},"ù":{"ha":774,"x_min":0,"x_max":0,"o":"m 432 1019 b 524 1022 460 1043 490 1044 l 694 904 b 688 851 713 890 711 872 l 626 794 b 560 789 613 781 590 779 l 317 868 b 319 924 289 878 290 897 m 754 722 b 800 667 794 722 807 710 l 703 119 b 628 33 693 69 679 51 b 313 -21 532 -3 426 -21 b 44 306 96 -21 10 104 l 108 667 b 174 722 115 707 131 722 l 368 722 b 414 667 408 722 421 710 l 350 304 b 390 253 343 265 353 253 b 413 254 397 253 406 253 b 424 265 419 256 422 258 l 494 667 b 560 722 501 707 517 722 "},"ú":{"ha":774,"x_min":0,"x_max":0,"o":"m 514 1022 b 606 1019 554 1044 585 1043 l 682 924 b 665 868 703 896 697 878 l 394 789 b 331 794 361 779 340 781 l 289 851 b 301 904 274 872 278 890 m 754 722 b 800 667 794 722 807 710 l 703 119 b 628 33 693 69 679 51 b 313 -21 532 -3 426 -21 b 44 306 96 -21 10 104 l 108 667 b 174 722 115 707 131 722 l 368 722 b 414 667 408 722 421 710 l 350 304 b 390 253 343 265 353 253 b 413 254 397 253 406 253 b 424 265 419 256 422 258 l 494 667 b 560 722 501 707 517 722 "},"û":{"ha":774,"x_min":0,"x_max":0,"o":"m 556 1031 b 654 990 611 1031 622 1025 l 779 842 b 750 789 801 818 794 789 l 614 789 b 518 819 547 789 533 793 l 497 858 l 460 821 b 354 789 433 793 415 789 l 218 789 b 208 842 172 789 179 818 l 385 990 b 438 1024 406 1008 424 1019 b 506 1031 450 1028 474 1031 m 754 722 b 800 667 794 722 807 710 l 703 119 b 628 33 693 69 679 51 b 313 -21 532 -3 426 -21 b 44 306 96 -21 10 104 l 108 667 b 174 722 115 707 131 722 l 368 722 b 414 667 408 722 421 710 l 350 304 b 390 253 343 265 353 253 b 413 254 397 253 406 253 b 424 265 419 256 422 258 l 494 667 b 560 722 501 707 517 722 "},"ü":{"ha":774,"x_min":0,"x_max":0,"o":"m 368 1032 b 463 922 456 1032 478 1006 l 460 901 b 326 792 444 819 411 792 l 315 792 b 224 901 231 792 208 819 l 226 922 b 357 1032 242 1006 272 1032 m 678 1032 b 771 922 763 1032 786 1006 l 768 901 b 636 792 753 819 721 792 l 626 792 b 532 901 542 792 517 819 l 535 922 b 668 1032 550 1006 583 1032 m 754 722 b 800 667 794 722 807 710 l 703 119 b 628 33 693 69 679 51 b 313 -21 532 -3 426 -21 b 44 306 96 -21 10 104 l 108 667 b 174 722 115 707 131 722 l 368 722 b 414 667 408 722 421 710 l 350 304 b 390 253 343 265 353 253 b 413 254 397 253 406 253 b 424 265 419 256 422 258 l 494 667 b 560 722 501 707 517 722 "},"ý":{"ha":776,"x_min":0,"x_max":0,"o":"m 511 1022 b 603 1019 551 1044 582 1043 l 679 924 b 663 868 700 896 694 878 l 392 789 b 328 794 358 779 338 781 l 286 851 b 299 904 271 872 275 890 m 751 722 b 797 667 792 722 804 710 l 679 0 b 274 -319 642 -212 506 -319 b -11 -171 117 -319 35 -275 b 33 -92 -26 -137 -12 -111 l 188 -22 b 258 -39 233 0 244 -18 b 314 -81 272 -62 279 -76 b 369 -28 344 -81 363 -62 l 378 22 b 317 21 365 21 344 21 b 50 354 101 21 13 150 l 106 667 b 171 722 113 707 128 722 l 365 722 b 411 667 406 722 418 710 l 354 346 b 396 294 347 307 358 294 b 426 296 408 294 419 294 l 492 667 b 557 722 499 707 514 722 "},"þ":{"ha":767,"x_min":0,"x_max":0,"o":"m 149 972 b 214 1028 156 1013 171 1028 l 410 1028 b 456 972 450 1028 463 1015 l 414 742 b 464 743 425 743 442 743 b 742 417 686 743 776 618 l 719 289 b 339 -21 682 82 556 -21 b 279 -19 324 -21 292 -19 l 239 -249 b 174 -304 229 -292 214 -304 l -21 -304 b -67 -249 -64 -304 -74 -289 m 442 446 b 406 483 446 471 435 483 b 367 478 389 483 376 482 l 325 242 b 357 238 335 239 346 238 b 413 279 389 238 407 251 "},"ÿ":{"ha":776,"x_min":0,"x_max":0,"o":"m 365 1032 b 460 922 453 1032 475 1006 l 457 901 b 324 792 442 819 408 792 l 313 792 b 221 901 228 792 206 819 l 224 922 b 354 1032 239 1006 269 1032 m 675 1032 b 768 922 760 1032 783 1006 l 765 901 b 633 792 750 819 718 792 l 624 792 b 529 901 539 792 514 819 l 532 922 b 665 1032 547 1006 581 1032 m 751 722 b 797 667 792 722 804 710 l 679 0 b 274 -319 642 -212 506 -319 b -11 -171 117 -319 35 -275 b 33 -92 -26 -137 -12 -111 l 188 -22 b 258 -39 233 0 244 -18 b 314 -81 272 -62 279 -76 b 369 -28 344 -81 363 -62 l 378 22 b 317 21 365 21 344 21 b 50 354 101 21 13 150 l 106 667 b 171 722 113 707 128 722 l 365 722 b 411 667 406 722 418 710 l 354 346 b 396 294 347 307 358 294 b 426 296 408 294 419 294 l 492 667 b 557 722 499 707 514 722 "},"Ā":{"ha":978,"x_min":0,"x_max":0,"o":"m 817 1251 b 861 1200 860 1251 868 1240 l 849 1129 b 786 1078 842 1089 829 1078 l 435 1078 b 393 1129 394 1078 386 1089 l 406 1200 b 465 1251 413 1240 428 1251 m 921 60 b 867 0 928 19 910 0 l 678 0 b 583 64 607 0 588 18 l 576 135 l 315 135 l 283 64 b 172 0 263 18 238 0 l -28 0 b -56 60 -71 0 -78 19 l 408 936 b 492 986 429 976 447 986 l 697 986 b 764 938 740 986 757 975 m 542 499 b 546 661 538 561 542 621 l 550 690 l 536 690 b 481 500 525 622 507 560 l 429 388 l 553 388 "},"ā":{"ha":763,"x_min":0,"x_max":0,"o":"m 694 990 b 738 939 738 990 744 979 l 725 868 b 664 817 718 828 707 817 l 313 817 b 269 868 272 817 263 828 l 282 939 b 343 990 289 979 306 990 m 58 439 b 463 743 96 649 225 743 b 739 694 581 743 672 726 b 781 610 783 671 790 658 l 688 83 b 619 15 681 43 664 26 b 303 -21 526 -8 421 -21 b 36 311 88 -21 1 107 m 447 481 b 419 483 440 482 431 483 b 364 442 388 483 369 469 l 335 275 b 371 238 331 250 343 238 l 411 240 l 451 472 b 447 481 453 476 451 479 "},"Ă":{"ha":978,"x_min":0,"x_max":0,"o":"m 897 1196 b 606 1043 840 1094 743 1043 b 368 1196 468 1043 389 1094 b 401 1246 363 1219 374 1236 l 519 1288 b 571 1271 553 1299 558 1297 b 639 1233 585 1246 607 1233 b 717 1271 668 1233 694 1246 b 775 1288 739 1294 743 1299 l 881 1246 b 897 1196 907 1236 913 1224 m 921 60 b 867 0 928 19 910 0 l 678 0 b 583 64 607 0 588 18 l 576 135 l 315 135 l 283 64 b 172 0 263 18 238 0 l -28 0 b -56 60 -71 0 -78 19 l 408 936 b 492 986 429 976 447 986 l 697 986 b 764 938 740 986 757 975 m 542 499 b 546 661 538 561 542 621 l 550 690 l 536 690 b 481 500 525 622 507 560 l 429 388 l 553 388 "},"ă":{"ha":763,"x_min":0,"x_max":0,"o":"m 776 940 b 483 788 719 839 621 788 b 247 940 347 788 268 839 b 281 990 240 968 249 979 l 397 1032 b 450 1015 432 1043 438 1042 b 596 1015 478 965 551 965 b 653 1032 618 1039 624 1043 l 760 990 b 776 940 786 981 792 968 m 58 439 b 463 743 96 649 225 743 b 739 694 581 743 672 726 b 781 610 783 671 790 658 l 688 83 b 619 15 681 43 664 26 b 303 -21 526 -8 421 -21 b 36 311 88 -21 1 107 m 447 481 b 419 483 440 482 431 483 b 364 442 388 483 369 469 l 335 275 b 371 238 331 250 343 238 l 411 240 l 451 472 b 447 481 453 476 451 479 "},"Ą":{"ha":978,"x_min":0,"x_max":0,"o":"m 697 986 b 764 938 740 986 757 975 l 921 60 b 906 8 925 36 919 18 b 789 -150 832 -50 793 -103 b 808 -175 788 -167 793 -175 b 836 -167 815 -175 825 -172 b 869 -175 854 -156 865 -158 l 889 -249 b 869 -294 893 -268 888 -283 b 693 -342 818 -326 760 -342 b 550 -246 600 -342 551 -310 b 694 0 547 -167 596 -85 b 583 64 607 0 588 14 l 576 135 l 315 135 l 283 64 b 172 0 263 18 238 0 l -28 0 b -56 60 -71 0 -78 19 l 408 936 b 492 986 429 976 447 986 m 542 499 b 546 661 538 561 542 621 l 550 690 l 536 690 b 481 500 525 622 507 560 l 429 388 l 553 388 "},"ą":{"ha":764,"x_min":0,"x_max":0,"o":"m 58 439 b 463 743 96 649 225 743 b 739 694 581 743 672 726 b 781 610 783 671 790 658 l 688 83 b 665 36 683 63 676 47 b 539 -150 586 -36 543 -99 b 558 -175 538 -167 543 -175 b 586 -167 565 -175 575 -172 b 619 -175 604 -156 615 -158 l 639 -249 b 619 -294 643 -268 638 -283 b 443 -342 568 -326 510 -342 b 300 -246 347 -342 300 -310 b 425 -17 300 -168 342 -92 b 303 -21 386 -19 346 -21 b 36 311 88 -21 1 107 m 447 481 b 419 483 440 482 431 483 b 364 442 388 483 369 469 l 335 275 b 371 238 331 250 343 238 l 411 240 l 451 472 b 447 481 453 476 451 479 "},"Ć":{"ha":908,"x_min":0,"x_max":0,"o":"m 663 1278 b 754 1272 703 1299 733 1296 l 826 1172 b 808 1117 847 1146 842 1126 l 536 1047 b 472 1056 503 1038 482 1040 l 435 1114 b 447 1167 419 1135 424 1153 m 106 628 b 614 1007 149 874 329 1007 b 972 750 821 1007 940 921 b 922 672 982 707 968 688 l 739 610 b 667 649 693 597 676 604 b 567 728 656 706 632 728 b 424 606 472 728 440 694 l 383 381 b 483 258 368 292 389 258 b 614 338 540 258 585 285 b 699 376 640 382 658 392 l 879 307 b 904 228 922 292 928 271 b 439 -21 814 63 660 -21 b 131 94 299 -21 196 18 b 65 397 65 171 43 271 "},"ć":{"ha":722,"x_min":0,"x_max":0,"o":"m 493 1022 b 585 1019 533 1044 564 1043 l 661 924 b 644 868 682 896 676 878 l 374 789 b 310 794 340 779 319 781 l 268 851 b 281 904 253 872 257 890 m 58 439 b 463 743 94 642 229 743 b 744 540 633 743 724 663 b 693 464 751 497 738 479 l 529 411 b 457 449 481 396 467 406 b 410 493 450 486 436 493 b 363 443 385 493 369 476 l 335 279 b 363 231 329 247 339 231 b 422 274 389 231 401 236 b 507 310 446 317 467 325 l 672 258 b 696 178 711 246 719 219 b 319 -21 617 46 490 -21 b 36 310 90 -21 1 104 "},"Ĉ":{"ha":908,"x_min":0,"x_max":0,"o":"m 700 1285 b 799 1244 757 1285 769 1279 l 924 1096 b 896 1043 946 1072 940 1043 l 750 1043 b 653 1074 683 1043 668 1047 l 632 1113 l 596 1075 b 490 1043 568 1047 551 1043 l 353 1043 b 342 1096 306 1043 314 1071 l 518 1244 b 571 1278 540 1263 558 1274 b 639 1285 583 1282 607 1285 m 106 628 b 614 1007 149 874 329 1007 b 972 750 821 1007 940 921 b 922 672 982 707 968 688 l 739 610 b 667 649 693 597 676 604 b 567 728 656 706 632 728 b 424 606 472 728 440 694 l 383 381 b 483 258 368 292 389 258 b 614 338 540 258 585 285 b 699 376 640 382 658 392 l 879 307 b 904 228 922 292 928 271 b 439 -21 814 63 660 -21 b 131 94 299 -21 196 18 b 65 397 65 171 43 271 "},"ĉ":{"ha":722,"x_min":0,"x_max":0,"o":"m 758 842 b 729 789 781 818 774 789 l 593 789 b 497 819 526 789 513 793 l 476 858 l 439 821 b 333 789 413 793 394 789 l 197 789 b 188 842 151 789 158 818 l 364 990 b 417 1024 385 1008 403 1019 b 485 1031 429 1028 453 1031 l 535 1031 b 633 990 590 1031 601 1025 m 463 743 b 744 540 633 743 724 663 b 693 464 751 497 738 479 l 529 411 b 457 449 481 396 467 406 b 410 493 450 486 436 493 b 363 443 385 493 369 476 l 335 279 b 363 231 329 247 339 231 b 422 274 389 231 401 236 b 507 310 446 317 467 325 l 672 258 b 696 178 711 246 719 219 b 319 -21 617 46 490 -21 b 36 310 90 -21 1 104 l 58 439 b 463 743 94 642 229 743 "},"Ċ":{"ha":908,"x_min":0,"x_max":0,"o":"m 668 1288 b 763 1171 757 1288 778 1261 l 760 1160 b 625 1043 744 1069 715 1043 l 617 1043 b 519 1160 526 1043 504 1069 l 522 1171 b 660 1288 538 1261 569 1288 m 106 628 b 614 1007 149 874 329 1007 b 972 750 821 1007 940 921 b 922 672 982 707 968 688 l 739 610 b 667 649 693 597 676 604 b 567 728 656 706 632 728 b 424 606 472 728 440 694 l 383 381 b 483 258 368 292 389 258 b 614 338 540 258 585 285 b 699 376 640 382 658 392 l 879 307 b 904 228 922 292 928 271 b 439 -21 814 63 660 -21 b 131 94 299 -21 196 18 b 65 397 65 171 43 271 "},"ċ":{"ha":722,"x_min":0,"x_max":0,"o":"m 503 1036 b 597 919 592 1036 613 1010 l 594 908 b 460 792 579 818 550 792 l 451 792 b 354 908 361 792 339 818 l 357 919 b 494 1036 372 1010 404 1036 m 58 439 b 463 743 94 642 229 743 b 744 540 633 743 724 663 b 693 464 751 497 738 479 l 529 411 b 457 449 481 396 467 406 b 410 493 450 486 436 493 b 363 443 385 493 369 476 l 335 279 b 363 231 329 247 339 231 b 422 274 389 231 401 236 b 507 310 446 317 467 325 l 672 258 b 696 178 711 246 719 219 b 319 -21 617 46 490 -21 b 36 310 90 -21 1 104 "},"Č":{"ha":908,"x_min":0,"x_max":0,"o":"m 933 1286 b 939 1233 979 1286 968 1257 l 767 1085 b 715 1051 746 1067 728 1056 b 646 1044 703 1047 679 1044 l 596 1044 b 497 1085 539 1044 526 1050 l 376 1233 b 396 1286 353 1257 353 1286 l 546 1286 b 643 1256 611 1286 628 1282 l 665 1219 l 700 1254 b 806 1286 729 1282 744 1286 m 106 628 b 614 1007 149 874 329 1007 b 972 750 821 1007 940 921 b 922 672 982 707 968 688 l 739 610 b 667 649 693 597 676 604 b 567 728 656 706 632 728 b 424 606 472 728 440 694 l 383 381 b 483 258 368 292 389 258 b 614 338 540 258 585 285 b 699 376 640 382 658 392 l 879 307 b 904 228 922 292 928 271 b 439 -21 814 63 660 -21 b 131 94 299 -21 196 18 b 65 397 65 171 43 271 "},"č":{"ha":722,"x_min":0,"x_max":0,"o":"m 768 1029 b 772 976 814 1029 801 1000 l 600 828 b 549 794 579 810 561 799 b 479 788 536 790 513 788 l 429 788 b 331 828 372 788 360 793 l 210 976 b 231 1029 186 1000 188 1029 l 376 1029 b 472 999 442 1029 457 1025 l 494 963 l 531 997 b 636 1029 558 1025 575 1029 m 463 743 b 744 540 633 743 724 663 b 693 464 751 497 738 479 l 529 411 b 457 449 481 396 467 406 b 410 493 450 486 436 493 b 363 443 385 493 369 476 l 335 279 b 363 231 329 247 339 231 b 422 274 389 231 401 236 b 507 310 446 317 467 325 l 672 258 b 696 178 711 246 719 219 b 319 -21 617 46 490 -21 b 36 310 90 -21 1 104 l 58 439 b 463 743 94 642 229 743 "},"Ď":{"ha":944,"x_min":0,"x_max":0,"o":"m 867 1286 b 872 1233 913 1286 901 1257 l 700 1085 b 649 1051 679 1067 661 1056 b 579 1044 636 1047 613 1044 l 529 1044 b 431 1085 472 1044 460 1050 l 310 1233 b 329 1286 286 1257 286 1286 l 479 1286 b 576 1256 544 1286 561 1282 l 599 1219 l 633 1254 b 739 1286 663 1282 678 1286 m 572 986 b 878 868 711 986 813 947 b 940 558 943 789 964 686 l 908 379 b 399 0 865 131 686 0 l 47 0 b -3 61 1 0 -10 15 l 150 925 b 221 986 157 971 175 986 m 621 575 b 507 708 638 665 607 708 l 433 708 l 358 279 l 432 279 b 593 413 532 279 576 319 "},"ď":{"ha":931,"x_min":0,"x_max":0,"o":"m 61 449 b 439 743 99 656 221 743 b 499 742 454 743 486 742 l 540 972 b 606 1028 547 1013 563 1028 l 800 1028 b 846 972 840 1028 853 1015 l 693 113 b 619 31 686 64 674 51 b 314 -21 528 -4 426 -21 b 39 321 93 -21 1 115 m 1049 746 b 969 696 1032 706 1014 696 l 889 696 b 849 751 856 696 842 718 l 896 964 b 967 1028 907 1014 921 1028 l 1086 1028 b 1133 964 1135 1028 1150 1007 m 453 481 b 421 485 443 483 432 485 b 365 443 389 485 371 471 l 336 276 b 372 239 332 251 343 239 l 407 242 b 413 249 410 243 411 244 "},"Đ":{"ha":994,"x_min":0,"x_max":0,"o":"m 621 986 b 928 871 761 986 863 947 b 990 565 992 794 1013 692 l 958 386 b 447 0 915 138 732 0 l 96 0 b 46 61 50 0 39 15 l 103 388 l 46 388 b 17 425 18 388 11 396 l 40 558 b 83 596 44 583 60 596 l 140 596 l 199 925 b 269 986 206 971 224 986 m 669 575 b 556 708 686 665 656 708 l 482 708 l 463 596 l 543 596 b 572 558 571 596 578 588 l 549 425 b 506 388 543 396 533 388 l 425 388 l 407 279 l 481 279 b 642 413 581 279 625 319 "},"đ":{"ha":764,"x_min":0,"x_max":0,"o":"m 897 956 b 926 918 925 956 931 947 l 913 840 b 871 803 907 811 899 803 l 815 803 l 693 113 b 619 31 686 64 674 51 b 314 -21 528 -4 426 -21 b 38 311 92 -21 0 107 l 60 439 b 439 743 96 642 222 743 b 499 742 454 743 486 742 l 510 803 l 410 803 b 382 840 382 803 376 811 l 396 918 b 436 956 400 946 410 956 l 536 956 l 540 972 b 606 1028 547 1013 563 1028 l 800 1028 b 846 972 840 1028 853 1015 l 842 956 m 453 481 b 421 485 443 483 432 485 b 365 443 389 485 371 471 l 336 276 b 372 239 332 251 343 239 l 407 242 b 413 249 410 243 411 244 "},"Ē":{"ha":822,"x_min":0,"x_max":0,"o":"m 746 1251 b 790 1200 789 1251 797 1240 l 778 1129 b 715 1078 771 1089 758 1078 l 364 1078 b 322 1129 324 1078 315 1089 l 335 1200 b 394 1251 342 1240 357 1251 m 826 986 b 878 925 872 986 885 971 l 850 769 b 778 708 843 724 824 708 l 433 708 l 421 636 l 688 636 b 738 575 733 636 747 621 l 710 419 b 639 358 703 374 685 358 l 372 358 l 358 279 l 713 279 b 763 218 758 279 772 264 l 735 61 b 663 0 725 15 708 0 l 47 0 b -3 61 1 0 -10 15 l 150 925 b 221 986 157 971 175 986 "},"ē":{"ha":760,"x_min":0,"x_max":0,"o":"m 310 817 b 267 868 269 817 260 828 l 279 939 b 340 990 286 979 303 990 l 692 990 b 735 939 735 990 742 979 l 722 868 b 661 817 715 828 704 817 m 465 743 b 783 492 686 743 801 660 b 499 285 768 368 658 285 b 338 290 432 285 378 286 l 333 267 b 381 197 325 221 340 197 b 454 221 414 197 444 213 b 476 242 458 225 467 232 b 554 253 496 265 522 268 l 671 199 b 688 119 708 182 714 163 b 343 -21 621 26 506 -21 b 35 308 97 -21 0 108 l 58 443 b 465 743 92 632 239 743 m 485 504 b 438 543 489 531 472 543 b 371 482 401 543 379 522 l 368 468 b 426 465 390 467 410 465 b 485 504 461 465 481 478 "},"Ĕ":{"ha":822,"x_min":0,"x_max":0,"o":"m 826 1196 b 535 1043 769 1094 672 1043 b 297 1196 397 1043 318 1094 b 331 1246 292 1219 303 1236 l 449 1288 b 500 1271 482 1299 488 1297 b 568 1233 514 1246 536 1233 b 646 1271 597 1233 624 1246 b 704 1288 668 1294 672 1299 l 810 1246 b 826 1196 836 1236 842 1224 m 826 986 b 878 925 872 986 885 971 l 850 769 b 778 708 843 724 824 708 l 433 708 l 421 636 l 688 636 b 738 575 733 636 747 621 l 710 419 b 639 358 703 374 685 358 l 372 358 l 358 279 l 713 279 b 763 218 758 279 772 264 l 735 61 b 663 0 725 15 708 0 l 47 0 b -3 61 1 0 -10 15 l 150 925 b 221 986 157 971 175 986 "},"ĕ":{"ha":760,"x_min":0,"x_max":0,"o":"m 774 940 b 481 788 717 839 618 788 b 244 940 344 788 265 839 b 278 990 238 968 246 979 l 394 1032 b 447 1015 429 1043 435 1042 b 593 1015 475 965 549 965 b 650 1032 615 1039 621 1043 l 757 990 b 774 940 783 981 789 968 m 58 443 b 465 743 92 632 239 743 b 783 492 686 743 801 660 b 499 285 768 368 658 285 b 338 290 432 285 378 286 l 333 267 b 381 197 325 221 340 197 b 454 221 414 197 444 213 b 476 242 458 225 467 232 b 554 253 496 265 522 268 l 671 199 b 688 119 708 182 714 163 b 343 -21 621 26 506 -21 b 35 308 97 -21 0 108 m 485 504 b 438 543 489 531 472 543 b 371 482 401 543 379 522 l 368 468 b 426 465 390 467 410 465 b 485 504 461 465 481 478 "},"Ė":{"ha":822,"x_min":0,"x_max":0,"o":"m 582 1288 b 676 1171 671 1288 692 1261 l 674 1160 b 539 1043 658 1069 629 1043 l 531 1043 b 433 1160 440 1043 418 1069 l 436 1171 b 574 1288 451 1261 483 1288 m 826 986 b 878 925 872 986 885 971 l 850 769 b 778 708 843 724 824 708 l 433 708 l 421 636 l 688 636 b 738 575 733 636 747 621 l 710 419 b 639 358 703 374 685 358 l 372 358 l 358 279 l 713 279 b 763 218 758 279 772 264 l 735 61 b 663 0 725 15 708 0 l 47 0 b -3 61 1 0 -10 15 l 150 925 b 221 986 157 971 175 986 "},"ė":{"ha":760,"x_min":0,"x_max":0,"o":"m 529 1036 b 624 919 618 1036 639 1010 l 621 908 b 486 792 606 818 576 792 l 478 792 b 381 908 388 792 365 818 l 383 919 b 521 1036 399 1010 431 1036 m 58 443 b 465 743 92 632 239 743 b 783 492 686 743 801 660 b 499 285 768 368 658 285 b 338 290 432 285 378 286 l 333 267 b 381 197 325 221 340 197 b 454 221 414 197 444 213 b 476 242 458 225 467 232 b 554 253 496 265 522 268 l 671 199 b 688 119 708 182 714 163 b 343 -21 621 26 506 -21 b 35 308 97 -21 0 108 m 485 504 b 438 543 489 531 472 543 b 371 482 401 543 379 522 l 368 468 b 426 465 390 467 410 465 b 485 504 461 465 481 478 "},"Ę":{"ha":822,"x_min":0,"x_max":0,"o":"m 826 986 b 878 925 872 986 885 971 l 850 769 b 778 708 843 724 824 708 l 433 708 l 421 636 l 688 636 b 738 575 733 636 747 621 l 710 419 b 639 358 703 374 685 358 l 372 358 l 358 279 l 713 279 b 763 218 758 279 772 264 l 735 61 b 700 6 729 32 724 22 b 586 -150 629 -43 590 -96 b 606 -175 585 -167 590 -175 b 633 -167 613 -175 622 -172 b 667 -175 651 -156 663 -158 l 686 -249 b 667 -294 690 -268 685 -283 b 490 -342 615 -326 557 -342 b 347 -246 397 -342 349 -310 b 492 0 344 -167 393 -85 l 47 0 b -3 61 1 0 -10 15 l 150 925 b 221 986 157 971 175 986 "},"ę":{"ha":763,"x_min":0,"x_max":0,"o":"m 58 443 b 465 743 92 632 239 743 b 783 492 686 743 801 660 b 499 285 768 368 658 285 b 338 290 432 285 378 286 l 333 267 b 381 197 325 221 340 197 b 454 221 414 197 444 213 b 476 242 458 225 467 232 b 554 253 496 265 522 268 l 671 199 b 688 119 708 182 714 163 b 636 63 675 101 658 83 b 478 -150 535 -25 482 -96 b 497 -175 476 -167 482 -175 b 525 -167 504 -175 514 -172 b 558 -175 543 -156 554 -158 l 578 -249 b 558 -294 582 -268 576 -283 b 382 -342 507 -326 449 -342 b 239 -246 289 -342 240 -310 b 360 -21 236 -174 276 -99 l 343 -21 b 35 308 97 -21 0 108 m 426 465 b 485 504 461 465 481 478 b 438 543 489 531 472 543 b 371 482 401 543 379 522 l 368 468 b 426 465 390 467 410 465 "},"Ě":{"ha":822,"x_min":0,"x_max":0,"o":"m 847 1286 b 853 1233 893 1286 882 1257 l 681 1085 b 629 1051 660 1067 642 1056 b 560 1044 617 1047 593 1044 l 510 1044 b 411 1085 453 1044 440 1050 l 290 1233 b 310 1286 267 1257 267 1286 l 460 1286 b 557 1256 525 1286 542 1282 l 579 1219 l 614 1254 b 719 1286 643 1282 658 1286 m 826 986 b 878 925 872 986 885 971 l 850 769 b 778 708 843 724 824 708 l 433 708 l 421 636 l 688 636 b 738 575 733 636 747 621 l 710 419 b 639 358 703 374 685 358 l 372 358 l 358 279 l 713 279 b 763 218 758 279 772 264 l 735 61 b 663 0 725 15 708 0 l 47 0 b -3 61 1 0 -10 15 l 150 925 b 221 986 157 971 175 986 "},"ě":{"ha":760,"x_min":0,"x_max":0,"o":"m 794 1029 b 799 976 840 1029 828 1000 l 626 828 b 576 794 606 810 589 799 b 506 788 563 790 539 788 l 456 788 b 357 828 399 788 386 793 l 236 976 b 257 1029 213 1000 214 1029 l 403 1029 b 499 999 468 1029 483 1025 l 521 963 l 557 997 b 663 1029 585 1025 601 1029 m 465 743 b 783 492 686 743 801 660 b 499 285 768 368 658 285 b 338 290 432 285 378 286 l 333 267 b 381 197 325 221 340 197 b 454 221 414 197 444 213 b 476 242 458 225 467 232 b 554 253 496 265 522 268 l 671 199 b 688 119 708 182 714 163 b 343 -21 621 26 506 -21 b 35 308 97 -21 0 108 l 58 443 b 465 743 92 632 239 743 m 485 504 b 438 543 489 531 472 543 b 371 482 401 543 379 522 l 368 468 b 426 465 390 467 410 465 b 485 504 461 465 481 478 "},"Ĝ":{"ha":949,"x_min":0,"x_max":0,"o":"m 704 1299 b 803 1258 761 1299 774 1293 l 928 1110 b 900 1057 950 1086 944 1057 l 754 1057 b 657 1088 688 1057 672 1061 l 636 1126 l 600 1089 b 494 1057 572 1061 556 1057 l 357 1057 b 346 1110 310 1057 318 1085 l 522 1258 b 575 1292 544 1276 563 1288 b 643 1299 588 1296 611 1299 m 921 575 b 971 514 967 575 981 560 l 936 315 b 439 -21 899 108 718 -21 b 132 97 300 -21 197 18 b 67 406 67 176 44 279 l 106 628 b 611 1007 149 876 326 1007 b 975 749 821 1007 943 921 b 922 671 982 708 968 686 l 743 619 b 671 658 694 607 681 614 b 567 728 660 708 632 728 b 424 606 472 728 440 694 l 383 381 b 483 258 368 292 389 258 b 613 326 561 258 604 281 l 613 332 l 514 332 b 464 393 468 332 454 347 l 485 514 b 557 575 492 560 511 575 "},"ĝ":{"ha":765,"x_min":0,"x_max":0,"o":"m 782 842 b 753 789 804 818 797 789 l 617 789 b 521 819 550 789 536 793 l 500 858 l 463 821 b 357 789 436 793 418 789 l 221 789 b 211 842 175 789 182 818 l 388 990 b 440 1024 408 1008 426 1019 b 508 1031 453 1028 476 1031 l 558 1031 b 657 990 614 1031 625 1025 m 736 694 b 778 610 781 672 788 660 l 669 -4 b 271 -326 632 -219 499 -326 b -22 -171 122 -326 25 -275 b 22 -92 -37 -137 -24 -111 l 178 -22 b 246 -33 210 -7 232 -11 b 304 -81 256 -53 268 -81 b 360 -28 335 -81 353 -62 l 368 22 b 307 19 342 21 322 19 b 39 347 92 19 4 143 l 56 440 b 460 743 93 650 221 743 b 736 694 578 743 669 726 m 447 475 b 417 483 449 479 449 483 b 361 442 385 483 367 469 l 339 315 b 375 278 335 290 346 278 l 414 283 "},"Ğ":{"ha":949,"x_min":0,"x_max":0,"o":"m 917 1210 b 625 1057 860 1108 763 1057 b 388 1210 488 1057 408 1108 b 421 1260 382 1233 393 1250 l 539 1301 b 590 1285 572 1313 578 1311 b 658 1247 604 1260 626 1247 b 736 1285 688 1247 714 1260 b 794 1301 758 1308 763 1313 l 900 1260 b 917 1210 926 1250 932 1238 m 921 575 b 971 514 967 575 981 560 l 936 315 b 439 -21 899 108 718 -21 b 132 97 300 -21 197 18 b 67 406 67 176 44 279 l 106 628 b 611 1007 149 876 326 1007 b 975 749 821 1007 943 921 b 922 671 982 708 968 686 l 743 619 b 671 658 694 607 681 614 b 567 728 660 708 632 728 b 424 606 472 728 440 694 l 383 381 b 483 258 368 292 389 258 b 613 326 561 258 604 281 l 613 332 l 514 332 b 464 393 468 332 454 347 l 485 514 b 557 575 492 560 511 575 "},"ğ":{"ha":765,"x_min":0,"x_max":0,"o":"m 771 940 b 478 788 714 839 615 788 b 242 940 342 788 263 839 b 275 990 235 968 243 979 l 392 1032 b 444 1015 426 1043 432 1042 b 590 1015 472 965 546 965 b 647 1032 613 1039 618 1043 l 754 990 b 771 940 781 981 786 968 m 56 440 b 460 743 93 650 221 743 b 736 694 578 743 669 726 b 778 610 781 672 788 660 l 669 -4 b 271 -326 632 -219 499 -326 b -22 -171 122 -326 25 -275 b 22 -92 -37 -137 -24 -111 l 178 -22 b 246 -33 210 -7 232 -11 b 304 -81 256 -53 268 -81 b 360 -28 335 -81 353 -62 l 368 22 b 307 19 342 21 322 19 b 39 347 92 19 4 143 m 447 475 b 417 483 449 479 449 483 b 361 442 385 483 367 469 l 339 315 b 375 278 335 290 346 278 l 414 283 "},"Ġ":{"ha":949,"x_min":0,"x_max":0,"o":"m 672 1301 b 767 1185 761 1301 782 1275 l 764 1174 b 629 1057 749 1083 719 1057 l 621 1057 b 524 1174 531 1057 508 1083 l 526 1185 b 664 1301 542 1275 574 1301 m 921 575 b 971 514 967 575 981 560 l 936 315 b 439 -21 899 108 718 -21 b 132 97 300 -21 197 18 b 67 406 67 176 44 279 l 106 628 b 611 1007 149 876 326 1007 b 975 749 821 1007 943 921 b 922 671 982 708 968 686 l 743 619 b 671 658 694 607 681 614 b 567 728 660 708 632 728 b 424 606 472 728 440 694 l 383 381 b 483 258 368 292 389 258 b 613 326 561 258 604 281 l 613 332 l 514 332 b 464 393 468 332 454 347 l 485 514 b 557 575 492 560 511 575 "},"ġ":{"ha":765,"x_min":0,"x_max":0,"o":"m 526 1036 b 621 919 615 1036 636 1010 l 618 908 b 483 792 603 818 574 792 l 475 792 b 378 908 385 792 363 818 l 381 919 b 518 1036 396 1010 428 1036 m 56 440 b 460 743 93 650 221 743 b 736 694 578 743 669 726 b 778 610 781 672 788 660 l 669 -4 b 271 -326 632 -219 499 -326 b -22 -171 122 -326 25 -275 b 22 -92 -37 -137 -24 -111 l 178 -22 b 246 -33 210 -7 232 -11 b 304 -81 256 -53 268 -81 b 360 -28 335 -81 353 -62 l 368 22 b 307 19 342 21 322 19 b 39 347 92 19 4 143 m 447 475 b 417 483 449 479 449 483 b 361 442 385 483 367 469 l 339 315 b 375 278 335 290 346 278 l 414 283 "},"Ģ":{"ha":949,"x_min":0,"x_max":0,"o":"m 921 575 b 971 514 967 575 981 560 l 936 315 b 439 -21 899 108 718 -21 b 132 97 300 -21 197 18 b 67 406 67 176 44 279 l 106 628 b 611 1007 149 876 326 1007 b 975 749 821 1007 943 921 b 922 671 982 708 968 686 l 743 619 b 671 658 694 607 681 614 b 567 728 660 708 632 728 b 424 606 472 728 440 694 l 383 381 b 483 258 368 292 389 258 b 613 326 561 258 604 281 l 613 332 l 514 332 b 464 393 468 332 454 347 l 485 514 b 557 575 492 560 511 575 m 460 -315 b 385 -361 444 -346 419 -361 l 278 -361 b 246 -315 247 -361 236 -346 l 304 -122 b 378 -60 317 -78 335 -60 l 528 -58 b 564 -122 574 -58 586 -79 "},"ģ":{"ha":765,"x_min":0,"x_max":0,"o":"m 456 1024 b 535 1074 478 1064 492 1074 l 636 1074 b 674 1032 671 1074 683 1064 l 622 853 b 551 789 607 801 597 789 l 403 789 b 356 853 351 789 333 813 m 56 440 b 460 743 93 650 221 743 b 736 694 578 743 669 726 b 778 610 781 672 788 660 l 669 -4 b 271 -326 632 -219 499 -326 b -22 -171 122 -326 25 -275 b 22 -92 -37 -137 -24 -111 l 178 -22 b 246 -33 210 -7 232 -11 b 304 -81 256 -53 268 -81 b 360 -28 335 -81 353 -62 l 368 22 b 307 19 342 21 322 19 b 39 347 92 19 4 143 m 447 475 b 417 483 449 479 449 483 b 361 442 385 483 367 469 l 339 315 b 375 278 335 290 346 278 l 414 283 "},"Ĥ":{"ha":963,"x_min":0,"x_max":0,"o":"m 678 1285 b 776 1244 735 1285 747 1279 l 901 1096 b 874 1043 924 1072 918 1043 l 728 1043 b 631 1074 661 1043 646 1047 l 610 1113 l 574 1075 b 468 1043 546 1047 529 1043 l 331 1043 b 319 1096 283 1043 292 1071 l 496 1244 b 549 1278 518 1263 536 1274 b 617 1285 561 1282 585 1285 m 953 988 b 1003 926 999 988 1013 972 l 850 61 b 778 0 840 15 824 0 l 578 0 b 528 61 532 0 518 15 l 581 361 l 375 361 l 322 61 b 250 0 313 15 296 0 l 50 0 b 0 61 4 0 -10 15 l 153 926 b 225 988 163 972 179 988 l 425 988 b 475 926 471 988 482 972 l 424 639 l 629 639 l 681 926 b 753 988 690 972 707 988 "},"ĥ":{"ha":776,"x_min":0,"x_max":0,"o":"m 64 1081 b 54 1133 18 1081 25 1110 l 231 1282 b 283 1315 251 1300 269 1311 b 351 1322 296 1319 319 1322 l 401 1322 b 500 1282 457 1322 468 1317 l 625 1133 b 596 1081 647 1110 640 1081 l 460 1081 b 364 1111 393 1081 379 1085 l 343 1150 l 306 1113 b 200 1081 279 1085 261 1081 m 475 743 b 746 432 693 743 781 632 l 679 56 b 614 0 672 15 657 0 l 419 0 b 374 56 379 0 367 13 l 438 418 b 397 469 444 457 435 469 b 367 468 383 469 374 469 l 293 56 b 228 0 286 15 271 0 l 33 0 b -12 56 -7 0 -19 13 l 150 972 b 215 1028 157 1013 172 1028 l 410 1028 b 456 972 450 1028 463 1015 l 414 742 b 475 743 426 743 447 743 "},"Ħ":{"ha":1017,"x_min":0,"x_max":0,"o":"m 1069 886 b 1097 849 1097 886 1103 878 l 1081 757 b 1039 719 1075 728 1067 719 l 990 719 l 875 61 b 803 0 865 15 849 0 l 603 0 b 553 61 557 0 543 15 l 606 361 l 400 361 l 347 61 b 275 0 338 15 321 0 l 75 0 b 25 61 29 0 15 15 l 140 719 l 93 719 b 65 757 65 719 60 728 l 82 849 b 124 886 86 874 100 886 l 171 886 l 178 926 b 250 988 188 972 204 988 l 450 988 b 500 926 496 988 507 972 l 493 886 l 699 886 l 706 926 b 778 988 713 972 732 988 l 978 988 b 1028 926 1024 988 1038 972 l 1021 886 m 463 719 l 449 639 l 654 639 l 668 719 "},"ħ":{"ha":776,"x_min":0,"x_max":0,"o":"m 414 742 b 475 743 426 743 447 743 b 746 432 693 743 781 632 l 679 56 b 614 0 672 15 657 0 l 419 0 b 374 56 379 0 367 13 l 438 418 b 397 469 444 457 435 469 b 367 468 383 469 374 469 l 293 56 b 228 0 286 15 271 0 l 33 0 b -12 56 -7 0 -19 13 l 119 799 l 78 799 b 47 836 50 799 42 807 l 61 914 b 104 951 65 939 81 951 l 146 951 l 150 972 b 215 1028 157 1013 172 1028 l 410 1028 b 456 972 450 1028 463 1015 l 451 951 l 546 951 b 575 914 574 951 581 943 l 561 836 b 519 799 556 807 547 799 l 425 799 "},"Ĩ":{"ha":433,"x_min":0,"x_max":0,"o":"m 594 1271 b 622 1238 617 1271 626 1260 b 446 1060 600 1108 542 1060 b 326 1083 403 1060 363 1068 b 260 1107 290 1099 268 1107 b 238 1085 247 1107 240 1100 b 208 1060 235 1068 225 1060 l 101 1060 b 74 1093 78 1060 69 1071 b 247 1271 94 1211 151 1271 b 369 1247 292 1271 332 1263 b 438 1224 407 1232 429 1224 b 460 1246 450 1224 457 1231 b 489 1271 464 1263 474 1271 m 151 931 b 217 986 161 974 176 986 l 428 986 b 474 931 471 986 481 971 l 319 56 b 254 0 313 15 297 0 l 43 0 b -3 56 3 0 -10 13 "},"ĩ":{"ha":397,"x_min":0,"x_max":0,"o":"m 488 1025 b 510 990 506 1025 514 1014 b 354 807 488 868 436 807 b 257 832 318 807 286 815 b 204 856 228 847 211 856 b 186 832 194 856 189 847 b 161 807 182 815 174 807 l 69 807 b 47 842 51 807 43 818 b 201 1025 69 964 121 1025 b 299 1001 236 1025 269 1017 b 353 976 328 985 346 976 b 372 1000 363 976 369 985 b 397 1025 375 1017 383 1025 m 356 722 b 401 667 396 722 408 710 l 293 56 b 228 0 286 15 271 0 l 33 0 b -12 56 -7 0 -19 13 l 96 667 b 161 722 103 707 118 722 "},"Ī":{"ha":433,"x_min":0,"x_max":0,"o":"m 544 1251 b 589 1200 588 1251 596 1240 l 576 1129 b 514 1078 569 1089 557 1078 l 163 1078 b 121 1129 122 1078 114 1089 l 133 1200 b 193 1251 140 1240 156 1251 m 151 931 b 217 986 161 974 176 986 l 428 986 b 474 931 471 986 481 971 l 319 56 b 254 0 313 15 297 0 l 43 0 b -3 56 3 0 -10 13 "},"ī":{"ha":397,"x_min":0,"x_max":0,"o":"m 457 990 b 489 939 490 990 496 979 l 476 868 b 426 817 469 828 460 817 l 108 817 b 76 868 76 817 69 828 l 89 939 b 139 990 96 979 110 990 m 356 722 b 401 667 396 722 408 710 l 293 56 b 228 0 286 15 271 0 l 33 0 b -12 56 -7 0 -19 13 l 96 667 b 161 722 103 707 118 722 "},"Ĭ":{"ha":433,"x_min":0,"x_max":0,"o":"m 625 1196 b 333 1043 568 1094 471 1043 b 96 1196 196 1043 117 1094 b 129 1246 90 1219 101 1236 l 247 1288 b 299 1271 281 1299 286 1297 b 367 1233 313 1246 335 1233 b 444 1271 396 1233 422 1246 b 503 1288 467 1294 471 1299 l 608 1246 b 625 1196 635 1236 640 1224 m 151 931 b 217 986 161 974 176 986 l 428 986 b 474 931 471 986 481 971 l 319 56 b 254 0 313 15 297 0 l 43 0 b -3 56 3 0 -10 13 "},"ĭ":{"ha":397,"x_min":0,"x_max":0,"o":"m 546 990 b 563 940 572 981 578 968 b 269 788 506 839 407 788 b 33 940 133 788 54 839 b 67 990 26 968 35 979 l 183 1032 b 236 1015 218 1043 224 1042 b 382 1015 264 965 338 965 b 439 1032 404 1039 410 1043 m 356 722 b 401 667 396 722 408 710 l 293 56 b 228 0 286 15 271 0 l 33 0 b -12 56 -7 0 -19 13 l 96 667 b 161 722 103 707 118 722 "},"Į":{"ha":433,"x_min":0,"x_max":0,"o":"m 278 -249 b 258 -294 282 -268 276 -283 b 82 -342 207 -326 149 -342 b -61 -236 4 -342 -60 -314 b 76 0 -64 -160 -18 -82 b -1 68 3 0 -11 17 l 150 931 b 215 986 160 974 175 986 l 426 986 b 472 931 469 986 479 971 l 318 56 b 289 6 314 29 304 13 b 178 -150 218 -50 182 -101 b 197 -175 176 -167 182 -175 b 225 -167 204 -175 214 -172 b 258 -175 243 -156 254 -158 "},"į":{"ha":397,"x_min":0,"x_max":0,"o":"m 213 778 b 124 885 131 778 108 803 l 126 900 b 253 1007 142 982 171 1007 l 361 1007 b 449 900 443 1007 464 982 l 446 885 b 321 778 431 803 403 778 m 254 -249 b 235 -294 258 -268 253 -283 b 58 -342 183 -326 125 -342 b -85 -246 -35 -342 -83 -310 b 56 0 -87 -165 -40 -83 b -12 65 -10 0 -22 15 l 94 667 b 160 722 101 707 117 722 l 354 722 b 400 667 394 722 407 710 l 292 56 b 267 8 288 32 279 15 b 154 -150 196 -49 158 -101 b 174 -175 153 -167 158 -175 b 201 -167 181 -175 190 -172 b 235 -175 219 -156 231 -158 "},"İ":{"ha":433,"x_min":0,"x_max":0,"o":"m 381 1288 b 475 1171 469 1288 490 1261 l 472 1160 b 338 1043 457 1069 428 1043 l 329 1043 b 232 1160 239 1043 217 1069 l 235 1171 b 372 1288 250 1261 282 1288 m 151 931 b 217 986 161 974 176 986 l 428 986 b 474 931 471 986 481 971 l 319 56 b 254 0 313 15 297 0 l 43 0 b -3 56 3 0 -10 13 "},"ı":{"ha":397,"x_min":0,"x_max":0,"o":"m 356 722 b 401 667 396 722 408 710 l 293 56 b 228 0 286 15 271 0 l 33 0 b -12 56 -7 0 -19 13 l 96 667 b 161 722 103 707 118 722 "},"Ĳ":{"ha":1251,"x_min":0,"x_max":0,"o":"m 1249 988 b 1297 928 1293 988 1304 972 l 1192 326 b 747 -21 1149 92 1007 -21 b 410 225 554 -21 442 61 b 463 303 403 268 417 288 l 635 361 b 711 328 681 378 701 371 b 792 257 724 281 750 257 b 872 349 836 257 863 288 l 975 928 b 1046 988 985 972 1000 988 m 151 931 b 217 986 161 974 176 986 l 428 986 b 474 931 471 986 481 971 l 319 56 b 254 0 313 15 297 0 l 43 0 b -3 56 3 0 -10 13 "},"ĳ":{"ha":800,"x_min":0,"x_max":0,"o":"m 363 1007 b 450 900 444 1007 465 982 l 447 885 b 322 778 432 803 404 778 l 214 778 b 125 885 132 778 110 803 l 128 900 b 254 1007 143 982 172 1007 m 764 1007 b 851 900 846 1007 867 982 l 849 885 b 724 778 833 803 806 778 l 615 778 b 526 885 533 778 511 803 l 529 900 b 656 1007 544 982 574 1007 m 356 722 b 401 667 396 722 408 710 l 293 56 b 228 0 286 15 271 0 l 33 0 b -12 56 -7 0 -19 13 l 96 667 b 161 722 103 707 118 722 m 756 722 b 803 667 799 722 810 710 l 682 -17 b 260 -319 643 -235 510 -319 b 213 -262 217 -319 206 -306 l 239 -114 b 306 -57 246 -71 263 -57 b 381 8 349 -57 374 -35 l 497 667 b 564 722 504 710 521 722 "},"Ĵ":{"ha":814,"x_min":0,"x_max":0,"o":"m 799 1285 b 897 1244 856 1285 868 1279 l 1022 1096 b 994 1043 1044 1072 1039 1043 l 849 1043 b 751 1074 782 1043 767 1047 l 731 1113 l 694 1075 b 589 1043 667 1047 650 1043 l 451 1043 b 440 1096 404 1043 413 1071 l 617 1244 b 669 1278 639 1263 657 1274 b 738 1285 682 1282 706 1285 m 811 988 b 860 928 856 988 867 972 l 754 326 b 310 -21 711 92 569 -21 b -28 225 117 -21 4 61 b 25 303 -35 268 -21 288 l 197 361 b 274 328 243 378 264 371 b 354 257 286 281 313 257 b 435 349 397 257 425 288 l 538 928 b 608 988 547 972 563 988 "},"ĵ":{"ha":399,"x_min":0,"x_max":0,"o":"m 340 1024 b 438 985 396 1024 406 1018 l 560 839 b 531 788 582 815 575 788 l 400 788 b 306 817 335 788 321 793 l 285 856 l 249 818 b 146 788 225 792 206 788 l 11 788 b 1 839 -32 788 -28 813 l 174 985 b 224 1017 194 1001 211 1013 b 292 1024 236 1021 260 1024 m 354 722 b 401 667 397 722 408 710 l 281 -17 b -142 -319 242 -235 108 -319 b -189 -262 -185 -319 -196 -306 l -162 -114 b -96 -57 -156 -71 -139 -57 b -21 8 -53 -57 -28 -35 l 96 667 b 163 722 103 710 119 722 "},"Ķ":{"ha":926,"x_min":0,"x_max":0,"o":"m 864 76 b 808 0 879 32 857 0 l 621 0 b 501 65 543 0 519 11 l 431 299 b 383 357 418 338 403 357 l 371 357 l 319 61 b 247 0 313 15 293 0 l 47 0 b -3 61 1 0 -10 15 l 150 925 b 221 986 157 971 175 986 l 421 986 b 472 925 467 986 479 971 l 421 636 l 436 636 l 446 636 l 653 931 b 699 976 669 954 685 969 b 774 986 711 983 736 986 l 972 986 b 999 919 1017 986 1028 960 l 701 497 b 739 432 717 482 729 460 m 415 -315 b 340 -361 400 -346 375 -361 l 233 -361 b 201 -315 203 -361 192 -346 l 260 -122 b 333 -60 272 -78 290 -60 l 483 -58 b 519 -122 529 -58 542 -79 "},"ķ":{"ha":790,"x_min":0,"x_max":0,"o":"m 711 78 b 646 0 729 26 708 0 l 488 0 b 388 57 417 0 394 11 l 364 221 b 331 250 361 240 350 250 l 326 250 l 292 56 b 228 0 285 15 268 0 l 32 0 b -12 56 -8 0 -19 13 l 150 972 b 214 1028 157 1015 174 1028 l 410 1028 b 454 972 450 1028 461 1013 l 368 485 l 383 485 l 390 485 l 499 664 b 611 722 526 710 550 722 l 764 722 b 801 647 821 722 833 697 l 622 364 l 632 338 m 356 -278 b 268 -328 333 -318 313 -328 l 167 -328 b 136 -286 133 -328 126 -318 l 178 -118 b 260 -54 190 -68 210 -54 l 408 -54 b 444 -118 458 -54 468 -75 "},"ĸ":{"ha":793,"x_min":0,"x_max":0,"o":"m 715 74 b 651 0 725 22 708 0 l 493 0 b 393 56 421 0 404 11 l 360 210 l 310 157 l 293 58 b 224 0 286 14 268 0 l 35 0 b -12 58 -10 0 -22 14 l 94 665 b 163 722 101 708 118 722 l 351 722 b 400 665 396 722 407 708 l 383 571 l 471 668 b 579 722 510 713 525 722 l 789 722 b 813 658 840 722 846 690 l 631 464 "},"Ĺ":{"ha":764,"x_min":0,"x_max":0,"o":"m 376 1278 b 468 1272 417 1299 447 1296 l 540 1172 b 522 1117 561 1146 556 1126 l 250 1047 b 186 1056 217 1038 196 1040 l 149 1114 b 161 1167 133 1135 138 1153 m 424 986 b 475 925 469 986 482 971 l 361 279 l 671 279 b 721 218 717 279 728 264 l 693 61 b 621 0 686 15 667 0 l 50 0 b 0 61 4 0 -10 15 l 153 925 b 224 986 160 971 178 986 "},"ĺ":{"ha":399,"x_min":0,"x_max":0,"o":"m 367 1336 b 457 1333 411 1360 442 1358 l 522 1228 b 506 1172 540 1200 542 1181 l 203 1088 b 139 1093 168 1076 150 1076 l 101 1156 b 114 1208 86 1179 90 1197 m 293 56 b 228 0 286 15 271 0 l 33 0 b -12 56 -7 0 -19 13 l 150 972 b 215 1028 157 1013 172 1028 l 410 1028 b 456 972 450 1028 463 1015 "},"Ļ":{"ha":764,"x_min":0,"x_max":0,"o":"m 424 986 b 475 925 469 986 482 971 l 361 279 l 671 279 b 721 218 717 279 728 264 l 693 61 b 621 0 686 15 667 0 l 50 0 b 0 61 4 0 -10 15 l 153 925 b 224 986 160 971 178 986 m 331 -315 b 256 -361 315 -346 290 -361 l 149 -361 b 117 -315 118 -361 107 -346 l 175 -122 b 249 -60 188 -78 206 -60 l 399 -58 b 435 -122 444 -58 457 -79 "},"ļ":{"ha":399,"x_min":0,"x_max":0,"o":"m 293 56 b 228 0 286 15 271 0 l 33 0 b -12 56 -7 0 -19 13 l 150 972 b 215 1028 157 1013 172 1028 l 410 1028 b 456 972 450 1028 463 1015 m 146 -289 b 58 -339 124 -329 103 -339 l -51 -339 b -82 -297 -85 -339 -89 -329 l -40 -121 b 42 -57 -28 -71 -8 -57 l 199 -57 b 235 -121 249 -57 258 -78 "},"Ľ":{"ha":781,"x_min":0,"x_max":0,"o":"m 424 986 b 475 925 469 986 482 971 l 361 279 l 671 279 b 721 218 717 279 728 264 l 693 61 b 621 0 686 15 667 0 l 50 0 b 0 61 4 0 -10 15 l 153 925 b 224 986 160 971 178 986 m 732 715 b 653 665 710 675 697 665 l 547 665 b 519 703 518 665 513 674 l 585 929 b 658 986 600 974 614 986 l 814 986 b 853 929 864 986 875 967 "},"ľ":{"ha":556,"x_min":0,"x_max":0,"o":"m 671 768 b 600 718 653 728 643 718 l 503 718 b 469 756 471 718 463 728 l 518 972 b 582 1029 528 1017 539 1029 l 715 1029 b 764 972 765 1029 782 1010 m 293 56 b 228 0 286 15 271 0 l 33 0 b -12 56 -7 0 -19 13 l 150 972 b 215 1028 157 1013 172 1028 l 410 1028 b 456 972 450 1028 463 1015 "},"Ŀ":{"ha":771,"x_min":0,"x_max":0,"o":"m 424 986 b 475 925 469 986 482 971 l 361 279 l 671 279 b 721 218 717 279 728 264 l 693 61 b 621 0 686 15 667 0 l 50 0 b 0 61 4 0 -10 15 l 153 925 b 224 986 160 971 178 986 m 685 721 b 771 618 763 721 783 696 l 757 540 b 635 439 742 464 714 439 l 563 439 b 476 540 485 439 464 464 l 490 618 b 611 721 506 696 533 721 "},"ŀ":{"ha":736,"x_min":0,"x_max":0,"o":"m 293 56 b 228 0 286 15 271 0 l 33 0 b -12 56 -7 0 -19 13 l 150 972 b 215 1028 157 1013 172 1028 l 410 1028 b 456 972 450 1028 463 1015 m 658 681 b 753 567 746 681 768 651 l 738 482 b 604 369 722 397 689 369 l 524 369 b 429 482 436 369 414 397 l 444 567 b 578 681 460 654 493 681 "},"Ł":{"ha":838,"x_min":0,"x_max":0,"o":"m 750 279 b 800 218 796 279 807 264 l 772 61 b 700 0 765 15 746 0 l 129 0 b 79 61 83 0 69 15 l 129 344 l 75 322 b 18 340 46 310 26 315 l -6 418 b 22 469 -12 442 -4 460 l 161 528 l 232 925 b 303 986 239 971 257 986 l 503 986 b 554 925 549 986 561 971 l 508 671 l 658 733 b 715 715 688 746 707 740 l 739 638 b 713 586 746 614 738 596 l 476 489 l 440 279 "},"ł":{"ha":542,"x_min":0,"x_max":0,"o":"m 599 613 b 574 560 607 590 599 572 l 450 500 l 371 56 b 306 0 364 15 349 0 l 111 0 b 65 56 71 0 58 13 l 115 338 l 83 322 b 26 336 56 307 36 313 l 0 399 b 24 451 -8 421 0 439 l 146 510 l 228 972 b 293 1028 235 1013 250 1028 l 488 1028 b 533 972 528 1028 540 1015 l 479 672 l 515 689 b 572 675 543 704 563 699 "},"Ń":{"ha":976,"x_min":0,"x_max":0,"o":"m 649 1278 b 740 1272 689 1299 719 1296 l 813 1172 b 794 1117 833 1146 828 1126 l 522 1047 b 458 1056 489 1038 468 1040 l 421 1114 b 433 1167 406 1135 410 1153 m 963 986 b 1014 925 1008 986 1021 971 l 861 61 b 789 0 851 15 835 0 l 596 0 b 542 29 569 0 551 10 l 429 279 b 386 394 408 324 394 363 b 356 589 378 426 368 490 l 344 589 b 349 365 349 478 350 403 b 325 185 347 326 339 267 l 303 61 b 231 0 296 15 276 0 l 47 0 b -3 61 1 0 -10 15 l 150 925 b 221 986 157 971 175 986 l 428 986 b 483 958 456 986 474 976 l 611 664 b 683 404 635 610 658 524 l 696 404 b 671 642 681 531 672 610 b 686 799 669 674 674 725 l 708 925 b 779 986 715 971 733 986 "},"ń":{"ha":774,"x_min":0,"x_max":0,"o":"m 493 1022 b 585 1019 533 1044 564 1043 l 661 924 b 644 868 682 896 676 878 l 374 789 b 310 794 340 779 319 781 l 268 851 b 281 904 253 872 257 890 m 157 689 b 472 743 253 725 358 743 b 743 432 690 743 778 632 l 676 56 b 611 0 669 15 654 0 l 417 0 b 371 56 376 0 364 13 l 435 418 b 394 469 442 457 432 469 b 368 468 382 469 374 469 b 363 463 364 467 363 465 l 290 56 b 225 0 283 15 268 0 l 31 0 b -15 56 -10 0 -22 13 l 82 603 b 157 689 92 653 106 671 "},"Ņ":{"ha":976,"x_min":0,"x_max":0,"o":"m 963 986 b 1014 925 1008 986 1021 971 l 861 61 b 789 0 851 15 835 0 l 596 0 b 542 29 569 0 551 10 l 429 279 b 386 394 408 324 394 363 b 356 589 378 426 368 490 l 344 589 b 349 365 349 478 350 403 b 325 185 347 326 339 267 l 303 61 b 231 0 296 15 276 0 l 47 0 b -3 61 1 0 -10 15 l 150 925 b 221 986 157 971 175 986 l 428 986 b 483 958 456 986 474 976 l 611 664 b 683 404 635 610 658 524 l 696 404 b 671 642 681 531 672 610 b 686 799 669 674 674 725 l 708 925 b 779 986 715 971 733 986 m 447 -315 b 372 -361 432 -346 407 -361 l 265 -361 b 233 -315 235 -361 224 -346 l 292 -122 b 365 -60 304 -78 322 -60 l 515 -58 b 551 -122 561 -58 574 -79 "},"ņ":{"ha":774,"x_min":0,"x_max":0,"o":"m 157 689 b 472 743 253 725 358 743 b 743 432 690 743 778 632 l 676 56 b 611 0 669 15 654 0 l 417 0 b 371 56 376 0 364 13 l 435 418 b 394 469 442 457 432 469 b 368 468 382 469 374 469 b 363 463 364 467 363 465 l 290 56 b 225 0 283 15 268 0 l 31 0 b -15 56 -10 0 -22 13 l 82 603 b 157 689 92 653 106 671 m 342 -274 b 253 -324 319 -314 297 -324 l 151 -324 b 122 -282 118 -324 113 -314 l 171 -104 b 253 -40 183 -54 204 -40 l 401 -40 b 438 -104 451 -40 461 -61 "},"Ň":{"ha":976,"x_min":0,"x_max":0,"o":"m 919 1286 b 925 1233 965 1286 954 1257 l 753 1085 b 701 1051 732 1067 714 1056 b 632 1044 689 1047 665 1044 l 582 1044 b 483 1085 525 1044 513 1050 l 363 1233 b 382 1286 339 1257 339 1286 l 532 1286 b 629 1256 597 1286 614 1282 l 651 1219 l 686 1254 b 792 1286 715 1282 731 1286 m 963 986 b 1014 925 1008 986 1021 971 l 861 61 b 789 0 851 15 835 0 l 596 0 b 542 29 569 0 551 10 l 429 279 b 386 394 408 324 394 363 b 356 589 378 426 368 490 l 344 589 b 349 365 349 478 350 403 b 325 185 347 326 339 267 l 303 61 b 231 0 296 15 276 0 l 47 0 b -3 61 1 0 -10 15 l 150 925 b 221 986 157 971 175 986 l 428 986 b 483 958 456 986 474 976 l 611 664 b 683 404 635 610 658 524 l 696 404 b 671 642 681 531 672 610 b 686 799 669 674 674 725 l 708 925 b 779 986 715 971 733 986 "},"ň":{"ha":774,"x_min":0,"x_max":0,"o":"m 768 1029 b 772 976 814 1029 801 1000 l 600 828 b 549 794 579 810 561 799 b 479 788 536 790 513 788 l 429 788 b 331 828 372 788 360 793 l 210 976 b 231 1029 186 1000 188 1029 l 376 1029 b 472 999 442 1029 457 1025 l 494 963 l 531 997 b 636 1029 558 1025 575 1029 m 472 743 b 743 432 690 743 778 632 l 676 56 b 611 0 669 15 654 0 l 417 0 b 371 56 376 0 364 13 l 435 418 b 394 469 442 457 432 469 b 368 468 382 469 374 469 b 363 463 364 467 363 465 l 290 56 b 225 0 283 15 268 0 l 31 0 b -15 56 -10 0 -22 13 l 82 603 b 157 689 92 653 106 671 b 472 743 253 725 358 743 "},"ŉ":{"ha":774,"x_min":0,"x_max":0,"o":"m 240 776 b 163 740 214 744 203 740 l 29 740 b 3 776 0 740 -8 753 l 92 971 b 164 1019 110 1010 121 1019 l 351 1019 b 388 963 400 1019 414 994 m 157 689 b 472 743 253 725 358 743 b 743 432 690 743 778 632 l 676 56 b 611 0 669 15 654 0 l 417 0 b 371 56 376 0 364 13 l 435 418 b 394 469 442 457 432 469 b 368 468 382 469 374 469 b 363 463 364 467 363 465 l 290 56 b 225 0 283 15 268 0 l 31 0 b -15 56 -10 0 -22 13 l 82 603 b 157 689 92 653 106 671 "},"Ŋ":{"ha":976,"x_min":0,"x_max":0,"o":"m 963 986 b 1014 925 1008 986 1021 971 l 847 -17 b 425 -319 808 -235 675 -319 b 378 -262 382 -319 371 -306 l 404 -114 b 471 -57 411 -71 428 -57 b 546 7 514 -57 539 -36 l 547 13 l 429 279 b 386 397 408 328 393 367 b 356 589 378 426 368 490 l 344 589 b 349 365 349 478 350 403 b 325 185 347 326 339 267 l 303 61 b 231 0 296 15 276 0 l 47 0 b -3 61 1 0 -10 15 l 150 925 b 221 986 157 971 175 986 l 424 986 b 479 958 451 986 469 976 l 607 664 b 638 586 622 629 629 617 b 647 549 642 571 644 558 b 660 489 649 539 653 519 b 679 404 667 458 672 431 l 692 404 b 667 642 676 531 668 610 b 682 799 665 674 669 725 l 704 925 b 775 986 711 971 729 986 "},"ŋ":{"ha":775,"x_min":0,"x_max":0,"o":"m 157 689 b 472 743 253 725 358 743 b 743 432 690 743 778 632 l 664 -17 b 242 -319 625 -235 492 -319 b 194 -262 199 -319 188 -306 l 221 -114 b 288 -57 228 -71 244 -57 b 363 8 331 -57 356 -35 l 435 418 b 394 469 442 457 432 469 b 368 468 382 469 374 469 b 363 463 364 467 363 465 l 290 56 b 225 0 283 15 268 0 l 31 0 b -15 56 -10 0 -22 13 l 82 603 b 157 689 92 653 106 671 "},"Ō":{"ha":957,"x_min":0,"x_max":0,"o":"m 836 1265 b 881 1214 879 1265 888 1254 l 868 1143 b 806 1092 861 1103 849 1092 l 454 1092 b 413 1143 414 1092 406 1103 l 425 1214 b 485 1265 432 1254 447 1265 m 104 618 b 611 1007 147 868 328 1007 b 919 892 751 1007 854 968 b 985 586 985 815 1007 713 l 946 364 b 439 -21 901 115 724 -21 b 131 93 299 -21 196 17 b 65 396 65 168 43 269 m 668 622 b 567 728 681 690 644 728 b 426 622 486 728 439 693 l 381 364 b 483 258 369 293 404 258 b 622 364 565 258 611 293 "},"ō":{"ha":769,"x_min":0,"x_max":0,"o":"m 303 817 b 260 868 263 817 253 828 l 272 939 b 333 990 279 979 296 990 l 685 990 b 728 939 728 990 735 979 l 715 868 b 654 817 708 828 697 817 m 465 743 b 767 418 697 743 800 618 l 744 285 b 332 -21 710 89 567 -21 b 33 307 104 -21 0 107 l 56 440 b 465 743 90 636 232 743 m 467 440 b 421 486 472 471 457 486 b 360 440 386 486 365 471 l 332 282 b 376 238 326 253 342 238 b 439 282 413 238 433 253 "},"Ŏ":{"ha":957,"x_min":0,"x_max":0,"o":"m 917 1210 b 625 1057 860 1108 763 1057 b 388 1210 488 1057 408 1108 b 421 1260 382 1233 393 1250 l 539 1301 b 590 1285 572 1313 578 1311 b 658 1247 604 1260 626 1247 b 736 1285 688 1247 714 1260 b 794 1301 758 1308 763 1313 l 900 1260 b 917 1210 926 1250 932 1238 m 104 618 b 611 1007 147 868 328 1007 b 919 892 751 1007 854 968 b 985 586 985 815 1007 713 l 946 364 b 439 -21 901 115 724 -21 b 131 93 299 -21 196 17 b 65 396 65 168 43 269 m 668 622 b 567 728 681 690 644 728 b 426 622 486 728 439 693 l 381 364 b 483 258 369 293 404 258 b 622 364 565 258 611 293 "},"ŏ":{"ha":769,"x_min":0,"x_max":0,"o":"m 767 940 b 474 788 710 839 611 788 b 238 940 338 788 258 839 b 271 990 231 968 239 979 l 388 1032 b 440 1015 422 1043 428 1042 b 586 1015 468 965 542 965 b 643 1032 608 1039 614 1043 l 750 990 b 767 940 776 981 782 968 m 56 440 b 465 743 90 636 232 743 b 767 418 697 743 800 618 l 744 285 b 332 -21 710 89 567 -21 b 33 307 104 -21 0 107 m 467 440 b 421 486 472 471 457 486 b 360 440 386 486 365 471 l 332 282 b 376 238 326 253 342 238 b 439 282 413 238 433 253 "},"Ő":{"ha":957,"x_min":0,"x_max":0,"o":"m 485 1264 b 586 1301 514 1296 547 1308 l 700 1281 b 704 1219 738 1275 738 1242 l 510 1079 b 443 1058 485 1061 463 1054 l 360 1071 b 351 1126 326 1076 328 1103 m 789 1264 b 890 1297 819 1294 853 1306 l 1006 1268 b 1008 1206 1043 1258 1043 1228 l 807 1078 b 740 1057 782 1060 760 1053 l 658 1074 b 653 1129 624 1079 629 1106 m 104 618 b 611 1007 147 868 328 1007 b 919 892 751 1007 854 968 b 985 586 985 815 1007 713 l 946 364 b 439 -21 901 115 724 -21 b 131 93 299 -21 196 17 b 65 396 65 168 43 269 m 668 622 b 567 728 681 690 644 728 b 426 622 486 728 439 693 l 381 364 b 483 258 369 293 404 258 b 622 364 565 258 611 293 "},"ő":{"ha":769,"x_min":0,"x_max":0,"o":"m 210 800 b 201 856 174 806 179 832 l 333 993 b 435 1031 363 1025 397 1038 l 549 1010 b 554 949 586 1004 588 971 l 360 808 b 292 788 333 790 311 783 m 856 997 b 858 935 893 988 893 957 l 657 807 b 589 786 631 789 607 782 l 507 803 b 501 858 475 808 475 835 l 638 993 b 739 1026 669 1025 703 1036 m 465 743 b 767 418 697 743 800 618 l 744 285 b 332 -21 710 89 567 -21 b 33 307 104 -21 0 107 l 56 440 b 465 743 90 636 232 743 m 467 440 b 421 486 472 471 457 486 b 360 440 386 486 365 471 l 332 282 b 376 238 326 253 342 238 b 439 282 413 238 433 253 "},"Œ":{"ha":1246,"x_min":0,"x_max":0,"o":"m 1164 279 b 1214 218 1210 279 1221 264 l 1186 61 b 1114 0 1176 15 1160 0 l 618 0 b 433 -21 572 -14 510 -21 b 128 93 293 -21 192 17 b 64 396 63 168 42 269 l 103 618 b 614 1007 146 867 329 1007 b 775 986 674 1007 728 1000 l 1278 986 b 1329 925 1324 986 1336 971 l 1301 769 b 1229 708 1292 724 1275 708 l 954 708 l 942 636 l 1139 636 b 1189 575 1185 636 1196 621 l 1161 419 b 1090 358 1154 374 1136 358 l 893 358 l 879 279 m 379 364 b 482 258 368 293 403 258 b 556 274 508 258 533 264 l 633 713 b 565 728 615 722 592 728 b 425 622 485 728 438 693 "},"œ":{"ha":1081,"x_min":0,"x_max":0,"o":"m 629 675 b 836 743 690 721 760 743 b 1104 492 1040 743 1132 653 b 826 285 1082 364 972 285 b 681 290 767 285 718 286 l 676 267 b 717 196 668 219 682 196 b 785 221 749 196 776 213 l 806 242 b 876 253 824 265 833 271 l 986 196 b 1000 117 1018 179 1024 153 b 675 -21 940 25 832 -21 b 506 42 606 -21 549 0 b 315 -21 451 0 389 -21 b 38 311 94 -21 3 107 l 60 444 b 440 743 94 643 222 743 b 629 675 518 743 581 721 m 818 504 b 779 543 822 526 808 543 b 721 482 747 543 728 522 l 719 471 b 769 468 740 469 757 468 b 818 504 799 468 814 481 m 435 446 b 404 486 439 472 428 486 b 365 446 382 486 369 472 l 335 276 b 360 238 331 250 339 238 b 404 276 386 238 400 250 "},"Ŕ":{"ha":925,"x_min":0,"x_max":0,"o":"m 590 1278 b 682 1272 631 1299 661 1296 l 754 1172 b 736 1117 775 1146 769 1126 l 464 1047 b 400 1056 431 1038 410 1040 l 363 1114 b 375 1167 347 1135 351 1153 m 628 986 b 929 628 849 986 968 851 b 740 350 907 504 844 411 b 774 279 753 329 764 306 l 844 76 b 789 0 860 32 838 0 l 601 0 b 476 79 528 0 492 24 l 429 246 b 369 306 418 282 413 300 l 363 306 l 319 61 b 247 0 313 15 293 0 l 47 0 b -3 61 1 0 -10 15 l 150 925 b 221 986 157 971 175 986 m 597 640 b 540 708 607 681 585 708 l 433 708 l 408 567 l 515 567 b 597 640 558 567 590 597 "},"ŕ":{"ha":507,"x_min":0,"x_max":0,"o":"m 378 1022 b 469 1019 418 1044 449 1043 l 546 924 b 529 868 567 896 561 878 l 258 789 b 194 794 225 779 204 781 l 153 851 b 165 904 138 872 142 890 m 461 743 l 503 743 b 549 688 546 743 556 728 l 524 539 b 458 483 514 496 499 483 l 404 483 b 372 482 390 483 379 483 b 364 474 368 482 365 479 l 290 56 b 225 0 283 15 268 0 l 31 0 b -15 56 -10 0 -22 13 l 83 610 b 158 697 93 660 107 679 b 461 743 231 724 332 739 "},"Ŗ":{"ha":925,"x_min":0,"x_max":0,"o":"m 628 986 b 929 628 849 986 968 851 b 740 350 907 504 844 411 b 774 279 753 329 764 306 l 844 76 b 789 0 860 32 838 0 l 601 0 b 476 79 528 0 492 24 l 429 246 b 369 306 418 282 413 300 l 363 306 l 319 61 b 247 0 313 15 293 0 l 47 0 b -3 61 1 0 -10 15 l 150 925 b 221 986 157 971 175 986 m 597 640 b 540 708 607 681 585 708 l 433 708 l 408 567 l 515 567 b 597 640 558 567 590 597 m 415 -315 b 340 -361 400 -346 375 -361 l 233 -361 b 201 -315 203 -361 192 -346 l 260 -122 b 333 -60 272 -78 290 -60 l 483 -58 b 519 -122 529 -58 542 -79 "},"ŗ":{"ha":507,"x_min":0,"x_max":0,"o":"m 463 743 l 504 743 b 550 688 547 743 557 728 l 525 539 b 460 483 515 496 500 483 l 406 483 b 374 482 392 483 381 483 b 365 474 369 482 367 479 l 292 56 b 226 0 285 15 269 0 l 32 0 b -14 56 -8 0 -21 13 l 85 610 b 160 697 94 660 108 679 b 463 743 232 724 333 739 m 144 -276 b 57 -326 122 -317 101 -326 l -44 -326 b -75 -285 -78 -326 -85 -317 l -29 -118 b 53 -54 -17 -68 4 -54 l 201 -54 b 238 -118 251 -54 261 -75 "},"Ř":{"ha":925,"x_min":0,"x_max":0,"o":"m 861 1286 b 867 1233 907 1286 896 1257 l 694 1085 b 643 1051 674 1067 656 1056 b 574 1044 631 1047 607 1044 l 524 1044 b 425 1085 467 1044 454 1050 l 304 1233 b 324 1286 281 1257 281 1286 l 474 1286 b 571 1256 539 1286 556 1282 l 593 1219 l 628 1254 b 733 1286 657 1282 672 1286 m 628 986 b 929 628 849 986 968 851 b 740 350 907 504 844 411 b 774 279 753 329 764 306 l 844 76 b 789 0 860 32 838 0 l 601 0 b 476 79 528 0 492 24 l 429 246 b 369 306 418 282 413 300 l 363 306 l 319 61 b 247 0 313 15 293 0 l 47 0 b -3 61 1 0 -10 15 l 150 925 b 221 986 157 971 175 986 m 597 640 b 540 708 607 681 585 708 l 433 708 l 408 567 l 515 567 b 597 640 558 567 590 597 "},"ř":{"ha":507,"x_min":0,"x_max":0,"o":"m 653 1029 b 657 976 699 1029 686 1000 l 485 828 b 433 794 464 810 446 799 b 364 788 421 790 397 788 l 314 788 b 215 828 257 788 244 793 l 94 976 b 115 1029 71 1000 72 1029 l 261 1029 b 357 999 326 1029 342 1025 l 379 963 l 415 997 b 521 1029 443 1025 460 1029 m 503 743 b 549 688 546 743 556 728 l 524 539 b 458 483 514 496 499 483 l 404 483 b 372 482 390 483 379 483 b 364 474 368 482 365 479 l 290 56 b 225 0 283 15 268 0 l 31 0 b -15 56 -10 0 -22 13 l 83 610 b 158 697 93 660 107 679 b 461 743 231 724 332 739 "},"Ś":{"ha":901,"x_min":0,"x_max":0,"o":"m 613 1292 b 704 1286 653 1313 683 1310 l 776 1186 b 758 1131 797 1160 792 1140 l 486 1061 b 422 1069 453 1051 432 1054 l 385 1128 b 397 1181 369 1149 374 1167 m 88 717 b 556 1007 121 904 288 1007 b 911 808 761 1007 867 943 b 868 733 924 765 914 751 l 701 668 b 629 699 658 651 644 658 b 519 751 617 733 581 751 b 410 703 451 751 415 735 b 556 635 404 663 446 650 b 871 272 803 597 908 476 b 388 -21 836 76 675 -21 b 119 32 282 -21 193 -4 b -11 186 46 67 1 118 b 42 265 -18 229 -4 250 l 211 322 b 296 294 256 339 279 335 b 421 244 310 261 351 244 b 546 293 499 244 540 261 b 418 357 551 331 513 342 b 161 454 297 378 211 411 b 88 717 93 514 68 601 "},"ś":{"ha":728,"x_min":0,"x_max":0,"o":"m 465 1022 b 557 1019 506 1044 536 1043 l 633 924 b 617 868 654 896 649 878 l 346 789 b 282 794 313 779 292 781 l 240 851 b 253 904 225 872 229 890 m 57 518 b 417 743 83 668 204 743 b 715 594 596 743 675 690 b 671 515 731 561 715 535 l 543 460 b 471 476 489 435 488 460 b 394 503 451 494 426 503 b 318 476 333 503 322 497 b 407 446 313 460 324 451 b 686 218 644 429 713 358 b 306 -21 660 64 524 -21 b -11 144 118 -21 13 35 b 38 219 -18 182 -3 207 l 181 268 b 256 254 238 281 243 276 b 333 219 269 231 296 219 b 421 250 399 219 417 228 b 308 286 425 276 413 282 b 57 518 113 293 31 369 "},"Ŝ":{"ha":901,"x_min":0,"x_max":0,"o":"m 650 1299 b 749 1258 707 1299 719 1293 l 874 1110 b 846 1057 896 1086 890 1057 l 700 1057 b 603 1088 633 1057 618 1061 l 582 1126 l 546 1089 b 440 1057 518 1061 501 1057 l 303 1057 b 292 1110 256 1057 264 1085 l 468 1258 b 521 1292 490 1276 508 1288 b 589 1299 533 1296 557 1299 m 88 717 b 556 1007 121 904 288 1007 b 911 808 761 1007 867 943 b 868 733 924 765 914 751 l 701 668 b 629 699 658 651 644 658 b 519 751 617 733 581 751 b 410 703 451 751 415 735 b 556 635 404 663 446 650 b 871 272 803 597 908 476 b 388 -21 836 76 675 -21 b 119 32 282 -21 193 -4 b -11 186 46 67 1 118 b 42 265 -18 229 -4 250 l 211 322 b 296 294 256 339 279 335 b 421 244 310 261 351 244 b 546 293 499 244 540 261 b 418 357 551 331 513 342 b 161 454 297 378 211 411 b 88 717 93 514 68 601 "},"ŝ":{"ha":728,"x_min":0,"x_max":0,"o":"m 731 842 b 701 789 753 818 746 789 l 565 789 b 469 819 499 789 485 793 l 449 858 l 411 821 b 306 789 385 793 367 789 l 169 789 b 160 842 124 789 131 818 l 336 990 b 389 1024 357 1008 375 1019 b 457 1031 401 1028 425 1031 l 507 1031 b 606 990 563 1031 574 1025 m 417 743 b 715 594 596 743 675 690 b 671 515 731 561 715 535 l 543 460 b 471 476 489 435 488 460 b 394 503 451 494 426 503 b 318 476 333 503 322 497 b 407 446 313 460 324 451 b 686 218 644 429 713 358 b 306 -21 660 64 524 -21 b -11 144 118 -21 13 35 b 38 219 -18 182 -3 207 l 181 268 b 256 254 238 281 243 276 b 333 219 269 231 296 219 b 421 250 399 219 417 228 b 308 286 425 276 413 282 b 57 518 113 293 31 369 b 417 743 83 668 204 743 "},"Ş":{"ha":901,"x_min":0,"x_max":0,"o":"m 88 717 b 556 1007 121 904 288 1007 b 911 808 761 1007 867 943 b 868 733 924 765 914 751 l 701 668 b 629 699 658 651 644 658 b 519 751 617 733 581 751 b 410 703 451 751 415 735 b 556 635 404 663 446 650 b 871 272 803 597 908 476 b 504 -14 842 107 719 11 l 478 -64 l 488 -64 b 576 -217 565 -65 599 -135 b 342 -351 553 -307 474 -351 b 232 -329 311 -351 275 -344 b 196 -286 206 -319 193 -306 l 207 -222 b 268 -197 214 -186 235 -178 b 388 -192 317 -226 381 -229 b 329 -164 392 -171 379 -164 l 301 -164 b 289 -125 274 -164 271 -154 l 353 -21 b -11 186 157 -11 13 58 b 42 265 -18 229 -4 250 l 211 322 b 296 294 256 339 279 335 b 421 244 310 261 351 244 b 546 293 499 244 540 261 b 418 357 551 331 513 342 b 161 454 297 378 211 411 b 88 717 93 514 68 601 "},"ş":{"ha":728,"x_min":0,"x_max":0,"o":"m 57 518 b 417 743 83 668 204 743 b 715 594 596 743 675 690 b 671 515 731 561 715 535 l 543 460 b 471 476 489 435 488 460 b 394 503 451 494 426 503 b 318 476 333 503 322 497 b 407 446 313 460 324 451 b 686 218 644 429 713 358 b 411 -14 663 88 571 10 l 386 -60 l 396 -60 b 485 -212 474 -61 507 -131 b 250 -347 461 -303 382 -347 b 140 -325 219 -347 183 -340 b 104 -282 114 -315 101 -301 l 115 -218 b 176 -193 122 -182 143 -174 b 296 -187 225 -222 289 -225 b 238 -160 300 -167 288 -160 l 210 -160 b 196 -121 183 -160 179 -147 l 258 -19 b -11 144 101 -11 11 43 b 38 219 -18 182 -3 207 l 181 268 b 256 254 238 281 243 276 b 333 219 269 231 296 219 b 421 250 399 219 417 228 b 308 286 425 276 413 282 b 57 518 113 293 31 369 "},"Š":{"ha":901,"x_min":0,"x_max":0,"o":"m 883 1300 b 889 1247 929 1300 918 1271 l 717 1099 b 665 1065 696 1081 678 1069 b 596 1058 653 1061 629 1058 l 546 1058 b 447 1099 489 1058 476 1064 l 326 1247 b 346 1300 303 1271 303 1300 l 496 1300 b 593 1269 561 1300 578 1296 l 615 1233 l 650 1268 b 756 1300 679 1296 694 1300 m 88 717 b 556 1007 121 904 288 1007 b 911 808 761 1007 867 943 b 868 733 924 765 914 751 l 701 668 b 629 699 658 651 644 658 b 519 751 617 733 581 751 b 410 703 451 751 415 735 b 556 635 404 663 446 650 b 871 272 803 597 908 476 b 388 -21 836 76 675 -21 b 119 32 282 -21 193 -4 b -11 186 46 67 1 118 b 42 265 -18 229 -4 250 l 211 322 b 296 294 256 339 279 335 b 421 244 310 261 351 244 b 546 293 499 244 540 261 b 418 357 551 331 513 342 b 161 454 297 378 211 411 b 88 717 93 514 68 601 "},"š":{"ha":728,"x_min":0,"x_max":0,"o":"m 740 1029 b 744 976 786 1029 774 1000 l 572 828 b 521 794 551 810 533 799 b 451 788 508 790 485 788 l 401 788 b 303 828 344 788 332 793 l 182 976 b 203 1029 158 1000 160 1029 l 349 1029 b 444 999 414 1029 429 1025 l 467 963 l 503 997 b 608 1029 531 1025 547 1029 m 417 743 b 715 594 596 743 675 690 b 671 515 731 561 715 535 l 543 460 b 471 476 489 435 488 460 b 394 503 451 494 426 503 b 318 476 333 503 322 497 b 407 446 313 460 324 451 b 686 218 644 429 713 358 b 306 -21 660 64 524 -21 b -11 144 118 -21 13 35 b 38 219 -18 182 -3 207 l 181 268 b 256 254 238 281 243 276 b 333 219 269 231 296 219 b 421 250 399 219 417 228 b 308 286 425 276 413 282 b 57 518 113 293 31 369 b 417 743 83 668 204 743 "},"Ť":{"ha":864,"x_min":0,"x_max":0,"o":"m 860 1286 b 865 1233 906 1286 894 1257 l 693 1085 b 642 1051 672 1067 654 1056 b 572 1044 629 1047 606 1044 l 522 1044 b 424 1085 465 1044 453 1050 l 303 1233 b 322 1286 279 1257 279 1286 l 472 1286 b 569 1256 538 1286 554 1282 l 592 1219 l 626 1254 b 732 1286 656 1282 671 1286 m 893 986 b 944 925 939 986 951 971 l 917 769 b 844 708 910 724 890 708 l 649 708 l 535 61 b 463 0 525 15 508 0 l 263 0 b 213 61 217 0 203 15 l 326 708 l 131 708 b 81 769 85 708 74 724 l 108 925 b 179 986 115 971 133 986 "},"ť":{"ha":556,"x_min":0,"x_max":0,"o":"m 740 821 b 653 771 719 781 699 771 l 551 771 b 521 813 518 771 511 781 l 561 964 b 643 1028 574 1014 593 1028 l 792 1028 b 828 964 842 1028 854 1007 m 446 889 b 492 833 486 889 499 876 l 472 722 l 539 722 b 583 667 579 722 590 707 l 561 543 b 497 488 554 503 538 488 l 431 488 l 399 310 b 451 244 392 267 408 244 b 499 188 494 244 506 231 l 472 39 b 406 -18 465 -4 449 -18 b 89 285 156 -18 51 67 l 125 488 l 78 488 b 33 543 38 488 26 500 l 56 667 b 119 722 63 710 79 722 l 167 722 l 186 833 b 251 889 193 874 208 889 "},"Ŧ":{"ha":879,"x_min":0,"x_max":0,"o":"m 901 986 b 953 925 947 986 960 971 l 925 769 b 853 708 915 724 899 708 l 657 708 l 622 511 l 742 511 b 771 474 769 511 776 503 l 753 368 b 710 331 747 339 738 331 l 590 331 l 543 61 b 471 0 533 15 517 0 l 271 0 b 221 61 225 0 214 15 l 268 331 l 150 331 b 121 368 122 331 115 339 l 139 474 b 182 511 143 499 158 511 l 300 511 l 335 708 l 139 708 b 89 769 93 708 79 724 l 117 925 b 188 986 124 971 142 986 "},"ŧ":{"ha":556,"x_min":0,"x_max":0,"o":"m 444 889 b 490 833 485 889 497 876 l 471 722 l 538 722 b 582 667 578 722 589 707 l 560 543 b 496 488 553 503 536 488 l 429 488 l 421 440 l 507 440 b 535 403 535 440 540 432 l 524 336 b 482 299 518 307 510 299 l 396 299 l 394 292 b 450 244 389 253 410 244 b 497 188 493 244 504 231 l 471 39 b 404 -18 464 -4 447 -18 b 88 285 154 -18 50 67 l 90 299 l 38 299 b 10 336 10 299 4 307 l 21 403 b 63 440 25 428 39 440 l 115 440 l 124 488 l 76 488 b 32 543 36 488 25 500 l 54 667 b 118 722 61 710 78 722 l 165 722 l 185 833 b 250 889 192 874 207 889 "},"Ũ":{"ha":964,"x_min":0,"x_max":0,"o":"m 886 1271 b 914 1238 908 1271 918 1260 b 738 1060 892 1108 833 1060 b 618 1083 694 1060 654 1068 b 551 1107 582 1099 560 1107 b 529 1085 539 1107 532 1100 b 500 1060 526 1068 517 1060 l 393 1060 b 365 1093 369 1060 361 1071 b 539 1271 386 1211 443 1271 b 661 1247 583 1271 624 1263 b 729 1224 699 1232 721 1224 b 751 1246 742 1224 749 1231 b 781 1271 756 1263 765 1271 m 390 357 b 486 257 378 290 410 257 b 615 357 560 257 603 290 l 717 925 b 788 986 724 971 742 986 l 988 986 b 1039 925 1033 986 1046 971 l 938 353 b 443 -21 894 110 726 -21 b 139 97 304 -21 203 18 b 76 403 75 176 54 278 l 169 925 b 240 986 179 971 194 986 l 440 986 b 492 925 486 986 499 971 "},"ũ":{"ha":774,"x_min":0,"x_max":0,"o":"m 738 1015 b 765 982 760 1015 769 1004 b 588 804 743 853 683 804 b 468 828 544 804 504 813 b 401 851 432 843 410 851 b 379 829 389 851 382 844 b 350 804 376 813 367 804 l 243 804 b 215 838 222 804 213 815 b 390 1015 238 956 296 1015 b 513 992 435 1015 475 1007 b 581 968 550 976 572 968 b 603 990 593 968 600 975 b 632 1015 606 1007 615 1015 m 754 722 b 800 667 794 722 807 710 l 703 119 b 628 33 693 69 679 51 b 313 -21 532 -3 426 -21 b 44 306 96 -21 10 104 l 108 667 b 174 722 115 707 131 722 l 368 722 b 414 667 408 722 421 710 l 350 304 b 390 253 343 265 353 253 b 413 254 397 253 406 253 b 424 265 419 256 422 258 l 494 667 b 560 722 501 707 517 722 "},"Ū":{"ha":964,"x_min":0,"x_max":0,"o":"m 836 1251 b 881 1200 879 1251 888 1240 l 868 1129 b 806 1078 861 1089 849 1078 l 454 1078 b 413 1129 414 1078 406 1089 l 425 1200 b 485 1251 432 1240 447 1251 m 390 357 b 486 257 378 290 410 257 b 615 357 560 257 603 290 l 717 925 b 788 986 724 971 742 986 l 988 986 b 1039 925 1033 986 1046 971 l 938 353 b 443 -21 894 110 726 -21 b 139 97 304 -21 203 18 b 76 403 75 176 54 278 l 169 925 b 240 986 179 971 194 986 l 440 986 b 492 925 486 986 499 971 "},"ū":{"ha":774,"x_min":0,"x_max":0,"o":"m 686 990 b 729 939 729 990 736 979 l 717 868 b 656 817 710 828 699 817 l 304 817 b 261 868 264 817 254 828 l 274 939 b 335 990 281 979 297 990 m 754 722 b 800 667 794 722 807 710 l 703 119 b 628 33 693 69 679 51 b 313 -21 532 -3 426 -21 b 44 306 96 -21 10 104 l 108 667 b 174 722 115 707 131 722 l 368 722 b 414 667 408 722 421 710 l 350 304 b 390 253 343 265 353 253 b 413 254 397 253 406 253 b 424 265 419 256 422 258 l 494 667 b 560 722 501 707 517 722 "},"Ŭ":{"ha":964,"x_min":0,"x_max":0,"o":"m 917 1196 b 625 1043 860 1094 763 1043 b 388 1196 488 1043 408 1094 b 421 1246 382 1219 393 1236 l 539 1288 b 590 1271 572 1299 578 1297 b 658 1233 604 1246 626 1233 b 736 1271 688 1233 714 1246 b 794 1288 758 1294 763 1299 l 900 1246 b 917 1196 926 1236 932 1224 m 390 357 b 486 257 378 290 410 257 b 615 357 560 257 603 290 l 717 925 b 788 986 724 971 742 986 l 988 986 b 1039 925 1033 986 1046 971 l 938 353 b 443 -21 894 110 726 -21 b 139 97 304 -21 203 18 b 76 403 75 176 54 278 l 169 925 b 240 986 179 971 194 986 l 440 986 b 492 925 486 986 499 971 "},"ŭ":{"ha":774,"x_min":0,"x_max":0,"o":"m 768 940 b 475 788 711 839 613 788 b 239 940 339 788 260 839 b 272 990 232 968 240 979 l 389 1032 b 442 1015 424 1043 429 1042 b 588 1015 469 965 543 965 b 644 1032 610 1039 615 1043 l 751 990 b 768 940 778 981 783 968 m 754 722 b 800 667 794 722 807 710 l 703 119 b 628 33 693 69 679 51 b 313 -21 532 -3 426 -21 b 44 306 96 -21 10 104 l 108 667 b 174 722 115 707 131 722 l 368 722 b 414 667 408 722 421 710 l 350 304 b 390 253 343 265 353 253 b 413 254 397 253 406 253 b 424 265 419 256 422 258 l 494 667 b 560 722 501 707 517 722 "},"Ů":{"ha":964,"x_min":0,"x_max":0,"o":"m 453 1192 b 679 1361 471 1301 561 1361 b 843 1192 796 1361 861 1297 b 621 1024 825 1086 736 1024 b 453 1192 503 1024 435 1085 m 690 1192 b 657 1233 694 1219 683 1233 b 604 1192 626 1233 608 1219 b 643 1151 600 1168 615 1151 b 690 1192 669 1151 686 1165 m 390 357 b 486 257 378 290 410 257 b 615 357 560 257 603 290 l 717 925 b 788 986 724 971 742 986 l 988 986 b 1039 925 1033 986 1046 971 l 938 353 b 443 -21 894 110 726 -21 b 139 97 304 -21 203 18 b 76 403 75 176 54 278 l 169 925 b 240 986 179 971 194 986 l 440 986 b 492 925 486 986 499 971 "},"ů":{"ha":774,"x_min":0,"x_max":0,"o":"m 296 906 b 524 1075 314 1015 406 1075 b 686 906 640 1075 704 1011 b 464 738 668 800 579 738 b 296 906 346 738 278 799 m 533 906 b 500 947 538 933 526 947 b 447 906 469 947 451 933 b 486 865 443 882 458 865 b 533 906 513 865 529 879 m 754 722 b 800 667 794 722 807 710 l 703 119 b 628 33 693 69 679 51 b 313 -21 532 -3 426 -21 b 44 306 96 -21 10 104 l 108 667 b 174 722 115 707 131 722 l 368 722 b 414 667 408 722 421 710 l 350 304 b 390 253 343 265 353 253 b 413 254 397 253 406 253 b 424 265 419 256 422 258 l 494 667 b 560 722 501 707 517 722 "},"Ű":{"ha":964,"x_min":0,"x_max":0,"o":"m 485 1250 b 586 1288 514 1282 547 1294 l 700 1267 b 704 1206 738 1261 738 1228 l 510 1065 b 443 1044 485 1047 463 1040 l 360 1057 b 351 1113 326 1063 328 1089 m 789 1250 b 890 1283 819 1281 853 1292 l 1006 1254 b 1008 1192 1043 1244 1043 1214 l 807 1064 b 740 1043 782 1046 760 1039 l 658 1060 b 653 1115 624 1065 629 1092 m 390 357 b 486 257 378 290 410 257 b 615 357 560 257 603 290 l 717 925 b 788 986 724 971 742 986 l 988 986 b 1039 925 1033 986 1046 971 l 938 353 b 443 -21 894 110 726 -21 b 139 97 304 -21 203 18 b 76 403 75 176 54 278 l 169 925 b 240 986 179 971 194 986 l 440 986 b 492 925 486 986 499 971 "},"ű":{"ha":774,"x_min":0,"x_max":0,"o":"m 335 993 b 436 1031 364 1025 399 1038 l 550 1010 b 556 949 588 1004 589 971 l 361 808 b 293 788 335 790 313 783 l 211 800 b 203 856 175 806 181 832 m 639 993 b 740 1026 671 1025 704 1036 l 857 997 b 860 935 894 988 894 957 l 658 807 b 590 786 632 789 608 782 l 508 803 b 503 858 476 808 476 835 m 754 722 b 800 667 794 722 807 710 l 703 119 b 628 33 693 69 679 51 b 313 -21 532 -3 426 -21 b 44 306 96 -21 10 104 l 108 667 b 174 722 115 707 131 722 l 368 722 b 414 667 408 722 421 710 l 350 304 b 390 253 343 265 353 253 b 413 254 397 253 406 253 b 424 265 419 256 422 258 l 494 667 b 560 722 501 707 517 722 "},"Ų":{"ha":964,"x_min":0,"x_max":0,"o":"m 988 986 b 1039 925 1033 986 1046 971 l 938 353 b 785 78 918 242 867 150 b 615 -150 667 -26 619 -106 b 635 -175 614 -167 619 -175 b 663 -167 642 -175 651 -172 b 696 -175 681 -156 692 -158 l 715 -249 b 696 -294 719 -268 714 -283 b 519 -342 644 -326 586 -342 b 376 -246 426 -342 378 -310 b 500 -19 374 -172 415 -97 b 443 -21 488 -21 468 -21 b 139 97 304 -21 203 18 b 76 403 75 176 54 278 l 169 925 b 240 986 179 971 194 986 l 440 986 b 492 925 486 986 499 971 l 390 357 b 486 257 378 290 410 257 b 615 357 560 257 603 290 l 717 925 b 788 986 724 971 742 986 "},"ų":{"ha":774,"x_min":0,"x_max":0,"o":"m 754 722 b 800 667 794 722 807 710 l 703 119 b 676 60 699 92 690 72 b 540 -143 589 -28 544 -96 b 560 -168 539 -160 544 -168 b 588 -160 567 -168 576 -165 b 621 -168 607 -147 618 -150 l 639 -249 b 619 -294 643 -268 638 -283 b 443 -342 568 -326 510 -342 b 300 -246 350 -342 301 -310 b 428 -14 297 -172 340 -94 b 313 -21 389 -18 350 -21 b 44 307 97 -21 10 103 l 108 667 b 174 722 115 707 131 722 l 368 722 b 414 667 408 722 421 710 l 350 304 b 390 253 343 265 353 253 b 413 254 397 253 406 253 b 424 265 419 256 422 258 l 494 667 b 560 722 501 707 517 722 "},"Ŵ":{"ha":1326,"x_min":0,"x_max":0,"o":"m 860 1285 b 958 1244 917 1285 929 1279 l 1083 1096 b 1056 1043 1106 1072 1100 1043 l 910 1043 b 813 1074 843 1043 828 1047 l 792 1113 l 756 1075 b 650 1043 728 1047 711 1043 l 513 1043 b 501 1096 465 1043 474 1071 l 678 1244 b 731 1278 700 1263 718 1274 b 799 1285 743 1282 767 1285 m 1378 986 b 1407 928 1421 986 1425 968 l 1043 51 b 960 0 1026 11 1004 0 l 738 0 b 671 49 693 0 672 11 l 668 251 b 693 558 667 346 675 449 l 681 558 b 592 250 657 449 626 346 l 519 51 b 435 0 501 11 478 0 l 218 0 b 151 49 174 0 153 10 l 99 928 b 147 986 94 971 104 986 l 356 986 b 429 933 410 986 428 976 l 417 631 b 385 354 414 544 403 453 l 396 354 b 469 631 417 464 442 557 l 585 933 b 674 986 600 976 624 986 l 865 986 b 938 933 915 986 936 976 l 946 631 b 924 354 947 572 940 481 l 935 354 b 1001 631 960 472 982 565 l 1096 933 b 1186 986 1111 976 1132 986 "},"ŵ":{"ha":1108,"x_min":0,"x_max":0,"o":"m 369 789 b 360 842 324 789 331 818 l 536 990 b 589 1024 557 1008 575 1019 b 657 1031 601 1028 625 1031 l 707 1031 b 806 990 763 1031 774 1025 l 931 842 b 901 789 953 818 946 789 l 765 789 b 669 819 699 789 685 793 l 649 858 l 611 821 b 506 789 585 793 567 789 m 1110 722 b 1144 658 1161 722 1168 708 l 889 49 b 806 0 874 17 846 0 l 608 0 b 540 49 563 0 540 17 l 540 147 b 551 339 540 201 546 289 l 556 375 l 543 375 b 472 147 519 283 496 207 l 433 49 b 350 0 421 17 393 0 l 172 0 b 104 49 129 0 107 17 l 57 658 b 114 722 50 708 63 722 l 289 722 b 365 667 354 722 367 713 l 360 535 b 351 442 358 513 356 482 b 338 336 347 401 342 365 l 331 293 l 343 293 b 404 535 367 403 386 483 l 449 665 b 550 722 461 714 482 722 l 676 722 b 757 667 743 722 758 713 l 756 535 b 749 442 756 513 753 482 b 736 336 744 401 740 365 l 729 293 l 743 293 b 800 535 765 403 785 483 l 840 665 b 938 722 856 714 869 722 "},"Ŷ":{"ha":960,"x_min":0,"x_max":0,"o":"m 685 1285 b 783 1244 742 1285 754 1279 l 908 1096 b 881 1043 931 1072 925 1043 l 735 1043 b 638 1074 668 1043 653 1047 l 617 1113 l 581 1075 b 475 1043 553 1047 536 1043 l 338 1043 b 326 1096 290 1043 299 1071 l 503 1244 b 556 1278 525 1263 543 1274 b 624 1285 568 1282 592 1285 m 1035 986 b 1056 925 1078 986 1082 960 l 644 381 l 589 61 b 517 0 579 15 563 0 l 317 0 b 267 61 271 0 257 15 l 322 378 l 106 925 b 146 986 90 960 103 986 l 342 986 b 453 933 419 986 436 982 l 533 688 l 708 933 b 756 978 725 957 740 972 b 835 986 771 983 797 986 "},"ŷ":{"ha":776,"x_min":0,"x_max":0,"o":"m 215 789 b 206 842 169 789 176 818 l 382 990 b 435 1024 403 1008 421 1019 b 503 1031 447 1028 471 1031 l 553 1031 b 651 990 608 1031 619 1025 l 776 842 b 747 789 799 818 792 789 l 611 789 b 515 819 544 789 531 793 l 494 858 l 457 821 b 351 789 431 793 413 789 m 751 722 b 797 667 792 722 804 710 l 679 0 b 274 -319 642 -212 506 -319 b -11 -171 117 -319 35 -275 b 33 -92 -26 -137 -12 -111 l 188 -22 b 258 -39 233 0 244 -18 b 314 -81 272 -62 279 -76 b 369 -28 344 -81 363 -62 l 378 22 b 317 21 365 21 344 21 b 50 354 101 21 13 150 l 106 667 b 171 722 113 707 128 722 l 365 722 b 411 667 406 722 418 710 l 354 346 b 396 294 347 307 358 294 b 426 296 408 294 419 294 l 492 667 b 557 722 499 707 514 722 "},"Ÿ":{"ha":960,"x_min":0,"x_max":0,"o":"m 497 1286 b 593 1176 585 1286 606 1260 l 589 1156 b 456 1046 574 1074 540 1046 l 444 1046 b 353 1156 360 1046 338 1074 l 357 1176 b 486 1286 372 1260 401 1286 m 807 1286 b 901 1176 892 1286 917 1260 l 897 1156 b 765 1046 882 1074 850 1046 l 756 1046 b 661 1156 671 1046 646 1074 l 665 1176 b 797 1286 678 1260 710 1286 m 1035 986 b 1056 925 1078 986 1082 960 l 644 381 l 589 61 b 517 0 579 15 563 0 l 317 0 b 267 61 271 0 257 15 l 322 378 l 106 925 b 146 986 90 960 103 986 l 342 986 b 453 933 419 986 436 982 l 533 688 l 708 933 b 756 978 725 957 740 972 b 835 986 771 983 797 986 "},"Ź":{"ha":860,"x_min":0,"x_max":0,"o":"m 594 1278 b 686 1272 635 1299 665 1296 l 758 1172 b 740 1117 779 1146 774 1126 l 468 1047 b 404 1056 435 1038 414 1040 l 367 1114 b 379 1167 351 1135 356 1153 m 868 986 b 919 925 914 986 926 971 l 904 839 b 874 776 900 815 889 794 l 439 279 l 751 279 b 801 218 797 279 811 264 l 774 61 b 701 0 764 15 747 0 l 19 0 b -31 61 -26 0 -37 15 l -15 149 b 15 210 -11 172 -1 192 l 447 708 l 151 708 b 101 769 106 708 92 724 l 129 925 b 200 986 136 971 154 986 "},"ź":{"ha":697,"x_min":0,"x_max":0,"o":"m 458 1022 b 550 1019 499 1044 529 1043 l 626 924 b 610 868 647 896 642 878 l 339 789 b 275 794 306 779 285 781 l 233 851 b 246 904 218 872 222 890 m 589 253 b 635 199 629 253 642 239 l 610 56 b 544 0 603 15 588 0 l 17 0 b -29 56 -24 0 -36 13 l -6 189 b 29 247 0 221 6 226 l 289 469 l 107 469 b 63 524 67 469 56 483 l 88 667 b 151 722 94 710 111 722 l 665 722 b 710 667 706 722 717 707 l 686 533 b 639 464 682 508 665 485 l 372 253 "},"Ż":{"ha":860,"x_min":0,"x_max":0,"o":"m 600 1288 b 694 1171 689 1288 710 1261 l 692 1160 b 557 1043 676 1069 647 1043 l 549 1043 b 451 1160 458 1043 436 1069 l 454 1171 b 592 1288 469 1261 501 1288 m 868 986 b 919 925 914 986 926 971 l 904 839 b 874 776 900 815 889 794 l 439 279 l 751 279 b 801 218 797 279 811 264 l 774 61 b 701 0 764 15 747 0 l 19 0 b -31 61 -26 0 -37 15 l -15 149 b 15 210 -11 172 -1 192 l 447 708 l 151 708 b 101 769 106 708 92 724 l 129 925 b 200 986 136 971 154 986 "},"ż":{"ha":697,"x_min":0,"x_max":0,"o":"m 468 1036 b 563 919 557 1036 578 1010 l 560 908 b 425 792 544 818 515 792 l 417 792 b 319 908 326 792 304 818 l 322 919 b 460 1036 338 1010 369 1036 m 589 253 b 635 199 629 253 642 239 l 610 56 b 544 0 603 15 588 0 l 17 0 b -29 56 -24 0 -36 13 l -6 189 b 29 247 0 221 6 226 l 289 469 l 107 469 b 63 524 67 469 56 483 l 88 667 b 151 722 94 710 111 722 l 665 722 b 710 667 706 722 717 707 l 686 533 b 639 464 682 508 665 485 l 372 253 "},"Ž":{"ha":860,"x_min":0,"x_max":0,"o":"m 865 1286 b 871 1233 911 1286 900 1257 l 699 1085 b 647 1051 678 1067 660 1056 b 578 1044 635 1047 611 1044 l 528 1044 b 429 1085 471 1044 458 1050 l 308 1233 b 328 1286 285 1257 285 1286 l 478 1286 b 575 1256 543 1286 560 1282 l 597 1219 l 632 1254 b 738 1286 661 1282 676 1286 m 868 986 b 919 925 914 986 926 971 l 904 839 b 874 776 900 815 889 794 l 439 279 l 751 279 b 801 218 797 279 811 264 l 774 61 b 701 0 764 15 747 0 l 19 0 b -31 61 -26 0 -37 15 l -15 149 b 15 210 -11 172 -1 192 l 447 708 l 151 708 b 101 769 106 708 92 724 l 129 925 b 200 986 136 971 154 986 "},"ž":{"ha":697,"x_min":0,"x_max":0,"o":"m 733 1029 b 738 976 779 1029 767 1000 l 565 828 b 514 794 544 810 526 799 b 444 788 501 790 478 788 l 394 788 b 296 828 338 788 325 793 l 175 976 b 196 1029 151 1000 153 1029 l 342 1029 b 438 999 407 1029 422 1025 l 460 963 l 496 997 b 601 1029 524 1025 540 1029 m 665 722 b 710 667 706 722 717 707 l 686 533 b 639 464 682 508 665 485 l 372 253 l 589 253 b 635 199 629 253 642 239 l 610 56 b 544 0 603 15 588 0 l 17 0 b -29 56 -24 0 -36 13 l -6 189 b 29 247 0 221 6 226 l 289 469 l 107 469 b 63 524 67 469 56 483 l 88 667 b 151 722 94 710 111 722 "},"ſ":{"ha":486,"x_min":0,"x_max":0,"o":"m 165 725 b 589 1028 204 943 339 1028 b 635 971 632 1028 644 1014 l 614 850 b 547 793 607 807 590 793 b 472 728 504 793 479 771 l 353 56 b 286 0 346 15 329 0 l 94 0 b 47 56 51 0 40 13 l 124 488 l 93 488 b 47 543 53 488 40 500 l 69 667 b 135 722 76 707 92 722 l 165 722 "},"ƒ":{"ha":656,"x_min":0,"x_max":0,"o":"m 217 706 b 656 1028 256 918 407 1028 b 706 971 699 1028 710 1014 l 693 822 b 632 765 689 779 675 765 b 518 681 558 765 531 747 l 501 592 l 592 592 b 642 536 632 592 646 579 l 628 385 b 568 329 626 344 611 329 l 451 329 l 394 35 b -46 -306 354 -181 199 -306 b -96 -249 -89 -306 -100 -292 l -83 -100 b -22 -43 -79 -57 -65 -43 b 92 42 50 -43 79 -19 l 146 329 l 74 329 b 22 385 33 329 18 342 l 36 536 b 97 592 40 576 57 592 l 196 592 "},"Ǻ":{"ha":976,"x_min":0,"x_max":0,"o":"m 701 1383 b 788 1383 742 1399 771 1399 l 854 1304 b 839 1264 874 1283 868 1271 l 589 1213 b 528 1218 557 1207 538 1208 l 489 1274 b 513 1317 474 1292 485 1307 m 396 1004 b 658 1190 418 1128 519 1190 b 847 989 792 1190 869 1111 b 782 889 840 949 819 915 l 946 60 b 892 0 954 19 936 0 l 700 0 b 606 64 629 0 610 18 l 599 135 l 338 135 l 306 64 b 194 0 285 18 260 0 l -3 0 b -31 60 -43 0 -53 19 l 426 889 b 396 1004 399 917 389 956 m 676 994 b 635 1047 683 1026 664 1047 b 567 994 597 1047 574 1029 b 615 939 563 963 581 939 b 676 994 644 939 671 961 m 564 499 b 569 661 560 561 564 621 l 572 690 l 558 690 b 503 500 547 622 529 560 l 451 388 l 575 388 "},"ǻ":{"ha":763,"x_min":0,"x_max":0,"o":"m 535 1285 b 621 1283 572 1301 601 1301 l 692 1211 b 676 1171 711 1192 706 1178 l 422 1111 b 363 1115 392 1104 372 1106 l 324 1158 b 336 1197 308 1174 313 1188 m 306 933 b 522 1094 322 1038 410 1094 b 676 933 633 1094 694 1033 b 465 774 658 832 575 774 b 306 933 353 774 288 832 m 531 933 b 500 972 535 960 525 972 b 449 933 471 972 453 960 b 486 894 444 911 458 894 b 531 933 513 894 528 907 m 58 439 b 463 743 96 649 225 743 b 739 694 581 743 672 726 b 781 610 783 671 790 658 l 688 83 b 619 15 681 43 664 26 b 303 -21 526 -8 421 -21 b 36 311 88 -21 1 107 m 447 481 b 419 483 440 482 431 483 b 364 442 388 483 369 469 l 335 275 b 371 238 331 250 343 238 l 411 240 l 451 472 b 447 481 453 476 451 479 "},"Ǽ":{"ha":1292,"x_min":0,"x_max":0,"o":"m 1072 1278 b 1164 1272 1113 1299 1143 1296 l 1236 1172 b 1218 1117 1257 1146 1251 1126 l 946 1047 b 882 1056 913 1038 892 1040 l 844 1114 b 857 1167 829 1135 833 1153 m 1186 279 b 1236 218 1232 279 1243 264 l 1208 61 b 1136 0 1201 15 1182 0 l 663 0 b 613 61 617 0 606 15 l 622 114 l 336 114 l 286 54 b 239 11 268 33 253 18 b 163 0 224 4 199 0 l -28 0 b -56 60 -72 0 -85 25 l 668 936 b 751 986 701 976 713 986 l 1300 986 b 1351 925 1346 986 1358 971 l 1324 769 b 1251 708 1314 724 1297 708 l 1010 708 l 997 636 l 1161 636 b 1211 575 1207 636 1218 621 l 1183 419 b 1113 358 1176 374 1158 358 l 949 358 l 935 279 m 732 632 l 538 353 l 664 353 "},"ǽ":{"ha":1064,"x_min":0,"x_max":0,"o":"m 643 1022 b 735 1019 683 1044 714 1043 l 811 924 b 794 868 832 896 826 878 l 524 789 b 460 794 490 779 469 781 l 418 851 b 431 904 403 872 407 890 m 586 683 b 789 743 653 724 721 743 b 1082 494 1004 743 1110 656 b 800 285 1060 367 946 285 b 654 290 740 285 692 286 l 650 267 b 690 196 642 219 656 196 b 758 221 722 196 750 213 l 779 242 b 850 253 797 265 807 271 l 960 196 b 974 117 992 179 997 153 b 649 -21 914 25 806 -21 b 485 17 586 -21 532 -8 b 293 -21 421 -8 357 -21 b 7 226 65 -21 -17 65 b 111 399 19 310 54 367 b 382 446 168 431 258 446 l 408 446 l 414 488 b 378 526 418 514 407 526 b 315 478 344 526 329 499 b 243 468 300 457 275 453 l 122 519 b 106 599 85 536 79 556 b 422 743 178 700 265 743 b 586 683 489 743 543 724 m 785 504 b 746 543 789 526 775 543 b 688 482 714 543 694 522 l 686 471 b 736 468 707 469 724 468 b 785 504 765 468 781 481 m 374 258 l 350 258 b 296 213 319 258 301 243 b 332 169 290 186 306 169 b 369 172 342 169 354 171 b 371 244 367 196 367 219 "},"Ǿ":{"ha":957,"x_min":0,"x_max":0,"o":"m 635 1292 b 726 1286 675 1313 706 1310 l 799 1186 b 781 1131 819 1160 814 1140 l 508 1061 b 444 1069 475 1051 454 1054 l 407 1128 b 419 1181 392 1149 396 1167 m 1040 1044 b 1050 1015 1061 1044 1065 1035 l 914 854 b 953 586 958 783 971 694 l 914 364 b 407 -21 869 115 692 -21 b 206 17 328 -21 261 -8 l 163 -35 b 97 -62 142 -61 136 -62 l -47 -62 b -56 -31 -68 -62 -71 -46 l 74 125 b 33 396 28 196 15 286 l 72 618 b 579 1007 115 868 296 1007 b 786 967 658 1007 728 993 l 829 1018 b 892 1044 851 1042 858 1044 m 597 715 b 535 728 582 724 561 728 b 394 622 454 728 407 693 l 367 467 b 361 438 365 456 363 446 m 615 506 b 621 538 615 507 619 528 l 392 268 b 451 258 407 261 428 258 b 590 364 533 258 579 293 "},"ǿ":{"ha":771,"x_min":0,"x_max":0,"o":"m 515 1022 b 607 1019 556 1044 586 1043 l 683 924 b 667 868 704 896 699 878 l 396 789 b 332 794 363 779 342 781 l 290 851 b 303 904 275 872 279 890 m 781 767 b 790 736 803 767 806 757 l 721 653 b 769 418 769 596 786 517 l 747 285 b 335 -21 713 89 569 -21 b 194 0 281 -21 235 -14 l 174 -26 b 117 -49 161 -42 142 -49 l 32 -49 b 24 -18 8 -49 6 -39 l 90 64 b 36 307 36 121 18 203 l 58 440 b 468 743 93 636 235 743 b 619 719 526 743 576 735 l 640 744 b 696 767 653 760 671 767 m 478 521 b 433 542 472 535 457 542 b 372 496 399 542 378 526 l 351 382 b 349 361 350 375 349 368 m 328 199 b 369 182 335 188 349 182 b 432 226 406 182 426 197 l 451 338 b 454 354 453 344 454 350 "},"Ș":{"ha":901,"x_min":0,"x_max":0,"o":"m 88 717 b 556 1007 121 904 288 1007 b 911 808 761 1007 867 943 b 868 733 924 765 914 751 l 701 668 b 629 699 658 651 644 658 b 519 751 617 733 581 751 b 410 703 451 751 415 735 b 556 635 404 663 446 650 b 871 272 803 597 908 476 b 388 -21 836 76 675 -21 b 119 32 282 -21 193 -4 b -11 186 46 67 1 118 b 42 265 -18 229 -4 250 l 211 322 b 296 294 256 339 279 335 b 421 244 310 261 351 244 b 546 293 499 244 540 261 b 418 357 551 331 513 342 b 161 454 297 378 211 411 b 88 717 93 514 68 601 m 410 -315 b 335 -361 394 -346 369 -361 l 228 -361 b 196 -315 197 -361 186 -346 l 254 -122 b 328 -60 267 -78 285 -60 l 478 -58 b 514 -122 524 -58 536 -79 "},"ș":{"ha":728,"x_min":0,"x_max":0,"o":"m 57 518 b 417 743 83 668 204 743 b 715 594 596 743 675 690 b 671 515 731 561 715 535 l 543 460 b 471 476 489 435 488 460 b 394 503 451 494 426 503 b 318 476 333 503 322 497 b 407 446 313 460 324 451 b 686 218 644 429 713 358 b 306 -21 660 64 524 -21 b -11 144 118 -21 13 35 b 38 219 -18 182 -3 207 l 181 268 b 256 254 238 281 243 276 b 333 219 269 231 296 219 b 421 250 399 219 417 228 b 308 286 425 276 413 282 b 57 518 113 293 31 369 m 357 -269 b 268 -319 331 -310 313 -319 l 167 -319 b 138 -278 133 -319 128 -310 l 174 -132 b 256 -68 186 -82 207 -68 l 404 -68 b 440 -132 454 -68 464 -89 "},"Ț":{"ha":864,"x_min":0,"x_max":0,"o":"m 893 986 b 944 925 939 986 951 971 l 917 769 b 844 708 910 724 890 708 l 649 708 l 535 61 b 463 0 525 15 508 0 l 263 0 b 213 61 217 0 203 15 l 326 708 l 131 708 b 81 769 85 708 74 724 l 108 925 b 179 986 115 971 133 986 m 372 -315 b 297 -361 357 -346 332 -361 l 190 -361 b 158 -315 160 -361 149 -346 l 217 -122 b 290 -60 229 -78 247 -60 l 440 -58 b 476 -122 486 -58 499 -79 "},"ț":{"ha":556,"x_min":0,"x_max":0,"o":"m 446 889 b 492 833 486 889 499 876 l 472 722 l 539 722 b 583 667 579 722 590 707 l 561 543 b 497 488 554 503 538 488 l 431 488 l 399 310 b 451 244 392 267 408 244 b 499 188 494 244 506 231 l 472 39 b 406 -18 465 -4 449 -18 b 89 285 156 -18 51 67 l 125 488 l 78 488 b 33 543 38 488 26 500 l 56 667 b 119 722 63 710 79 722 l 167 722 l 186 833 b 251 889 193 874 208 889 m 257 -315 b 182 -361 242 -346 217 -361 l 75 -361 b 43 -315 44 -361 33 -346 l 101 -122 b 175 -60 114 -78 132 -60 l 325 -58 b 361 -122 371 -58 383 -79 "},"ȷ":{"ha":399,"x_min":0,"x_max":0,"o":"m 353 722 b 400 667 396 722 407 710 l 279 -17 b -143 -319 240 -235 107 -319 b -190 -262 -186 -319 -197 -306 l -164 -114 b -97 -57 -157 -71 -140 -57 b -22 8 -54 -57 -29 -35 l 94 667 b 161 722 101 710 118 722 "},"ˆ":{"ha":557,"x_min":0,"x_max":0,"o":"m 426 1029 b 525 989 482 1029 493 1024 l 650 840 b 621 788 672 817 665 788 l 485 788 b 389 818 418 788 404 792 l 368 857 l 331 819 b 225 788 304 792 286 788 l 89 788 b 79 840 43 788 50 817 l 256 989 b 308 1022 276 1007 294 1018 b 376 1029 321 1026 344 1029 "},"ˇ":{"ha":663,"x_min":0,"x_max":0,"o":"m 719 1029 b 724 976 765 1029 753 1000 l 551 828 b 500 794 531 810 513 799 b 431 788 488 790 464 788 l 381 788 b 282 828 324 788 311 793 l 161 976 b 182 1029 138 1000 139 1029 l 328 1029 b 424 999 393 1029 408 1025 l 446 963 l 482 997 b 588 1029 510 1025 526 1029 "},"˘":{"ha":399,"x_min":0,"x_max":0,"o":"m 565 940 b 272 788 508 839 410 788 b 36 940 136 788 57 839 b 69 990 29 968 38 979 l 186 1032 b 239 1015 221 1043 226 1042 b 385 1015 267 965 340 965 b 442 1032 407 1039 413 1043 l 549 990 b 565 940 575 981 581 968 "},"˙":{"ha":310,"x_min":0,"x_max":0,"o":"m 290 1036 b 385 919 379 1036 400 1010 l 382 908 b 247 792 367 818 338 792 l 239 792 b 142 908 149 792 126 818 l 144 919 b 282 1036 160 1010 192 1036 "},"˚":{"ha":333,"x_min":0,"x_max":0,"o":"m 81 906 b 308 1075 99 1015 190 1075 b 471 906 425 1075 489 1011 b 249 738 453 800 364 738 b 81 906 131 738 63 799 m 318 906 b 285 947 322 933 311 947 b 232 906 254 947 236 933 b 271 865 228 882 243 865 b 318 906 297 865 314 879 "},"˛":{"ha":350,"x_min":0,"x_max":0,"o":"m 256 8 b 142 -150 183 -49 146 -101 b 161 -175 140 -167 146 -175 b 189 -167 168 -175 178 -172 b 222 -175 207 -156 218 -158 l 242 -249 b 222 -294 246 -268 240 -283 b 46 -342 171 -326 113 -342 b -97 -246 -47 -342 -96 -310 b 49 1 -100 -167 -51 -83 "},"˜":{"ha":424,"x_min":0,"x_max":0,"o":"m 557 1015 b 585 982 579 1015 589 1004 b 407 804 563 853 503 804 b 286 828 363 804 322 813 b 221 851 250 843 228 851 b 199 829 208 851 201 844 b 169 804 196 813 186 804 l 63 804 b 35 838 42 804 32 815 b 210 1015 57 956 115 1015 b 332 992 254 1015 294 1007 b 400 968 369 976 392 968 b 422 990 413 968 419 975 b 451 1015 425 1007 435 1015 "},"˝":{"ha":549,"x_min":0,"x_max":0,"o":"m 211 993 b 313 1031 240 1025 275 1038 l 426 1010 b 432 949 464 1004 465 971 l 238 808 b 169 788 211 790 189 783 l 88 800 b 79 856 51 806 57 832 m 515 993 b 617 1026 547 1025 581 1036 l 733 997 b 736 935 771 988 771 957 l 535 807 b 467 786 508 789 485 782 l 385 803 b 379 858 353 808 353 835 "},"̦":{"ha":0,"x_min":0,"x_max":0,"o":"m 164 -315 b 89 -361 149 -346 124 -361 l -18 -361 b -50 -315 -49 -361 -60 -346 l 8 -122 b 82 -60 21 -78 39 -60 l 232 -58 b 268 -122 278 -58 290 -79 "},"π":{"ha":965,"x_min":0,"x_max":0,"o":"m 949 722 b 993 668 989 722 1000 711 l 967 519 b 903 463 960 476 943 463 l 872 463 l 838 269 b 840 153 829 221 831 182 b 794 72 853 114 840 90 l 604 -1 b 532 26 560 -19 542 -14 b 526 238 515 92 514 161 l 567 463 l 497 463 l 425 56 b 360 0 418 15 403 0 l 165 0 b 119 56 125 0 113 13 l 192 463 b 136 449 182 463 163 458 b 68 472 97 432 78 438 l 31 606 b 69 678 21 644 31 661 b 304 722 144 707 222 722 "},"Ё":{"ha":822,"x_min":0,"x_max":0,"o":"m 438 1272 b 532 1163 525 1272 547 1246 l 529 1142 b 396 1032 514 1060 481 1032 l 385 1032 b 293 1142 300 1032 278 1060 l 296 1163 b 426 1272 311 1246 342 1272 m 747 1272 b 840 1163 832 1272 856 1246 l 838 1142 b 706 1032 822 1060 790 1032 l 696 1032 b 601 1142 611 1032 586 1060 l 604 1163 b 738 1272 619 1246 653 1272 m 826 986 b 878 925 872 986 885 971 l 850 769 b 778 708 843 724 824 708 l 433 708 l 421 636 l 688 636 b 738 575 733 636 747 621 l 710 419 b 639 358 703 374 685 358 l 372 358 l 358 279 l 713 279 b 763 218 758 279 772 264 l 735 61 b 663 0 725 15 708 0 l 47 0 b -3 61 1 0 -10 15 l 150 925 b 221 986 157 971 175 986 "},"А":{"ha":978,"x_min":0,"x_max":0,"o":"m 921 60 b 867 0 928 19 910 0 l 678 0 b 583 64 607 0 588 18 l 576 135 l 315 135 l 283 64 b 172 0 263 18 238 0 l -28 0 b -56 60 -71 0 -78 19 l 408 936 b 492 986 429 976 447 986 l 697 986 b 764 938 740 986 757 975 m 542 499 b 546 661 538 561 542 621 l 550 690 l 536 690 b 481 500 525 622 507 560 l 429 388 l 553 388 "},"Б":{"ha":893,"x_min":0,"x_max":0,"o":"m 860 988 b 910 926 906 988 919 972 l 888 799 b 815 738 878 753 861 738 l 440 738 l 425 651 l 575 651 b 810 556 676 651 754 619 b 865 307 864 490 883 408 b 481 0 832 111 686 0 l 47 0 b -1 58 3 0 -8 14 l 151 926 b 224 988 161 972 178 988 m 544 326 b 469 400 551 381 529 400 l 381 400 l 354 251 l 443 251 b 544 326 503 251 536 276 "},"В":{"ha":918,"x_min":0,"x_max":0,"o":"m 644 988 b 917 714 844 988 946 885 b 776 521 900 624 861 571 l 775 514 b 875 264 860 474 896 382 b 483 0 843 90 696 0 l 47 0 b -3 61 1 0 -10 15 l 150 926 b 222 988 157 972 176 988 m 583 682 b 522 742 590 725 571 742 l 439 742 l 418 624 l 501 624 b 583 682 549 624 576 643 m 550 313 b 486 375 557 357 538 375 l 375 375 l 353 247 l 464 247 b 550 313 514 247 543 269 "},"Г":{"ha":749,"x_min":0,"x_max":0,"o":"m 775 986 b 826 925 821 986 833 971 l 799 769 b 726 708 789 724 772 708 l 433 708 l 319 61 b 247 0 313 15 293 0 l 47 0 b -3 61 1 0 -10 15 l 150 925 b 221 986 157 971 175 986 "},"Д":{"ha":1135,"x_min":0,"x_max":0,"o":"m 1029 986 b 1081 925 1075 986 1088 971 l 967 279 l 1033 279 b 1083 219 1079 279 1093 264 l 1018 -151 b 946 -212 1008 -197 992 -212 l 750 -212 b 700 -151 704 -212 693 -197 l 726 0 l 272 0 l 246 -151 b 174 -212 236 -197 219 -212 l -22 -212 b -72 -151 -68 -212 -79 -197 l -7 219 b 65 279 3 264 19 279 l 99 279 b 258 590 189 351 232 436 l 318 925 b 389 986 325 971 343 986 m 590 707 l 569 592 b 463 279 547 465 511 361 l 644 279 l 719 707 "},"Е":{"ha":822,"x_min":0,"x_max":0,"o":"m 826 986 b 878 925 872 986 885 971 l 850 769 b 778 708 843 724 824 708 l 433 708 l 421 636 l 688 636 b 738 575 733 636 747 621 l 710 419 b 639 358 703 374 685 358 l 372 358 l 358 279 l 713 279 b 763 218 758 279 772 264 l 735 61 b 663 0 725 15 708 0 l 47 0 b -3 61 1 0 -10 15 l 150 925 b 221 986 157 971 175 986 "},"Ж":{"ha":1388,"x_min":0,"x_max":0,"o":"m 1429 986 b 1456 919 1472 986 1482 964 l 1188 492 b 1210 432 1200 458 1208 439 l 1321 76 b 1265 0 1333 32 1314 0 l 1078 0 b 958 65 999 0 971 11 l 900 310 b 861 358 896 340 890 358 l 851 358 l 799 61 b 726 0 792 15 772 0 l 526 0 b 476 61 481 0 469 15 l 529 358 l 521 358 b 461 310 500 358 479 342 l 317 65 b 175 0 285 11 254 0 l -12 0 b -40 76 -61 0 -69 33 l 196 432 b 240 492 214 458 228 478 l 122 919 b 171 986 111 964 128 986 l 369 986 b 471 931 446 986 458 979 l 547 636 b 569 638 553 638 560 638 l 578 638 l 629 925 b 700 986 636 971 654 986 l 900 986 b 951 925 946 986 958 971 l 900 638 l 908 638 b 931 636 918 638 925 638 l 1110 931 b 1153 976 1125 954 1139 969 b 1231 986 1167 983 1193 986 "},"З":{"ha":911,"x_min":0,"x_max":0,"o":"m 911 700 b 768 517 893 606 851 557 b 871 274 860 472 894 392 b 408 -21 832 72 688 -21 b -6 231 165 -21 28 63 b 47 310 -12 269 6 296 l 225 369 b 296 331 271 385 286 375 b 419 250 306 279 354 250 b 542 308 504 250 532 264 b 482 365 549 351 532 365 l 379 365 b 328 426 333 365 321 381 l 353 569 b 425 631 360 615 379 631 l 508 631 b 579 683 554 631 572 640 b 506 736 586 722 563 736 b 350 656 433 736 382 710 b 265 617 326 611 308 600 l 113 676 b 88 754 72 692 65 711 b 579 1007 181 922 344 1007 b 911 700 825 1007 949 893 "},"И":{"ha":983,"x_min":0,"x_max":0,"o":"m 974 988 b 1024 926 1019 988 1031 972 l 871 61 b 799 0 864 15 844 0 l 600 0 b 550 63 554 0 540 17 l 579 224 b 614 367 589 283 596 317 b 633 421 622 392 629 410 b 664 492 638 431 647 454 b 700 575 681 529 693 557 l 688 575 b 508 279 619 451 560 353 l 332 28 b 267 0 318 10 296 0 l 50 0 b 0 61 4 0 -10 15 l 153 925 b 224 986 160 971 178 986 l 424 986 b 475 925 469 986 482 971 l 446 764 b 406 592 433 689 419 632 b 325 413 392 551 365 492 l 338 413 b 394 511 354 440 374 474 b 440 589 415 549 431 574 b 517 708 457 618 485 664 l 693 960 b 758 988 707 978 729 988 "},"Й":{"ha":983,"x_min":0,"x_max":0,"o":"m 903 1196 b 611 1043 846 1094 749 1043 b 374 1196 474 1043 394 1094 b 407 1246 368 1219 379 1236 l 525 1288 b 576 1271 558 1299 564 1297 b 644 1233 590 1246 613 1233 b 722 1271 674 1233 700 1246 b 781 1288 744 1294 749 1299 l 886 1246 b 903 1196 913 1236 918 1224 m 974 988 b 1024 926 1019 988 1031 972 l 871 61 b 799 0 864 15 844 0 l 600 0 b 550 63 554 0 540 17 l 579 224 b 614 367 589 283 596 317 b 633 421 622 392 629 410 b 664 492 638 431 647 454 b 700 575 681 529 693 557 l 688 575 b 508 279 619 451 560 353 l 332 28 b 267 0 318 10 296 0 l 50 0 b 0 61 4 0 -10 15 l 153 925 b 224 986 160 971 178 986 l 424 986 b 475 925 469 986 482 971 l 446 764 b 406 592 433 689 419 632 b 325 413 392 551 365 492 l 338 413 b 394 511 354 440 374 474 b 440 589 415 549 431 574 b 517 708 457 618 485 664 l 693 960 b 758 988 707 978 729 988 "},"К":{"ha":926,"x_min":0,"x_max":0,"o":"m 864 76 b 808 0 879 32 857 0 l 621 0 b 501 65 543 0 519 11 l 431 299 b 383 357 418 338 403 357 l 371 357 l 319 61 b 247 0 313 15 293 0 l 47 0 b -3 61 1 0 -10 15 l 150 925 b 221 986 157 971 175 986 l 421 986 b 472 925 467 986 479 971 l 421 636 l 436 636 l 446 636 l 653 931 b 699 976 669 954 685 969 b 774 986 711 983 736 986 l 972 986 b 999 919 1017 986 1028 960 l 701 497 b 739 432 717 482 729 460 "},"Л":{"ha":985,"x_min":0,"x_max":0,"o":"m 976 986 b 1028 925 1022 986 1035 971 l 875 61 b 803 0 865 15 849 0 l 603 0 b 553 61 557 0 543 15 l 667 707 l 557 707 l 536 592 b 392 204 507 424 458 294 b 129 -10 325 113 238 42 b 53 19 85 -28 69 -21 l -22 189 b 21 272 -37 229 -25 246 b 151 389 78 304 121 343 b 219 590 181 435 204 503 l 279 925 b 350 986 286 971 304 986 "},"М":{"ha":1157,"x_min":0,"x_max":0,"o":"m 1146 988 b 1196 929 1192 988 1203 974 l 1043 58 b 971 0 1036 14 1017 0 l 774 0 b 724 58 728 0 717 14 l 738 144 b 782 318 749 204 764 263 b 883 560 800 374 833 454 l 869 560 b 756 357 810 450 771 383 l 672 219 b 597 179 654 193 629 179 l 475 179 b 413 219 436 179 422 190 l 374 357 l 336 560 l 324 560 b 338 294 333 425 339 336 b 319 143 336 251 329 201 l 306 58 b 233 0 299 14 279 0 l 49 0 b -1 58 3 0 -8 14 l 151 929 b 224 988 158 974 178 988 l 393 988 b 471 944 444 988 461 979 l 597 503 l 878 943 b 967 988 901 981 918 988 "},"Н":{"ha":963,"x_min":0,"x_max":0,"o":"m 953 988 b 1003 926 999 988 1013 972 l 850 61 b 778 0 840 15 824 0 l 578 0 b 528 61 532 0 518 15 l 581 361 l 375 361 l 322 61 b 250 0 313 15 296 0 l 50 0 b 0 61 4 0 -10 15 l 153 926 b 225 988 163 972 179 988 l 425 988 b 475 926 471 988 482 972 l 424 639 l 629 639 l 681 926 b 753 988 690 972 707 988 "},"О":{"ha":957,"x_min":0,"x_max":0,"o":"m 104 618 b 611 1007 147 868 328 1007 b 919 892 751 1007 854 968 b 985 586 985 815 1007 713 l 946 364 b 439 -21 901 115 724 -21 b 131 93 299 -21 196 17 b 65 396 65 168 43 269 m 668 622 b 567 728 681 690 644 728 b 426 622 486 728 439 693 l 381 364 b 483 258 369 293 404 258 b 622 364 565 258 611 293 "},"П":{"ha":956,"x_min":0,"x_max":0,"o":"m 942 986 b 993 925 988 986 1000 971 l 840 61 b 768 0 831 15 814 0 l 568 0 b 518 61 522 0 508 15 l 632 708 l 433 708 l 319 61 b 247 0 313 15 293 0 l 47 0 b -3 61 1 0 -10 15 l 150 925 b 221 986 157 971 175 986 "},"Р":{"ha":910,"x_min":0,"x_max":0,"o":"m 617 986 b 869 881 729 986 813 951 b 922 601 925 810 943 717 b 494 272 883 379 726 272 l 357 272 l 319 61 b 247 0 313 15 293 0 l 47 0 b -3 61 1 0 -10 15 l 150 925 b 221 986 157 971 175 986 m 501 550 b 529 708 604 542 639 717 l 433 708 l 406 550 "},"С":{"ha":908,"x_min":0,"x_max":0,"o":"m 106 628 b 614 1007 149 874 329 1007 b 972 750 821 1007 940 921 b 922 672 982 707 968 688 l 739 610 b 667 649 693 597 676 604 b 567 728 656 706 632 728 b 424 606 472 728 440 694 l 383 381 b 483 258 368 292 389 258 b 614 338 540 258 585 285 b 699 376 640 382 658 392 l 879 307 b 904 228 922 292 928 271 b 439 -21 814 63 660 -21 b 131 94 299 -21 196 18 b 65 397 65 171 43 271 "},"Т":{"ha":864,"x_min":0,"x_max":0,"o":"m 893 986 b 944 925 939 986 951 971 l 917 769 b 844 708 910 724 890 708 l 649 708 l 535 61 b 463 0 525 15 508 0 l 263 0 b 213 61 217 0 203 15 l 326 708 l 131 708 b 81 769 85 708 74 724 l 108 925 b 179 986 115 971 133 986 "},"У":{"ha":881,"x_min":0,"x_max":0,"o":"m 953 986 b 974 925 993 986 1000 969 l 471 54 b 361 0 444 10 426 0 l 138 0 b 118 61 100 0 94 21 l 260 300 l 94 925 b 140 986 83 969 97 986 l 350 986 b 447 933 418 986 438 978 l 496 699 l 629 933 b 733 986 653 978 672 986 "},"Ф":{"ha":1214,"x_min":0,"x_max":0,"o":"m 843 1021 b 893 960 889 1021 900 1006 l 883 903 l 901 903 b 1250 506 1167 903 1289 751 l 1242 453 b 765 90 1199 211 1039 90 l 740 90 l 729 32 b 657 -29 719 -14 703 -29 l 458 -29 b 408 32 413 -29 399 -14 l 419 90 l 394 90 b 51 489 129 90 13 240 l 60 542 b 538 903 103 782 261 903 l 563 903 l 572 960 b 644 1021 579 1006 599 1021 m 510 632 b 390 535 442 632 401 600 l 376 458 b 463 361 365 393 394 361 l 467 361 l 514 632 m 925 535 b 839 632 936 600 907 632 l 835 632 l 788 361 l 792 361 b 911 458 860 361 900 393 "},"Х":{"ha":936,"x_min":0,"x_max":0,"o":"m 997 986 b 1015 929 1036 986 1042 961 l 671 503 l 878 61 b 836 0 894 28 879 0 l 614 0 b 504 54 538 0 522 6 l 439 236 l 308 54 b 263 11 293 32 278 18 b 179 0 247 4 219 0 l -35 0 b -54 61 -78 0 -83 24 l 304 503 l 113 929 b 151 986 97 961 113 986 l 356 986 b 467 936 433 986 451 979 l 532 763 l 656 936 b 701 979 671 960 686 974 b 775 986 715 983 740 986 "},"Ц":{"ha":1032,"x_min":0,"x_max":0,"o":"m 931 279 b 981 219 976 279 990 264 l 915 -153 b 843 -214 906 -199 889 -214 l 661 -214 b 611 -153 615 -214 601 -199 l 638 0 l 47 0 b -3 61 1 0 -10 15 l 150 925 b 221 986 157 971 175 986 l 421 986 b 472 925 467 986 479 971 l 358 279 l 556 279 l 669 925 b 740 986 676 971 694 986 l 940 986 b 992 925 986 986 999 971 l 878 279 "},"Ч":{"ha":924,"x_min":0,"x_max":0,"o":"m 943 986 b 994 925 989 986 1001 971 l 842 61 b 769 0 832 15 815 0 l 569 0 b 519 61 524 0 510 15 l 561 301 b 450 297 531 299 493 297 b 125 736 165 297 75 447 l 158 925 b 229 986 168 971 183 986 l 429 986 b 481 925 475 986 488 971 l 443 714 b 564 600 426 629 453 600 b 615 603 576 600 593 601 l 672 925 b 743 986 679 971 697 986 "},"Ш":{"ha":1338,"x_min":0,"x_max":0,"o":"m 1324 986 b 1375 925 1369 986 1382 971 l 1222 61 b 1150 0 1213 15 1196 0 l 47 0 b -3 61 1 0 -10 15 l 150 925 b 221 986 157 971 175 986 l 421 986 b 472 925 467 986 479 971 l 358 279 l 488 279 l 601 925 b 672 986 608 971 626 986 l 872 986 b 924 925 918 986 931 971 l 810 279 l 939 279 l 1053 925 b 1124 986 1060 971 1078 986 "},"Щ":{"ha":1415,"x_min":0,"x_max":0,"o":"m 1314 279 b 1364 219 1360 279 1374 264 l 1299 -154 b 1226 -215 1289 -200 1272 -215 l 1044 -215 b 994 -154 999 -215 988 -200 l 1021 0 l 47 0 b -3 61 1 0 -10 15 l 150 925 b 221 986 157 971 175 986 l 421 986 b 472 925 467 986 479 971 l 358 279 l 488 279 l 601 925 b 672 986 608 971 626 986 l 872 986 b 924 925 918 986 931 971 l 810 279 l 939 279 l 1053 925 b 1124 986 1060 971 1078 986 l 1324 986 b 1375 925 1369 986 1382 971 l 1261 279 "},"Ъ":{"ha":1117,"x_min":0,"x_max":0,"o":"m 765 714 b 1025 613 878 714 965 681 b 1085 340 1085 544 1104 453 b 660 0 1044 114 889 0 l 253 0 b 203 61 207 0 196 15 l 317 707 l 131 707 b 81 768 85 707 74 722 l 108 925 b 179 986 115 971 133 986 l 626 986 b 678 925 672 986 685 971 l 640 714 m 658 278 b 753 357 708 278 746 311 b 688 436 763 403 738 436 l 592 436 l 563 278 "},"Ы":{"ha":1318,"x_min":0,"x_max":0,"o":"m 878 342 b 457 0 838 114 686 0 l 50 0 b 0 61 4 0 -10 15 l 153 925 b 224 986 160 971 178 986 l 424 986 b 475 925 469 986 482 971 l 438 714 l 563 714 b 821 613 675 714 761 681 b 878 342 879 544 899 454 m 1038 931 b 1103 986 1047 974 1063 986 l 1314 986 b 1360 931 1357 986 1367 971 l 1206 56 b 1140 0 1199 15 1183 0 l 929 0 b 883 56 889 0 876 13 m 550 357 b 485 436 560 403 535 436 l 389 436 l 360 278 l 456 278 b 550 357 506 278 543 311 "},"Ь":{"ha":907,"x_min":0,"x_max":0,"o":"m 875 342 b 454 0 835 114 683 0 l 47 0 b -3 61 1 0 -10 15 l 150 925 b 221 986 157 971 175 986 l 421 986 b 472 925 467 986 479 971 l 435 714 l 560 714 b 818 613 672 714 758 681 b 875 342 876 544 896 454 m 547 357 b 482 436 557 403 532 436 l 386 436 l 357 278 l 453 278 b 547 357 503 278 540 311 "},"Э":{"ha":918,"x_min":0,"x_max":0,"o":"m 88 754 b 553 1007 181 922 335 1007 b 858 892 692 1007 793 968 b 922 586 924 815 944 713 l 883 364 b 382 -21 839 114 664 -21 b -6 231 161 -21 26 68 b 47 310 -12 269 6 296 l 226 369 b 297 331 272 385 288 375 b 419 250 307 279 354 250 b 558 356 501 250 547 285 l 560 365 l 379 365 b 328 426 333 365 321 381 l 353 569 b 425 631 360 615 379 631 l 607 631 l 608 640 b 506 736 619 703 583 736 b 350 657 432 736 381 710 b 265 618 326 613 308 603 l 113 676 b 88 754 72 692 65 711 "},"Ю":{"ha":1367,"x_min":0,"x_max":0,"o":"m 519 654 b 681 914 539 764 593 851 b 1007 1007 768 976 876 1007 b 1307 893 1144 1007 1244 969 b 1368 589 1369 817 1390 715 l 1329 367 b 833 -21 1285 117 1111 -21 b 535 79 701 -21 601 13 b 464 347 468 146 444 235 l 467 361 l 375 361 l 322 61 b 250 0 313 15 296 0 l 50 0 b 0 61 4 0 -10 15 l 153 925 b 224 986 160 971 178 986 l 424 986 b 475 925 469 986 482 971 l 424 639 l 517 639 m 1053 626 b 961 728 1064 694 1033 728 b 835 626 888 728 846 694 l 788 360 b 878 258 775 293 807 258 b 1006 360 950 258 993 292 "},"Я":{"ha":926,"x_min":0,"x_max":0,"o":"m 88 660 b 507 986 126 878 281 986 l 914 986 b 965 925 960 986 972 971 l 813 61 b 740 0 803 15 786 0 l 540 0 b 490 61 494 0 483 15 l 533 307 l 521 307 b 431 246 476 307 457 290 l 328 65 b 186 0 296 11 265 0 l -1 0 b -29 76 -51 0 -61 31 l 103 279 b 172 376 132 328 156 360 b 88 660 93 439 65 533 m 497 708 b 415 640 451 708 425 686 b 474 572 408 597 429 572 l 581 572 l 604 708 "},"а":{"ha":763,"x_min":0,"x_max":0,"o":"m 58 439 b 463 743 96 649 225 743 b 739 694 581 743 672 726 b 781 610 783 671 790 658 l 688 83 b 619 15 681 43 664 26 b 303 -21 526 -8 421 -21 b 36 311 88 -21 1 107 m 447 481 b 419 483 440 482 431 483 b 364 442 388 483 369 469 l 335 275 b 371 238 331 250 343 238 l 411 240 l 451 472 b 447 481 453 476 451 479 "},"б":{"ha":779,"x_min":0,"x_max":0,"o":"m 636 1013 b 743 1031 682 1013 717 1018 b 814 993 789 1049 807 1038 l 838 865 b 789 786 843 822 832 808 b 617 763 754 771 696 763 l 551 763 b 415 694 481 763 422 739 l 414 688 b 504 701 444 697 475 701 b 771 375 703 701 804 586 l 756 283 b 349 -21 721 85 582 -21 b 43 306 119 -21 8 106 l 83 536 b 244 907 115 713 168 836 b 590 1013 321 978 436 1013 m 471 399 b 425 444 475 429 460 444 b 364 399 389 444 368 429 l 343 282 b 388 238 338 253 353 238 b 450 282 424 238 444 253 "},"в":{"ha":749,"x_min":0,"x_max":0,"o":"m 182 701 b 465 743 256 729 350 743 b 676 676 560 743 631 721 b 728 513 722 632 740 578 b 613 374 717 453 678 406 b 708 219 681 350 721 293 b 314 -21 681 60 560 -19 b 49 24 200 -21 111 -6 b 3 132 8 42 -7 78 l 85 597 b 182 701 94 646 126 681 m 436 497 b 404 539 442 525 431 539 l 375 535 b 368 528 371 533 369 532 l 356 453 l 385 453 b 436 497 414 453 431 468 m 407 232 b 363 279 411 264 397 279 l 325 279 l 308 192 b 311 186 308 189 310 188 b 347 182 315 183 326 182 b 407 232 382 182 401 199 "},"г":{"ha":725,"x_min":0,"x_max":0,"o":"m 99 594 b 454 743 172 696 271 743 b 735 500 654 743 761 649 b 643 346 722 426 692 375 b 406 294 594 317 515 300 b 281 247 317 290 285 276 b 299 224 279 235 282 226 b 349 219 314 221 321 219 b 451 253 386 219 421 231 b 536 265 481 275 485 278 l 653 219 b 674 144 688 207 694 182 b 304 -21 611 35 488 -21 b 65 50 197 -21 118 3 b 8 229 13 97 -7 157 b 160 407 26 317 58 367 b 364 446 211 426 279 439 b 464 476 442 451 460 456 b 390 504 468 499 451 506 b 306 478 358 503 331 494 l 297 472 b 222 467 278 458 263 449 l 115 515 b 99 594 78 532 72 558 "},"д":{"ha":781,"x_min":0,"x_max":0,"o":"m 240 972 b 311 1033 247 1018 265 1033 b 660 992 492 1033 608 1019 b 786 515 814 908 838 758 l 746 285 b 336 -21 711 89 568 -21 b 32 292 103 -21 -3 93 l 53 411 b 422 674 85 588 221 674 b 558 643 474 674 519 664 b 489 772 565 719 540 750 b 269 797 454 789 381 797 b 219 858 224 797 210 813 m 461 399 b 417 444 465 429 451 444 b 354 399 379 444 358 429 l 333 282 b 379 238 328 253 343 238 b 440 282 414 238 435 253 "},"е":{"ha":760,"x_min":0,"x_max":0,"o":"m 58 443 b 465 743 92 632 239 743 b 783 492 686 743 801 660 b 499 285 768 368 658 285 b 338 290 432 285 378 286 l 333 267 b 381 197 325 221 340 197 b 454 221 414 197 444 213 b 476 242 458 225 467 232 b 554 253 496 265 522 268 l 671 199 b 688 119 708 182 714 163 b 343 -21 621 26 506 -21 b 35 308 97 -21 0 108 m 485 504 b 438 543 489 531 472 543 b 371 482 401 543 379 522 l 368 468 b 426 465 390 467 410 465 b 485 504 461 465 481 478 "},"ж":{"ha":1132,"x_min":0,"x_max":0,"o":"m 726 722 b 771 667 767 722 778 707 l 739 485 l 749 485 l 753 485 l 842 664 b 954 722 864 710 892 722 l 1107 722 b 1144 647 1160 722 1172 697 l 985 354 l 989 338 l 1054 78 b 989 0 1067 24 1051 0 l 831 0 b 731 57 760 0 735 11 l 721 221 b 707 247 721 233 717 243 b 697 249 706 249 701 249 l 663 56 b 599 0 656 15 639 0 l 403 0 b 358 56 363 0 351 13 l 393 249 b 385 247 389 249 386 249 b 358 221 372 244 364 236 l 290 57 b 171 0 269 11 242 0 l 13 0 b -25 78 -49 0 -58 26 l 132 346 l 142 363 l 85 647 b 150 722 75 697 96 722 l 303 722 b 393 664 365 722 386 710 l 421 485 l 426 485 l 435 485 l 467 667 b 531 722 474 710 490 722 "},"з":{"ha":732,"x_min":0,"x_max":0,"o":"m 64 550 b 439 743 132 679 257 743 b 725 517 640 743 751 657 b 619 376 715 451 679 404 l 618 371 b 686 199 678 338 700 281 b 332 -21 663 60 567 -21 b -15 178 136 -21 17 51 b 38 258 -25 219 -8 246 l 165 294 b 231 267 219 304 221 296 b 335 203 236 233 249 208 b 408 236 389 203 404 213 b 367 265 413 257 400 265 l 301 265 b 264 311 268 265 257 278 l 282 417 b 336 461 286 446 304 461 l 404 461 b 454 492 433 461 450 471 b 404 521 457 511 440 521 b 293 492 343 521 304 504 b 272 463 288 485 281 475 b 243 429 260 443 250 432 b 203 433 233 426 221 428 l 89 471 b 64 550 51 483 43 510 "},"и":{"ha":774,"x_min":0,"x_max":0,"o":"m 754 722 b 800 667 794 722 807 710 l 703 119 b 628 33 693 69 679 51 b 313 -21 532 -3 426 -21 b 44 306 96 -21 10 104 l 108 667 b 174 722 115 707 131 722 l 368 722 b 414 667 408 722 421 710 l 350 304 b 390 253 343 265 353 253 b 413 254 397 253 406 253 b 424 265 419 256 422 258 l 494 667 b 560 722 501 707 517 722 "},"й":{"ha":774,"x_min":0,"x_max":0,"o":"m 768 929 b 461 768 708 822 606 768 b 213 929 318 768 235 822 b 247 982 206 957 214 969 l 369 1025 b 425 1008 408 1036 413 1035 b 496 968 442 979 458 968 b 579 1008 528 968 556 982 b 639 1025 601 1032 607 1036 l 751 982 b 768 929 776 972 782 954 m 754 722 b 800 667 794 722 807 710 l 703 119 b 628 33 693 69 679 51 b 313 -21 532 -3 426 -21 b 44 306 96 -21 10 104 l 108 667 b 174 722 115 707 131 722 l 368 722 b 414 667 408 722 421 710 l 350 304 b 390 253 343 265 353 253 b 413 254 397 253 406 253 b 424 265 419 256 422 258 l 494 667 b 560 722 501 707 517 722 "},"к":{"ha":790,"x_min":0,"x_max":0,"o":"m 711 78 b 646 0 726 26 706 0 l 492 0 b 397 57 424 0 407 11 l 364 221 b 336 250 360 240 350 250 l 326 250 l 292 56 b 228 0 285 15 268 0 l 32 0 b -12 56 -8 0 -19 13 l 96 667 b 160 722 103 710 119 722 l 356 722 b 400 667 396 722 407 707 l 368 485 l 382 485 l 390 485 l 499 664 b 611 722 526 710 550 722 l 764 722 b 801 647 821 722 833 697 l 622 361 l 632 335 "},"л":{"ha":800,"x_min":0,"x_max":0,"o":"m 757 722 b 803 667 797 722 810 710 l 699 56 b 633 0 692 15 676 0 l 439 0 b 393 56 399 0 386 13 l 465 460 l 413 460 l 407 432 b 243 65 368 233 315 128 b 103 -19 192 19 160 4 b 39 10 74 -32 53 -22 l -32 169 b 1 233 -43 201 -33 215 b 57 274 25 246 43 260 b 101 350 69 286 85 313 b 144 501 117 388 132 439 l 178 667 b 242 722 188 710 201 722 "},"м":{"ha":939,"x_min":0,"x_max":0,"o":"m 893 722 b 942 663 942 722 951 708 l 835 56 b 769 0 828 13 813 0 l 613 0 b 564 57 574 0 557 19 l 574 106 b 588 175 578 135 583 158 b 613 249 592 190 600 215 b 671 381 625 282 644 326 l 660 381 b 596 261 633 326 613 286 l 539 174 b 461 131 517 140 500 131 l 385 131 b 322 174 346 131 332 140 l 296 261 l 276 381 l 265 381 b 276 201 272 286 276 226 b 265 104 276 175 272 143 l 257 57 b 188 0 250 19 228 0 l 33 0 b -12 56 -11 0 -19 11 l 94 663 b 167 722 104 707 118 722 l 322 722 b 393 678 367 722 382 713 l 474 422 l 646 676 b 731 722 668 711 688 722 "},"н":{"ha":776,"x_min":0,"x_max":0,"o":"m 736 722 b 781 667 776 722 788 710 l 672 56 b 608 0 665 13 649 0 l 413 0 b 368 56 372 0 361 13 l 400 236 l 324 236 l 292 56 b 228 0 285 15 268 0 l 32 0 b -12 56 -8 0 -19 13 l 96 667 b 160 722 103 710 119 722 l 356 722 b 400 667 396 722 407 707 l 369 499 l 446 499 l 476 667 b 540 722 483 707 500 722 "},"о":{"ha":769,"x_min":0,"x_max":0,"o":"m 56 440 b 465 743 90 636 232 743 b 767 418 697 743 800 618 l 744 285 b 332 -21 710 89 567 -21 b 33 307 104 -21 0 107 m 467 440 b 421 486 472 471 457 486 b 360 440 386 486 365 471 l 332 282 b 376 238 326 253 342 238 b 439 282 413 238 433 253 "},"п":{"ha":774,"x_min":0,"x_max":0,"o":"m 157 689 b 472 743 253 725 358 743 b 743 432 690 743 778 632 l 676 56 b 611 0 669 15 654 0 l 417 0 b 371 56 376 0 364 13 l 435 418 b 394 469 442 457 432 469 b 368 468 382 469 374 469 b 363 463 364 467 363 465 l 290 56 b 225 0 283 15 268 0 l 31 0 b -15 56 -10 0 -22 13 l 82 603 b 157 689 92 653 106 671 "},"р":{"ha":764,"x_min":0,"x_max":0,"o":"m 156 692 b 461 743 247 726 349 743 b 739 417 683 743 774 618 l 717 289 b 336 -21 679 82 553 -21 b 276 -19 321 -21 289 -19 l 236 -249 b 171 -304 226 -292 211 -304 l -24 -304 b -69 -249 -67 -304 -76 -289 l 82 610 b 156 692 89 658 101 671 m 439 446 b 403 483 443 471 432 483 l 369 479 b 363 472 365 478 364 476 l 322 242 b 354 238 332 239 343 238 b 410 279 386 238 404 251 "},"с":{"ha":722,"x_min":0,"x_max":0,"o":"m 58 439 b 463 743 94 642 229 743 b 744 540 633 743 724 663 b 693 464 751 497 738 479 l 529 411 b 457 449 481 396 467 406 b 410 493 450 486 436 493 b 363 443 385 493 369 476 l 335 279 b 363 231 329 247 339 231 b 422 274 389 231 401 236 b 507 310 446 317 467 325 l 672 258 b 696 178 711 246 719 219 b 319 -21 617 46 490 -21 b 36 310 90 -21 1 104 "},"т":{"ha":1117,"x_min":0,"x_max":0,"o":"m 626 710 b 825 743 693 732 760 743 b 1085 432 1038 743 1119 632 l 1018 56 b 953 0 1011 15 996 0 l 758 0 b 713 56 718 0 706 13 l 778 424 b 747 469 783 458 776 469 b 726 468 739 469 732 469 b 719 425 725 457 724 443 l 654 56 b 589 0 647 15 632 0 l 394 0 b 349 56 354 0 342 13 l 414 424 b 383 469 419 458 413 469 l 369 469 b 363 461 365 469 363 467 l 290 56 b 225 0 283 15 268 0 l 31 0 b -15 56 -10 0 -22 13 l 82 603 b 157 689 92 653 106 671 b 461 743 253 725 354 743 b 626 710 529 743 585 732 "},"у":{"ha":776,"x_min":0,"x_max":0,"o":"m 751 722 b 797 667 792 722 804 710 l 679 0 b 274 -319 642 -212 506 -319 b -11 -171 117 -319 35 -275 b 33 -92 -26 -137 -12 -111 l 188 -22 b 258 -39 233 0 244 -18 b 314 -81 272 -62 279 -76 b 369 -28 344 -81 363 -62 l 378 22 b 317 21 365 21 344 21 b 50 354 101 21 13 150 l 106 667 b 171 722 113 707 128 722 l 365 722 b 411 667 406 722 418 710 l 354 346 b 396 294 347 307 358 294 b 426 296 408 294 419 294 l 492 667 b 557 722 499 707 514 722 "},"ф":{"ha":1074,"x_min":0,"x_max":0,"o":"m 776 743 l 794 743 b 1071 381 1021 743 1111 607 l 1057 304 b 661 -21 1018 83 890 -21 l 643 -21 l 601 -250 b 536 -306 594 -290 579 -306 l 342 -306 b 296 -250 301 -306 289 -293 l 338 -21 l 319 -21 b 43 340 93 -21 3 114 l 57 417 b 453 743 96 638 224 743 l 471 743 l 513 972 b 578 1028 519 1013 535 1028 l 772 1028 b 818 972 813 1028 825 1015 m 339 294 b 374 238 332 257 343 238 l 389 238 l 432 483 l 418 483 b 361 428 388 483 368 465 m 775 428 b 740 483 782 465 771 483 l 724 483 l 681 238 l 696 238 b 753 294 728 238 747 257 "},"х":{"ha":800,"x_min":0,"x_max":0,"o":"m 797 722 b 824 657 851 722 860 700 l 590 372 l 731 65 b 679 0 753 19 740 0 l 500 0 b 408 47 435 0 421 4 l 367 183 l 279 47 b 171 0 253 4 233 0 l -12 0 b -43 65 -78 0 -82 21 l 208 371 l 72 657 b 126 722 51 700 69 722 l 300 722 b 394 675 363 722 382 715 l 431 564 l 504 675 b 608 722 532 718 547 722 "},"ц":{"ha":847,"x_min":0,"x_max":0,"o":"m 369 722 b 415 667 410 722 422 710 l 351 304 b 392 253 344 265 354 253 b 422 254 406 253 415 253 l 496 667 b 561 722 503 707 518 722 l 756 722 b 801 667 796 722 808 710 l 729 263 b 811 164 790 267 824 232 l 760 -137 b 694 -193 753 -178 738 -193 l 510 -193 b 464 -137 469 -193 457 -178 l 481 -37 b 453 -10 485 -17 479 -6 b 304 -21 410 -17 360 -21 b 47 315 83 -21 10 106 l 110 667 b 175 722 117 707 132 722 "},"ч":{"ha":743,"x_min":0,"x_max":0,"o":"m 92 667 b 157 722 99 707 114 722 l 351 722 b 397 667 392 722 404 710 l 364 479 b 392 444 360 456 369 444 b 418 450 404 444 414 449 l 421 453 l 458 667 b 524 722 465 707 481 722 l 718 722 b 764 667 758 722 771 710 l 656 56 b 590 0 649 15 633 0 l 396 0 b 350 56 356 0 343 13 l 374 186 b 275 181 339 182 306 181 b 57 467 97 181 28 289 "},"ш":{"ha":1115,"x_min":0,"x_max":0,"o":"m 1097 722 b 1143 667 1138 722 1150 710 l 1046 119 b 971 33 1036 69 1022 51 b 667 -21 875 -3 774 -21 b 501 13 599 -21 543 -10 b 303 -21 435 -10 368 -21 b 47 318 88 -21 10 111 l 110 667 b 175 722 117 707 132 722 l 369 722 b 415 667 410 722 422 710 l 350 299 b 381 253 344 264 351 253 b 401 254 389 253 396 253 b 408 297 403 265 404 279 l 474 667 b 539 722 481 707 496 722 l 733 722 b 779 667 774 722 786 710 l 714 299 b 744 253 708 264 715 253 l 758 253 b 765 261 763 253 765 256 l 838 667 b 903 722 844 707 860 722 "},"щ":{"ha":1189,"x_min":0,"x_max":0,"o":"m 110 667 b 175 722 117 707 132 722 l 369 722 b 415 667 410 722 422 710 l 350 299 b 381 253 344 264 351 253 b 401 254 389 253 396 253 b 408 297 403 265 404 279 l 474 667 b 539 722 481 707 496 722 l 733 722 b 779 667 774 722 786 710 l 714 299 b 744 253 708 264 715 253 b 764 254 751 253 758 253 l 838 667 b 903 722 844 707 860 722 l 1097 722 b 1143 667 1138 722 1150 710 l 1071 263 b 1153 164 1132 267 1165 232 l 1101 -137 b 1036 -193 1094 -178 1079 -193 l 851 -193 b 806 -137 811 -193 799 -178 l 822 -37 b 794 -11 826 -17 821 -7 b 667 -21 736 -18 693 -21 b 501 13 599 -21 543 -10 b 303 -21 435 -10 368 -21 b 47 318 88 -21 10 111 "},"ъ":{"ha":863,"x_min":0,"x_max":0,"o":"m 510 546 b 590 550 549 549 575 550 b 768 497 657 550 713 535 b 828 265 822 458 849 376 b 453 -21 799 88 669 -21 b 181 31 351 -21 260 -4 b 135 113 136 51 128 64 l 199 474 l 81 474 b 35 529 40 474 28 486 l 60 667 b 125 722 67 707 82 722 l 486 722 b 532 667 526 722 539 710 m 454 231 b 482 226 458 228 468 226 b 540 275 515 226 535 243 b 494 321 544 306 529 321 l 464 317 l 450 239 b 454 231 450 235 451 232 "},"ы":{"ha":1093,"x_min":0,"x_max":0,"o":"m 367 540 b 447 544 406 543 432 544 b 625 490 514 544 569 529 b 686 258 681 451 707 369 b 311 -21 657 82 529 -21 b 39 31 210 -21 118 -4 b -7 113 -6 51 -14 64 l 92 667 b 157 722 99 707 114 722 l 344 722 b 390 667 388 722 397 707 m 1050 722 b 1096 667 1090 722 1103 710 l 988 56 b 922 0 981 15 965 0 l 728 0 b 682 56 688 0 675 13 l 790 667 b 856 722 797 707 813 722 m 313 231 b 340 226 317 228 326 226 b 399 275 374 226 393 243 b 353 321 403 306 388 321 l 322 317 l 308 239 b 313 231 308 235 310 232 "},"ь":{"ha":724,"x_min":0,"x_max":0,"o":"m 367 540 b 447 544 406 543 432 544 b 625 490 514 544 569 529 b 686 258 681 451 707 369 b 311 -21 657 82 529 -21 b 39 31 210 -21 118 -4 b -7 113 -6 51 -14 64 l 92 667 b 157 722 99 707 114 722 l 344 722 b 390 667 388 722 397 707 m 313 231 b 340 226 317 228 326 226 b 399 275 374 226 393 243 b 353 321 403 306 388 321 l 322 317 l 308 239 b 313 231 308 235 310 232 "},"э":{"ha":733,"x_min":0,"x_max":0,"o":"m 56 551 b 413 743 124 679 242 743 b 719 415 651 743 754 617 l 697 286 b 313 -21 663 82 544 -21 b -10 178 131 -21 22 46 b 43 258 -19 219 -3 246 l 171 294 b 239 274 208 304 231 297 b 264 221 244 258 251 235 b 321 203 275 208 293 203 b 399 258 372 203 392 219 l 400 265 l 293 265 b 256 311 260 265 249 278 l 274 417 b 328 461 278 446 296 461 l 435 461 l 435 467 b 375 521 442 506 425 521 b 303 496 339 521 317 510 b 272 458 293 486 278 469 b 194 435 253 432 226 425 l 81 472 b 56 551 43 485 35 511 "},"ю":{"ha":1121,"x_min":0,"x_max":0,"o":"m 410 508 b 797 743 454 664 593 743 b 1097 414 1026 743 1132 615 l 1075 281 b 668 -21 1040 79 904 -21 b 360 228 460 -21 357 63 l 360 236 l 324 236 l 292 56 b 228 0 285 15 268 0 l 32 0 b -12 56 -8 0 -19 13 l 96 667 b 160 722 103 710 119 722 l 356 722 b 400 667 396 722 407 707 l 369 499 l 407 499 m 799 440 b 753 486 804 471 789 486 b 692 440 718 486 697 471 l 664 282 b 708 238 658 253 674 238 b 771 282 744 238 765 253 "},"я":{"ha":776,"x_min":0,"x_max":0,"o":"m 736 722 b 782 667 776 722 789 710 l 674 56 b 608 0 667 15 651 0 l 414 0 b 368 56 374 0 361 13 l 396 208 l 371 208 l 289 57 b 169 0 265 13 238 0 l 3 0 b -29 78 -58 0 -64 26 l 106 275 b 58 478 60 324 43 392 b 372 722 88 640 193 722 m 400 503 b 360 465 378 503 364 490 b 388 429 356 442 364 429 l 435 429 l 447 503 "},"ё":{"ha":760,"x_min":0,"x_max":0,"o":"m 374 1032 b 468 922 461 1032 483 1006 l 465 901 b 332 792 450 819 417 792 l 321 792 b 229 901 236 792 214 819 l 232 922 b 363 1032 247 1006 278 1032 m 683 1032 b 776 922 768 1032 792 1006 l 774 901 b 642 792 758 819 726 792 l 632 792 b 538 901 547 792 522 819 l 540 922 b 674 1032 556 1006 589 1032 m 58 443 b 465 743 92 632 239 743 b 783 492 686 743 801 660 b 499 285 768 368 658 285 b 338 290 432 285 378 286 l 333 267 b 381 197 325 221 340 197 b 454 221 414 197 444 213 b 476 242 458 225 467 232 b 554 253 496 265 522 268 l 671 199 b 688 119 708 182 714 163 b 343 -21 621 26 506 -21 b 35 308 97 -21 0 108 m 485 504 b 438 543 489 531 472 543 b 371 482 401 543 379 522 l 368 468 b 426 465 390 467 410 465 b 485 504 461 465 481 478 "}}}
